<svg width="52" height="69" viewBox="0 0 52 69" fill="none" xmlns="http://www.w3.org/2000/svg">
<path d="M26 0C11.6594 0 0 11.6819 0 26.0586C0 46.4716 23.5625 67.5583 24.5646 68.4476C24.9844 68.8114 25.4854 69 26 69C26.5146 69 27.0292 68.8248 27.4354 68.461C28.4375 67.5583 52 46.4716 52 26.0586C52 11.6819 40.3406 0 26 0Z" fill="#699FF0"/>
<path d="M30.0479 36.62C29.5812 37.1933 29.0079 37.6267 28.3279 37.92C27.6612 38.2267 26.9279 38.38 26.1279 38.38C25.3546 38.38 24.6546 38.28 24.0279 38.08C23.4012 37.88 22.7679 37.5467 22.1279 37.08C21.5012 36.6267 20.7946 35.9867 20.0079 35.16C18.7946 34.96 17.7146 34.5267 16.7679 33.86C15.8212 33.1933 15.0812 32.3533 14.5479 31.34C14.0279 30.3267 13.7679 29.2133 13.7679 28C13.7679 26.6133 14.1012 25.3667 14.7679 24.26C15.4479 23.1533 16.3746 22.2867 17.5479 21.66C18.7346 21.0333 20.0679 20.72 21.5479 20.72C23.0279 20.72 24.3546 21.0333 25.5279 21.66C26.7146 22.2867 27.6412 23.1533 28.3079 24.26C28.9879 25.3667 29.3279 26.6133 29.3279 28C29.3279 29.5733 28.8946 30.9667 28.0279 32.18C27.1746 33.38 26.0212 34.24 24.5679 34.76C24.8346 35.0533 25.0946 35.26 25.3479 35.38C25.6146 35.5 25.9012 35.56 26.2079 35.56C26.9946 35.56 27.7012 35.2333 28.3279 34.58L30.0479 36.62ZM17.7679 28C17.7679 28.7867 17.9346 29.4867 18.2679 30.1C18.6012 30.7 19.0546 31.1667 19.6279 31.5C20.2012 31.8333 20.8412 32 21.5479 32C22.2546 32 22.8946 31.8333 23.4679 31.5C24.0412 31.1667 24.4946 30.7 24.8279 30.1C25.1612 29.4867 25.3279 28.7867 25.3279 28C25.3279 27.2133 25.1612 26.52 24.8279 25.92C24.4946 25.3067 24.0412 24.8333 23.4679 24.5C22.8946 24.1667 22.2546 24 21.5479 24C20.8412 24 20.2012 24.1667 19.6279 24.5C19.0546 24.8333 18.6012 25.3067 18.2679 25.92C17.9346 26.52 17.7679 27.2133 17.7679 28ZM36.4866 21V35H32.5266V24.06H29.9266V21H36.4866Z" fill="white"/>
</svg>
