<svg width="1598" height="1065" viewBox="0 0 1598 1065" fill="none" xmlns="http://www.w3.org/2000/svg">
<path d="M1144.9 166.6L1135 178.4L1104.2 187.4V167.9L1135 158.2L1144.9 166.6Z" fill="#455A64"/>
<path d="M1135 158.2L1131.9 157.7L1102 167L1102.4 187.4H1104.2V167.9L1135 158.2Z" fill="#fff"/>
<path d="M1169.5 205.6L1159.2 214.8L1103.7 212.1L1104.7 192.6L1160.1 195.4L1169.5 205.6Z" fill="#FFC727"/>
<path d="M1160.1 195.4L1162.9 197L1171.7 206.5L1160.1 216.7L1104.1 213.7L1103.7 212.1L1159.2 214.8L1169.5 205.6L1160.1 195.4Z" fill="#FFC727"/>
<path opacity="0.1" d="M1160.1 195.4L1162.9 197L1171.7 206.5L1160.1 216.7L1104.1 213.7L1103.7 212.1L1159.2 214.8L1169.5 205.6L1160.1 195.4Z" fill="black"/>
<path d="M1036 192.6L1046.6 201.5L1102 197.1L1100.4 177.6L1045.1 182.1L1036 192.6Z" fill="#FF4D43"/>
<path d="M1036 192.6L1046.6 201.5L1102 197.1L1101.8 200.4L1047.6 204.7L1037.3 196.2L1036 192.6Z" fill="#F44238"/>
<path d="M1109.1 431H1093.9L1097.4 150.4C1097.4 146.9 1099.2 144 1101.3 144H1101.6C1103.7 144 1105.4 146.8 1105.5 150.4L1109.1 431Z" fill="#DDEFF7"/>
<path opacity="0.4" d="M1109.1 431H1093.9L1097.4 150.4C1097.4 146.9 1099.2 144 1101.3 144H1101.6C1103.7 144 1105.4 146.8 1105.5 150.4L1109.1 431Z" fill="#EFF5FC"/>
<g opacity="0.3">
<g opacity="0.3">
<path opacity="0.3" d="M1100.1 154.8C1099.8 165.1 1099.6 175.4 1099.4 185.7C1099.2 196 1099.1 206.3 1099 216.6C1099 226.9 1099 237.2 1099.2 247.5L1099.4 255.2L1099.8 262.9L1100.4 270.6C1100.6 273.2 1100.8 275.7 1100.8 278.3C1101.1 288.6 1100.7 298.9 1100.1 309.2C1099.5 319.5 1098.8 329.8 1098.2 340C1097.1 360.6 1096.6 381.2 1098.3 401.7C1097.4 391.4 1096.9 381.1 1096.9 370.8C1096.9 360.5 1097.3 350.2 1097.8 339.9C1098.3 329.6 1099.1 319.3 1099.6 309.1C1100.2 298.8 1100.6 288.5 1100.3 278.2C1100.2 275.6 1100 273.1 1099.8 270.5L1099.3 262.8L1099 255.1L1098.8 247.4C1098.6 237.1 1098.6 226.8 1098.7 216.5C1098.8 196 1099.4 175.4 1100.1 154.8Z" fill="black"/>
</g>
<g opacity="0.3">
<path opacity="0.3" d="M1100.8 148.9L1101.5 161.2L1102 173.5C1102.3 181.7 1102.6 189.9 1102.7 198.1C1102.8 206.3 1102.8 214.5 1102.7 222.8C1102.6 231 1102.3 239.2 1101.5 247.4L1101.9 241.2L1102.1 235C1102.2 230.9 1102.3 226.8 1102.4 222.7C1102.5 214.5 1102.4 206.3 1102.2 198.1C1102.1 189.9 1101.9 181.7 1101.6 173.5L1101.2 161.2L1100.8 148.9Z" fill="black"/>
</g>
<g opacity="0.3">
<path opacity="0.3" d="M1098.9 371.8C1099.5 367.8 1099.9 363.8 1100.4 359.8C1100.9 355.8 1101.3 351.8 1101.7 347.8C1102.5 339.8 1103.2 331.7 1103.6 323.7C1103.9 319.7 1104 315.6 1104.2 311.6C1104.3 307.6 1104.4 303.5 1104.3 299.5V296.5C1104.3 295.5 1104.2 294.5 1104.2 293.5C1104.1 291.5 1104.1 289.5 1103.9 287.5C1103.7 285.5 1103.6 283.5 1103.4 281.5L1102.5 275.5C1104.1 283.4 1104.6 291.5 1104.7 299.6C1104.8 303.6 1104.7 307.7 1104.7 311.7C1104.5 315.7 1104.4 319.8 1104.2 323.8C1103.7 331.9 1103 339.9 1102.1 347.9C1101.2 355.8 1100.2 363.9 1098.9 371.8Z" fill="black"/>
</g>
<g opacity="0.3">
<path opacity="0.3" d="M1104.4 234.2C1104 239 1103.6 243.7 1103.2 248.5C1102.9 253.3 1102.6 258 1102.5 262.8C1102.5 265.2 1102.5 267.6 1102.9 269.9C1103 270.5 1103.1 271.1 1103.4 271.5C1103.5 271.6 1103.5 271.7 1103.6 271.7C1103.6 271.7 1103.7 271.7 1103.8 271.6C1104 271.4 1104.1 271.1 1104.2 270.9C1104.6 269.8 1104.8 268.6 1104.9 267.4C1105.2 265 1105.3 262.7 1105.2 260.3C1105.1 257.9 1104.9 255.5 1104.4 253.2C1105.5 257.8 1105.8 262.7 1105.3 267.5C1105.2 268.7 1105 269.9 1104.6 271.1C1104.5 271.4 1104.4 271.7 1104.1 272C1104 272.1 1103.8 272.3 1103.5 272.2C1103.3 272.1 1103.2 271.9 1103.1 271.8C1102.8 271.2 1102.7 270.6 1102.5 270C1102.1 267.6 1102 265.2 1102 262.8C1102.1 258 1102.4 253.2 1102.8 248.5C1103.2 243.7 1103.7 238.9 1104.4 234.2Z" fill="black"/>
</g>
<g opacity="0.3">
<path opacity="0.3" d="M1105.4 337.2C1104.6 346.8 1103.8 356.4 1102.7 366C1102.4 368.4 1102.1 370.8 1101.8 373.2C1101.5 375.6 1101 378 1100.7 380.3C1100.1 385.1 1099.8 389.9 1099.9 394.7C1100 397.1 1100.2 399.5 1100.6 401.8C1100.8 403 1101.2 404.1 1101.7 405.1C1102 405.6 1102.4 406 1102.9 406.2C1103.2 406.3 1103.3 406.3 1103.5 406.1C1103.7 405.9 1103.8 405.7 1103.9 405.4C1104.3 404.3 1104.5 403.1 1104.7 401.9C1104.9 400.7 1105 399.5 1105 398.3C1105.1 395.9 1105.2 393.5 1105.1 391.1C1105 388.7 1104.9 386.3 1104.5 383.9C1104.4 383.3 1104.3 382.7 1104.1 382.1C1103.9 381.5 1103.8 380.9 1103.4 380.6C1103.2 380.5 1103 380.6 1102.8 380.8C1102.6 381 1102.5 381.3 1102.4 381.6C1102.2 382.2 1102.1 382.7 1102 383.3C1101.6 385.7 1101.5 388.1 1101.5 390.5C1101.5 391.7 1101.6 392.9 1101.7 394.1C1101.8 394.7 1101.8 395.3 1101.9 395.9C1102 396.5 1102.1 397.1 1102.5 397.6C1102.1 397.1 1102 396.5 1101.9 395.9C1101.8 395.3 1101.7 394.7 1101.6 394.1C1101.5 392.9 1101.4 391.7 1101.4 390.5C1101.3 388.1 1101.4 385.7 1101.7 383.3C1101.8 382.7 1101.9 382.1 1102.1 381.5C1102.2 381.2 1102.3 380.9 1102.5 380.7C1102.6 380.6 1102.7 380.4 1102.9 380.4C1103.1 380.3 1103.3 380.4 1103.5 380.5C1104 381 1104.1 381.6 1104.3 382.2C1104.5 382.8 1104.6 383.4 1104.7 384C1105.1 386.4 1105.2 388.8 1105.3 391.2C1105.4 393.6 1105.4 396 1105.2 398.4C1105.1 399.6 1105 400.8 1104.9 402C1104.7 403.2 1104.6 404.4 1104.1 405.6C1104 405.9 1103.8 406.2 1103.6 406.4C1103.5 406.5 1103.3 406.6 1103.1 406.7C1102.9 406.7 1102.7 406.7 1102.6 406.7C1101.9 406.5 1101.5 406 1101.1 405.5C1100.5 404.4 1100.1 403.2 1099.9 402C1099.4 399.6 1099.2 397.2 1099.2 394.8C1099.1 390 1099.4 385.1 1100.1 380.3C1100.4 377.9 1100.9 375.5 1101.2 373.2C1101.5 370.8 1101.8 368.4 1102.1 366C1103.5 356.4 1104.5 346.8 1105.4 337.2Z" fill="black"/>
</g>
<g opacity="0.3">
<path opacity="0.3" d="M1098 431C1097.7 427.5 1097.5 424.1 1097.2 420.6L1096.6 410.2L1096.1 399.8C1095.9 396.3 1095.8 392.9 1095.7 389.4C1096 392.9 1096.2 396.3 1096.5 399.8L1097.1 410.2L1097.6 420.6C1097.8 424.1 1097.9 427.6 1098 431Z" fill="black"/>
</g>
<g opacity="0.3">
<path opacity="0.3" d="M1102 431C1102.7 428.2 1102.9 425.3 1102.7 422.5C1102.5 419.7 1101.9 416.9 1100.7 414.3C1099.5 411.7 1098.7 408.9 1098.2 406.1C1097.6 403.3 1097.3 400.4 1097.1 397.6C1097.4 400.4 1097.9 403.3 1098.5 406.1C1099.1 408.9 1099.9 411.6 1101.1 414.2C1102.3 416.8 1103 419.7 1103.1 422.6C1103.3 425.4 1102.9 428.3 1102 431Z" fill="black"/>
</g>
<g opacity="0.3">
<path opacity="0.3" d="M1105.4 346.7C1105 353.7 1104.9 360.8 1105.2 367.8C1105.3 371.3 1105.5 374.8 1106 378.3C1106.5 381.8 1107 385.3 1107.3 388.8C1107.6 392.3 1107.9 395.8 1107.9 399.4C1107.9 402.9 1107.8 406.5 1107 410C1106.1 413.4 1105.6 416.9 1105.3 420.4C1105 423.9 1104.8 427.4 1104.9 431C1104.6 424 1104.9 416.8 1106.6 410C1107.3 406.6 1107.4 403 1107.4 399.5C1107.3 396 1107.2 392.5 1106.9 389C1106.6 385.5 1106.2 382 1105.7 378.5C1105.3 375 1105.1 371.5 1105 367.9C1104.7 360.8 1104.9 353.8 1105.4 346.7Z" fill="black"/>
</g>
<g opacity="0.3">
<path opacity="0.3" d="M1102.6 144.2C1102.9 148.4 1103.2 152.7 1103.5 156.9C1103.8 161.2 1104 165.4 1104.1 169.7C1104.3 174 1104.4 178.2 1104.5 182.5C1104.5 186.8 1104.5 191 1104.2 195.3C1104.3 193.2 1104.3 191 1104.2 188.9C1104.2 186.8 1104.1 184.6 1104.1 182.5C1104 178.2 1103.8 174 1103.6 169.7L1102.6 144.2Z" fill="black"/>
</g>
</g>
<g clip-path="url(#clip0)">
<g clip-path="url(#clip1)">
<path d="M278.359 24.7975C278.359 24.7975 707.407 48.7952 773.423 119.089L742.972 206.48L563.217 293.072C563.217 293.072 552.081 329.469 612.303 359.466C612.303 359.466 700.249 407.462 799.443 431.459C799.443 431.459 1006.58 493.454 1037.26 512.452C1037.26 512.452 1158.5 559.847 1130.89 637.34L1164.5 1005.5C1164.5 1005.5 1127.82 939.012 1370.98 791.026L1469.49 726.332C1469.49 726.332 1575.16 651.439 1582.09 618.242L1107.48 456.457L725.701 291.472L743.653 280.473C743.653 280.473 735.018 254.476 785.581 223.479L854.324 181.483C854.324 181.483 928.408 144.086 911.477 95.8908L658.889 43.7957L281.654 19.198L278.359 24.7975Z" fill="#fff"/>
<path d="M1 22.4978C1 22.4978 570.261 12.4987 733.882 78.4925C733.882 78.4925 811.147 101.19 758.084 131.788L630.824 201.781C630.824 201.781 524.811 250.476 574.807 315.07C574.807 315.07 621.052 361.766 714.906 383.764L986.811 469.056C986.811 469.056 1150.43 523.051 1141.34 602.343C1141.34 602.343 1143.61 649.639 1076.23 689.035L748.198 855.42C748.198 855.42 509.586 965.009 489.133 1062.4H1191.34C1191.34 1062.4 1138.39 995.107 1182.36 936.412C1182.36 936.412 1229.29 869.118 1323.25 807.724L1487.22 701.434L1524.71 674.937L1551.41 651.939C1551.41 651.939 1636.63 586.945 1576.41 519.951C1576.41 519.951 1492.9 439.459 1275.87 414.461L1100.89 388.463L979.312 367.465L887.275 349.467C887.275 349.467 780.468 325.669 754.902 295.172C754.902 295.172 698.999 252.476 804.329 193.082C804.329 193.082 885.344 153.086 908.069 121.788C908.069 121.788 937.611 85.0919 856.597 58.4944C856.597 58.4944 667.184 9.79899 482.429 9.19904L1 -1V22.4978Z" fill="#F2F7F9"/>
<path d="M798.761 1059.8C802.511 1044 808.988 1029 817.055 1015C825.009 1001.01 834.553 987.907 844.78 975.509C865.459 950.711 889.434 928.713 914.886 908.415C927.612 898.316 940.793 888.617 954.201 879.318C967.722 870.018 981.471 861.119 995.787 852.72C997.605 851.62 999.423 850.62 1001.24 849.52C1003.29 848.32 1004.99 847.521 1006.81 846.521L1017.49 840.721L1038.96 829.022L1081.8 805.625L1167.59 758.929L1178.27 753.129L1181 751.63L1182.36 750.93L1183.27 750.43C1183.5 750.33 1183.72 750.23 1183.84 750.13L1184.52 749.83L1189.97 747.23L1200.99 742.03C1204.63 740.331 1208.27 738.431 1211.9 736.731C1215.54 734.931 1219.17 733.231 1222.7 731.331L1233.38 725.732C1235.2 724.832 1236.9 723.932 1238.72 722.932L1243.94 720.033C1247.47 718.133 1250.99 716.233 1254.4 714.233C1268.26 706.334 1281.67 697.935 1294.62 689.035C1307.57 680.136 1319.85 670.637 1330.98 660.438C1342.12 650.139 1352.34 639.24 1359.96 627.341C1363.71 621.442 1366.89 615.242 1369.05 609.043C1370.07 605.943 1370.86 602.843 1371.32 599.744C1371.43 598.944 1371.55 598.244 1371.55 597.444C1371.55 596.744 1371.66 595.944 1371.66 595.244C1371.66 594.544 1371.66 593.844 1371.55 593.144C1371.55 592.844 1371.55 592.444 1371.43 592.145V591.645C1371.43 591.545 1371.43 591.445 1371.43 591.445L1371.32 591.145V590.745V590.545L1371.2 589.645C1371.09 589.045 1371.09 588.345 1370.98 587.745V586.045C1370.98 585.645 1370.98 585.245 1370.98 584.845L1370.86 582.445C1370.64 580.846 1370.41 579.246 1370.07 577.646C1369.27 574.446 1368.14 571.246 1366.66 568.147C1365.07 565.047 1363.25 561.947 1361.09 558.948C1358.93 555.948 1356.55 553.048 1353.93 550.248C1348.71 544.649 1342.68 539.249 1336.32 534.25C1329.96 529.25 1323.03 524.551 1315.98 520.051C1301.78 511.152 1286.67 503.153 1271.1 495.754C1255.53 488.354 1239.51 481.655 1223.26 475.355C1215.08 472.256 1206.9 469.256 1198.61 466.356C1194.52 464.956 1190.31 463.557 1186.22 462.157L1183.16 461.157L1180.2 460.257L1174.07 458.757L1122.14 445.758L1018.4 419.661L913.636 397.263L861.142 386.064L847.847 383.364L834.553 380.364L821.373 377.165C817.055 376.065 812.624 374.865 808.306 373.765C773.65 364.466 739.563 353.767 705.816 342.468L693.204 338.168L686.841 335.969L680.364 333.469C671.729 330.169 663.548 325.869 655.821 320.97C648.095 315.97 641.05 309.871 635.596 302.672L633.664 299.872L632.755 298.472C632.414 297.972 632.187 297.472 631.96 296.972L630.369 293.972C629.915 292.973 629.46 291.873 629.006 290.873C628.551 289.873 628.21 288.773 627.869 287.673L627.301 286.073L626.96 284.373C626.847 283.773 626.733 283.273 626.619 282.674L626.392 280.974C626.279 280.374 626.279 279.774 626.165 279.174L626.051 278.274C626.051 277.974 626.051 277.574 626.051 277.274C626.051 277.174 626.051 276.874 626.051 276.974C626.051 276.874 626.051 276.774 626.051 276.674L625.938 276.174C625.938 276.174 625.938 276.074 625.938 275.974V275.674V274.974C625.824 274.574 625.824 274.074 625.824 273.674C625.824 272.874 625.824 271.975 625.824 271.175C626.051 269.575 626.279 267.875 626.733 266.375L627.074 265.175C627.188 264.775 627.301 264.475 627.529 264.075C627.756 263.375 628.097 262.575 628.324 261.875C629.006 260.476 629.687 259.076 630.483 257.776C633.551 252.376 637.414 247.877 641.618 243.577C645.709 239.278 650.254 235.378 654.799 231.678C659.457 227.979 664.229 224.479 669.115 221.079C671.615 219.379 674.001 217.78 676.615 216.18C677.864 215.38 679.114 214.58 680.478 213.78C681.728 212.98 682.978 212.28 684.455 211.48L699.794 202.881L730.586 185.783L792.171 151.586L807.511 142.987C810.124 141.587 812.51 140.187 815.01 138.787C816.26 138.087 817.396 137.287 818.532 136.587C819.782 135.887 820.805 135.087 821.941 134.287C826.372 131.088 830.349 127.488 833.303 123.488C836.258 119.489 838.189 115.089 838.417 110.59C838.757 106.09 837.28 101.49 834.894 97.1909C832.395 92.8913 828.872 88.9916 824.782 85.492C823.759 84.5921 822.736 83.7921 821.714 82.9922C821.146 82.5922 820.691 82.2923 820.123 81.8923L818.305 80.7924C817.737 80.3925 817.169 80.0925 816.487 79.6925L814.669 78.6926C813.419 77.9927 812.169 77.3927 810.919 76.7928C805.806 74.293 800.466 72.0932 794.898 70.0934C783.877 66.0938 772.514 62.7941 760.924 59.8944C749.335 56.9947 737.631 54.3949 725.814 52.0951C702.18 47.4955 678.433 43.7959 654.458 40.7962C630.483 37.7964 606.508 34.4968 582.419 32.297C486.179 22.2979 389.143 17.4984 292.221 14.2987C243.703 12.7988 195.185 11.6989 146.667 11.1989C98.0358 10.699 49.5179 10.499 1 10.999C49.5179 9.99905 98.0358 9.79907 146.554 9.79907C195.072 9.89906 243.589 10.499 292.221 11.5989C389.257 13.9987 486.406 17.8983 582.988 26.9975C607.19 28.9973 631.278 32.097 655.367 34.7967C679.455 37.4965 703.544 41.0961 727.405 45.4957C739.336 47.6955 751.266 50.1953 762.97 53.095C774.787 55.9947 786.49 59.1944 797.966 63.1941C803.647 65.1939 809.442 67.3937 814.896 70.0934C816.26 70.6934 817.623 71.3933 818.987 72.1932L821.032 73.2931C821.714 73.6931 822.395 74.093 823.077 74.493L825.009 75.6929C825.691 76.0929 826.372 76.5928 827.054 76.9928C828.304 77.8927 829.554 78.8926 830.69 79.8925C835.349 83.7921 839.553 88.2917 842.621 93.4912C845.689 98.6907 847.734 104.69 847.393 110.89C847.279 113.989 846.598 116.989 845.461 119.889L844.552 121.989C844.325 122.688 843.871 123.388 843.53 123.988C843.189 124.688 842.848 125.388 842.393 125.988L841.03 127.888C837.394 132.888 832.849 136.987 827.963 140.687C826.713 141.587 825.463 142.487 824.213 143.287C822.964 144.086 821.714 144.986 820.35 145.786C817.737 147.286 815.123 148.886 812.624 150.286L797.284 158.985L736.154 193.782L705.589 211.18L690.25 219.879C689.113 220.479 687.863 221.279 686.727 221.979L683.091 224.279C680.705 225.779 678.319 227.379 676.046 228.979C671.388 232.178 666.843 235.578 662.639 239.078C658.321 242.577 654.23 246.277 650.594 250.177C646.958 254.076 643.55 258.176 641.277 262.375C640.595 263.475 640.255 264.475 639.686 265.575C639.459 266.075 639.346 266.675 639.118 267.175C639.005 267.475 638.891 267.675 638.891 267.975L638.664 268.775C638.323 269.875 638.323 270.875 638.096 271.875V273.374C638.096 273.574 638.096 273.874 638.096 274.074L638.209 274.374V274.574C638.209 274.574 638.209 274.774 638.209 274.874L638.323 276.174C638.323 276.374 638.323 276.574 638.323 276.874C638.323 277.274 638.323 277.374 638.323 277.574V277.974V278.574C638.323 278.974 638.437 279.374 638.437 279.774L638.664 280.974C638.777 281.374 638.891 281.774 639.005 282.174L639.346 283.373L639.8 284.573C640.141 285.373 640.368 286.273 640.709 287.073L641.845 289.473L643.209 291.873C643.436 292.273 643.663 292.673 643.891 293.073L644.686 294.172L646.277 296.472C650.822 302.372 656.844 307.571 663.661 311.871C677.296 320.77 693.658 325.969 710.588 331.469C744.221 342.368 778.195 352.667 812.51 361.566C816.828 362.666 821.032 363.766 825.35 364.766L838.303 367.766L851.256 370.565L864.323 373.065L917.045 383.864L1022.49 405.362L1126.8 430.46L1178.95 443.058L1182.25 443.858L1183.84 444.258L1184.63 444.458L1185.2 444.558C1185.43 444.658 1185.65 444.658 1185.88 444.758L1189.29 445.758L1192.59 446.758C1196.9 448.158 1201.22 449.458 1205.43 450.958C1213.95 453.857 1222.36 456.757 1230.76 459.957C1247.58 466.256 1264.17 472.956 1280.3 480.455C1296.55 487.954 1312.46 496.154 1327.69 505.553C1335.3 510.252 1342.68 515.252 1349.84 520.651C1357 526.051 1363.82 532.05 1369.95 538.55C1373.02 541.849 1375.98 545.349 1378.7 548.949C1381.43 552.648 1383.82 556.548 1385.98 560.647C1388.02 564.747 1389.73 569.147 1390.86 573.746C1391.43 576.046 1391.77 578.346 1392.11 580.646L1392.34 584.145C1392.45 584.745 1392.34 585.345 1392.34 585.945C1392.34 586.445 1392.34 587.345 1392.34 587.245C1392.34 587.345 1392.34 587.445 1392.34 587.545V587.745C1392.34 587.745 1392.34 587.445 1392.34 587.645V587.945L1392.57 589.045L1392.68 589.945C1392.79 590.545 1392.79 591.145 1392.91 591.745C1393.02 592.944 1393.02 594.044 1393.02 595.244C1393.02 596.344 1392.91 597.444 1392.91 598.544C1392.79 599.644 1392.68 600.744 1392.57 601.844C1392 606.143 1390.98 610.243 1389.73 614.242C1387.11 622.242 1383.36 629.641 1378.93 636.64C1374.61 643.64 1369.5 650.139 1364.16 656.339L1360.07 660.938L1355.87 665.338C1353.02 668.337 1350.07 671.137 1347.12 673.937C1335.19 685.136 1322.23 695.335 1308.71 704.734C1295.3 714.233 1281.33 723.032 1267.12 731.331C1263.6 733.431 1259.97 735.431 1256.33 737.431L1250.99 740.431C1249.17 741.431 1247.35 742.43 1245.54 743.33L1234.63 749.13C1230.99 751.03 1227.24 752.929 1223.61 754.729C1219.86 756.529 1216.22 758.529 1212.47 760.329L1201.34 765.728L1195.77 768.428L1191.22 770.928L1180.54 776.827L1095.44 824.323L1052.83 848.121L1031.58 860.219L1020.9 866.119C1019.19 867.119 1017.26 868.119 1015.79 869.019C1014.08 870.018 1012.38 871.018 1010.79 872.018C997.264 880.217 984.084 888.917 971.131 898.016C958.291 907.115 945.679 916.514 933.634 926.413C909.546 946.111 887.048 967.209 868.186 990.307C858.756 1001.81 850.347 1013.9 843.416 1026.4C836.485 1038.9 831.145 1051.9 828.19 1065L798.761 1059.8Z" fill="white"/>
</g>
<path d="M879.195 810L691 1064H1144L1105.14 852.678L879.195 810Z" fill="url(#paint0_linear)"/>
</g>
<defs>
<linearGradient id="paint0_linear" x1="1077" y1="821" x2="749.813" y2="967.945" gradientUnits="userSpaceOnUse">
<stop stop-color="#F2F7F9" stop-opacity="0"/>
<stop offset="1" stop-color="#F2F7F9"/>
</linearGradient>
<clipPath id="clip0">
<rect width="1598" height="1065" fill="white"/>
</clipPath>
<clipPath id="clip1">
<rect width="1597" height="1066" fill="white" transform="translate(1 -1)"/>
</clipPath>
</defs>
</svg>
