<svg width="240" height="238" viewBox="0 0 240 238" fill="none" xmlns="http://www.w3.org/2000/svg">
<g clip-path="url(#clip0)">
<path d="M239.505 118.221C239.69 120.049 238.438 121.52 236.716 121.491L219.799 121.263C218.035 121.234 216.484 119.706 216.314 117.864L216.015 114.636C215.844 112.793 217.125 111.322 218.889 111.351L235.763 111.679C237.484 111.708 239.021 113.222 239.206 115.036L239.505 118.221Z" fill="#97A6B7"/>
<path d="M30.1598 114.907C30.1882 116.964 28.424 118.606 26.2472 118.578L4.82043 118.278C2.5867 118.235 0.751343 116.521 0.751343 114.436V110.808C0.751343 108.737 2.57247 107.094 4.79198 107.137L26.1191 107.551C28.2817 107.594 30.0886 109.28 30.1029 111.322L30.1598 114.907Z" fill="#97A6B7"/>
<path d="M134.192 231.695C118.015 232.48 101.924 229.909 86.4157 223.996C71.2775 218.212 57.4625 209.543 45.4544 198.231C33.4037 186.891 23.8854 173.579 17.1984 158.74C10.3123 143.458 6.82654 127.361 6.78385 110.994C6.74117 94.8402 10.0704 79.5008 16.5582 65.4326C22.7188 52.0928 31.4403 40.4955 42.3813 30.9262C53.1231 21.5426 65.4584 14.6014 79.0031 10.1881C92.7612 5.71767 107.216 4.06091 121.999 5.17494C136.539 6.27469 150.611 10.0167 163.885 16.2581C176.59 22.2282 188.115 30.2549 198.216 40.1384C208.289 50.0076 216.527 61.2907 222.716 73.7593C229.161 86.7278 233.145 100.51 234.553 114.779C235.99 129.232 234.696 143.429 230.669 157.012C226.714 170.352 220.269 182.606 211.434 193.403C202.427 204.415 191.387 213.385 178.554 219.969C165.009 226.939 150.07 230.909 134.192 231.695ZM122.113 7.31731C61.4605 2.78977 9.231 47.8366 9.47287 111.037C9.71474 177.821 67.6637 232.252 134.05 229.11C195.897 226.167 238.253 173.736 232.462 114.779C226.956 58.6056 178.966 11.5735 122.113 7.31731Z" fill="#97A6B7"/>
<path d="M127.676 21.2284C127.775 23.028 126.381 24.3848 124.503 24.2563L121.188 24.042C119.295 23.9135 117.659 22.3567 117.574 20.5571L116.678 3.21819C116.592 1.44717 118.086 0.133179 119.95 0.276004L123.194 0.533088C125.058 0.675912 126.623 2.21842 126.722 3.98944L127.676 21.2284Z" fill="#D8DEE8"/>
<path d="M139.555 233.509C139.669 235.651 138.175 237.479 136.127 237.579L132.527 237.765C130.478 237.879 128.686 236.208 128.572 234.051L127.505 213.313C127.391 211.199 129.013 209.414 131.047 209.343L134.562 209.214C136.582 209.143 138.289 210.785 138.403 212.885L139.555 233.509Z" fill="#D8DEE8"/>
<path d="M239.505 116.364C239.69 118.192 238.438 119.663 236.716 119.635L219.799 119.406C218.035 119.378 216.484 117.849 216.314 116.007L216.015 112.779C215.844 110.937 217.125 109.465 218.889 109.494L235.763 109.823C237.484 109.851 239.021 111.365 239.206 113.179L239.505 116.364Z" fill="#D8DEE8"/>
<path d="M30.1598 113.05C30.1882 115.107 28.424 116.749 26.2472 116.721L4.82043 116.421C2.5867 116.392 0.751343 114.664 0.751343 112.593V108.951C0.751343 106.88 2.57247 105.238 4.79198 105.281L26.1191 105.695C28.2817 105.738 30.0886 107.423 30.1029 109.465L30.1598 113.05Z" fill="#D8DEE8"/>
<path d="M210.637 70.0456C200.45 52.7638 185.61 38.2529 168.025 28.4265C154.367 20.7997 138.915 15.9151 122.525 14.7582C105.822 13.5728 89.9441 16.3864 75.8446 22.4565C57.0215 30.5546 41.2857 44.48 31.113 62.4473C23.0887 76.587 18.5501 93.1689 18.6781 111.208C18.8204 129.518 23.7574 147.042 32.422 162.525C43.7329 182.777 61.1759 199.23 82.0193 209.357C97.8546 217.055 115.454 220.997 133.58 220.226C151.35 219.469 167.47 214.27 181.072 205.829C198.316 195.146 211.448 179.292 218.86 160.654C224.423 146.657 226.785 131.017 225.234 114.664C223.669 98.5105 218.49 83.3711 210.637 70.0456ZM154.523 155.069C147.68 159.411 139.456 161.968 130.45 162.067C121.344 162.167 112.609 159.725 104.954 155.398C97.2998 151.07 90.7835 144.843 86.0884 137.416C81.3791 129.961 78.5478 121.32 78.249 112.193C77.9502 103.138 80.1982 94.7685 84.31 87.7273C88.3648 80.786 94.2408 75.1302 101.298 71.3167C108.312 67.5319 116.493 65.5609 125.257 65.9323C133.936 66.3036 142.145 68.9316 149.273 73.1877C156.344 77.4154 162.391 83.2712 166.83 90.1839C171.297 97.1394 174.157 105.195 174.783 113.793C175.423 122.462 173.716 130.618 170.202 137.673C166.659 144.786 161.253 150.784 154.523 155.069Z" fill="white"/>
<path d="M168.025 28.4265C161.907 43.0232 155.661 57.9484 149.287 73.1877C142.159 68.9173 133.964 66.2893 125.271 65.9323C116.507 65.5609 108.312 67.5319 101.312 71.3167C92.7754 54.949 84.2815 38.6528 75.8445 22.4565C89.9583 16.3864 105.822 13.5728 122.525 14.7582C138.915 15.9151 154.367 20.7997 168.025 28.4265Z" fill="#FF4D43"/>
<path d="M181.058 205.815C167.47 214.241 151.336 219.455 133.566 220.211C115.44 220.983 97.8405 217.041 82.0052 209.343C89.8304 190.932 97.4706 172.965 104.94 155.412C112.595 159.74 121.33 162.182 130.436 162.082C139.456 161.982 147.666 159.425 154.509 155.083C163.316 171.894 172.165 188.804 181.058 205.815Z" fill="#FF4D43"/>
<path d="M225.206 114.65C226.757 131.003 224.409 146.642 218.832 160.639C202.812 153.069 186.592 145.428 170.202 137.687C173.73 130.632 175.424 122.476 174.783 113.807C174.143 105.209 171.283 97.1535 166.83 90.198C181.783 83.3281 196.367 76.6153 210.637 70.0454C218.49 83.3709 223.669 98.5104 225.206 114.65Z" fill="#FF4D43"/>
<path d="M78.249 112.179C78.5478 121.305 81.3933 129.946 86.0884 137.402C68.6596 145.543 50.7756 153.912 32.4077 162.496C23.7574 147.014 18.8062 129.489 18.6639 111.179C18.5216 93.1403 23.0744 76.5583 31.0988 62.4187C49.054 70.9453 66.7816 79.372 84.31 87.6987C80.184 94.7685 77.9503 103.124 78.249 112.179Z" fill="#FF4D43"/>
<path opacity="0.2" d="M210.637 70.0456C200.45 52.7638 185.61 38.2529 168.025 28.4265C154.367 20.7997 138.915 15.9151 122.525 14.7582C105.822 13.5728 89.9441 16.3864 75.8446 22.4565C57.0215 30.5546 41.2858 44.48 31.113 62.4473C23.0887 76.587 18.5501 93.1689 18.6781 111.208C18.8204 129.518 23.7574 147.042 32.422 162.525C43.7329 182.777 61.1759 199.23 82.0193 209.357C97.8547 217.055 115.454 220.997 133.58 220.226C151.35 219.469 167.47 214.27 181.072 205.829C198.316 195.146 211.448 179.292 218.86 160.654C224.423 146.657 226.785 131.017 225.234 114.664C223.669 98.5105 218.49 83.3711 210.637 70.0456ZM193.208 147.228C187.673 160.439 178.056 171.551 165.606 178.892C155.875 184.648 144.407 188.076 131.859 188.39C119.139 188.704 106.846 185.776 95.8201 180.292C81.3506 173.108 69.2287 161.596 61.304 147.528C55.2288 136.745 51.6577 124.547 51.3873 111.75C51.117 99.0961 54.0906 87.3702 59.5255 77.3154C66.4686 64.4469 77.3954 54.3063 90.6555 48.2934C100.657 43.7373 111.997 41.5093 123.991 42.1805C135.842 42.8375 147.039 46.251 156.97 51.6926C169.775 58.7196 180.588 69.2315 187.944 81.8143C193.621 91.5121 197.291 102.51 198.273 114.193C199.269 126.004 197.391 137.23 193.208 147.228Z" fill="#FF4D43"/>
</g>
<defs>
<clipPath id="clip0">
<rect width="238.767" height="237.517" fill="white" transform="translate(0.751343 0.261963)"/>
</clipPath>
</defs>
</svg>
