<svg width="1920" height="1171" viewBox="0 0 1920 1171" fill="none" xmlns="http://www.w3.org/2000/svg">
<path fill-rule="evenodd" clip-rule="evenodd" d="M1966.72 274.887C1955.35 229.826 1895.3 203.965 1841.62 206.708C1788.04 209.446 1739.44 233.659 1693.11 256.741L1692.87 256.863C1646.47 279.981 1597.34 303.883 1543.66 305.451C1504.38 306.723 1466.83 296.27 1429.14 285.777C1408.77 280.108 1388.36 274.426 1367.61 270.577C1280.76 254.298 1190.93 270.21 1101.64 286.026C999.667 304.091 898.399 322.03 803.079 291.736C720.75 265.317 659.187 207.133 599.332 150.562C591.719 143.367 584.134 136.198 576.537 129.124C509.212 66.0384 426.874 4.1281 327.705 0.209731C271.467 -2.07883 217.385 14.7542 163.412 31.5532C109.511 48.3297 55.7194 65.0721 0 62.7013V622.447H1V1171C184.196 1072.49 474.173 1023.48 743.907 1045.29C802.082 1049.94 859.001 1057.58 915.857 1065.22C978.693 1073.66 1041.45 1082.08 1105.75 1086.46C1228.21 1094.79 1366.88 1085.23 1449.87 1040.63C1509.13 1008.7 1528.24 966.336 1547.53 923.578C1560.37 895.131 1573.28 866.509 1598.15 840.663C1648.25 788.466 1750.98 748.767 1867.38 736.514C1884.71 734.681 1902.31 733.468 1920 732.855V622.447H1974L1966.72 274.887Z" fill="#F2F7F9"/>
</svg>
