<svg width="25" height="25" viewBox="0 0 25 25" fill="none" xmlns="http://www.w3.org/2000/svg">
<path d="M14.1376 13.8399C11.1013 16.8316 8.065 19.8232 5.03531 22.8084C4.18383 23.6474 3.03791 23.6858 2.26274 22.8991C1.50727 22.1323 1.5495 20.9869 2.38118 20.1675C8.47358 14.1646 14.566 8.16181 20.6584 2.15898C21.49 1.33952 22.6293 1.32076 23.3979 2.10083C24.16 2.87424 24.1112 4.01295 23.2861 4.83907C20.2366 7.84375 17.1937 10.8419 14.1376 13.8399Z" fill="#e93a41"/>
<path d="M11.323 13.5238C8.47416 10.3531 5.62529 7.18247 2.78262 4.0187C1.97751 3.12265 1.998 1.98307 2.81956 1.24489C3.63339 0.52612 4.76246 0.620347 5.549 1.49573C11.2777 7.87151 17.0002 14.2404 22.7289 20.6162C23.4721 21.4433 23.4237 22.6079 22.6238 23.3142C21.8301 24.0273 20.6871 23.9456 19.9253 23.0978C17.0509 19.9127 14.1905 16.7151 11.323 13.5238Z" fill="#e93a41"/>
</svg>
