<?xml version="1.0" encoding="utf-8"?>
<!-- Generator: Adobe Illustrator 25.0.0, SVG Export Plug-In . SVG Version: 6.00 Build 0)  -->
<svg version="1.1" id="Слой_2" xmlns="http://www.w3.org/2000/svg" xmlns:xlink="http://www.w3.org/1999/xlink" x="0px" y="0px"
	 viewBox="0 0 52.5 52.4" style="enable-background:new 0 0 52.5 52.4;" xml:space="preserve">
<style type="text/css">
	.st0{fill:#fff;stroke:#fff;stroke-width:0.5;stroke-miterlimit:10;}
	.st1{fill:#fff;stroke:#fff;stroke-miterlimit:10;}
	.st2{fill:#e93a41;stroke:#e93a41;stroke-width:0.5;stroke-miterlimit:10;}
</style>
<path class="st0" d="M7.1,23.7c-0.5,0-0.9-0.4-0.9-0.8c0,0,0-0.1,0-0.1c1.5-8.4,8.1-15,16.5-16.5c0.5-0.1,0.9,0.2,1,0.7
	c0.1,0.5-0.2,0.9-0.7,1C15.3,9.2,9.3,15.2,7.9,23C7.8,23.4,7.5,23.7,7.1,23.7z"/>
<path class="st0" d="M29.7,46.3c-0.5,0-0.8-0.4-0.9-0.8c0-0.4,0.3-0.8,0.7-0.8c7.7-1.4,13.8-7.4,15.2-15.2c0.1-0.5,0.5-0.8,1-0.7
	s0.8,0.5,0.7,1c0,0,0,0,0,0c-1.5,8.4-8.1,15-16.5,16.5C29.8,46.3,29.8,46.3,29.7,46.3z"/>
<path class="st0" d="M44.7,26.2L44.7,26.2c0,0.6,0.5,1.2,1.1,1.2c0,0,0,0,0,0c0.6,0,1.1-0.5,1.1-1.1v0c0-0.6-0.5-1.1-1.1-1.2
	C45.3,25.1,44.8,25.6,44.7,26.2z"/>
<path class="st0" d="M25.2,45.7L25.2,45.7c0,0.6,0.5,1.2,1.1,1.2c0,0,0,0,0,0c0.6,0,1.1-0.5,1.1-1.1v0c0-0.6-0.5-1.1-1.1-1.2
	C25.7,44.6,25.2,45.1,25.2,45.7z"/>
<path class="st0" d="M5.6,26.2L5.6,26.2c0,0.6,0.5,1.2,1.1,1.2c0,0,0,0,0,0c0.6,0,1.1-0.5,1.1-1.1v0c0-0.6-0.5-1.1-1.1-1.2
	C6.2,25.1,5.7,25.5,5.6,26.2z"/>
<path class="st0" d="M25.2,6.6L25.2,6.6c0,0.6,0.5,1.2,1.1,1.2c0,0,0,0,0,0c0.6,0,1.1-0.5,1.1-1.1v0c0-0.6-0.5-1.1-1.1-1.2
	C25.7,5.5,25.2,6,25.2,6.6z"/>
<path class="st1" d="M26.3,51.7c-14.1,0-25.5-11.4-25.5-25.5c0-6.8,2.7-13.2,7.5-18c10-10,26.1-10,36.1,0s10,26.1,0,36.1
	C39.6,49,33.1,51.7,26.3,51.7z M26.3,2.4C13.2,2.4,2.5,13.1,2.5,26.2c0,6.3,2.5,12.4,7,16.8c9.3,9.3,24.4,9.3,33.7,0
	s9.3-24.4,0-33.7C38.7,4.9,32.6,2.4,26.3,2.4z"/>
<path class="st2" d="M31,34.2c1.4-1,2.1-2.3,2.1-3.7c0-1.4-0.7-2.7-2.1-3.7c-1.1-0.8-2.4-1.2-3.9-1.4v-6.8c2.4,0.3,4.2,1.7,4.2,3.3
	c0,0.5,0.4,0.8,0.8,0.8c0.5,0,0.8-0.4,0.8-0.8c0-1.4-0.7-2.7-2.1-3.7c-1.1-0.8-2.4-1.2-3.9-1.4v-1.7c0-0.5-0.4-0.8-0.8-0.8
	c-0.5,0-0.8,0.4-0.8,0.8v1.7c-1.4,0.1-2.8,0.6-3.9,1.4c-1.4,1-2.1,2.3-2.1,3.7c0,1.4,0.7,2.7,2.1,3.7c1.1,0.8,2.4,1.2,3.9,1.4v6.8
	c-2.4-0.3-4.2-1.7-4.2-3.3c0-0.5-0.4-0.8-0.8-0.8s-0.8,0.4-0.8,0.8c0,1.4,0.7,2.7,2.1,3.7c1.1,0.8,2.4,1.2,3.9,1.4v1.7
	c0,0.5,0.4,0.8,0.8,0.8c0.5,0,0.8-0.4,0.8-0.8v-1.7C28.6,35.4,30,34.9,31,34.2z M31.4,30.5c0,1.7-1.9,3.1-4.2,3.3v-6.7
	C29.5,27.4,31.4,28.8,31.4,30.5z M21.2,22c0-1.7,1.9-3.1,4.2-3.3v6.7C23.1,25,21.2,23.6,21.2,22z"/>
</svg>
