<svg width="257" height="192" viewBox="0 0 257 192" fill="none" xmlns="http://www.w3.org/2000/svg">
<g clip-path="url(#clip0)">
<path d="M22.7 149.8C17.4 153.4 8.49999 158.7 5.39999 164.3C2.19999 169.9 2.29999 177.9 7.19999 182C11.1 185.3 16.9 185.2 21.9 183.9C35.1 180.6 46.1 169.6 49.5 156.4C50 154.4 50.3 152.2 49.1 150.6C47.5 148.5 44.4 148.6 41.8 148.9C33.8 149.8 30.7 148.9 22.7 149.8Z" fill="#F5F5F5"/>
<path d="M34.4 131.1C35.2 127.8 33.1 124.6 30.7 122.2C28.3 119.8 25.4 117.7 24.1 114.6C22.1 109.5 24.7 103 21.3 98.8C19.3 96.3 15.6 95.5 13.8 92.9C12.8 91.5 12.5 89.8 12.2 88.2C10.2 79.8 5.99997 72 -2.93963e-05 65.8C-0.400029 73.3 1.29997 80.8 4.79997 87.4C6.29997 90 7.99997 92.6 8.49997 95.6C9.29997 100.4 6.59997 105.4 7.79997 110.1C9.19997 115.5 15.3 119.1 15.6 124.7C15.9 129.4 11.8 133.6 12.1 138.3C12.2 140.3 13.2 142.2 14.2 143.9C17.9 149.9 23.2 154.1 31.3 153.9L41.2 154.2L34.4 131.1Z" fill="#004B84"/>
<g opacity="0.3">
<g opacity="0.3">
<g opacity="0.3">
<path opacity="0.3" d="M34.4 131.1C35.2 127.8 33.1 124.6 30.7 122.2C28.3 119.8 25.4 117.7 24.1 114.6C22.1 109.5 24.7 103 21.3 98.8C19.3 96.3 15.6 95.5 13.8 92.9C12.8 91.5 12.5 89.8 12.2 88.2C10.2 79.8 5.99997 72 -2.93963e-05 65.8C-0.400029 73.3 1.29997 80.8 4.79997 87.4C6.29997 90 7.99997 92.6 8.49997 95.6C9.29997 100.4 6.59997 105.4 7.79997 110.1C9.19997 115.5 15.3 119.1 15.6 124.7C15.9 129.4 11.8 133.6 12.1 138.3C12.2 140.3 13.2 142.2 14.2 143.9C17.9 149.9 23.2 154.1 31.3 153.9L41.2 154.2L34.4 131.1Z" fill="black"/>
</g>
</g>
</g>
<path d="M43.4 154.1C43.4 154.1 44.3 154.3 46.1 154C47 153.9 48.1 153.6 49.3 153.2C50.5 152.7 51.9 152.1 53.3 151C53.9 150.4 54.6 149.7 54.9 148.8C55.2 147.9 55.3 146.9 55.4 145.8C55.4 144.8 55.4 143.7 55.6 142.6C55.8 141.5 56.2 140.4 56.8 139.4C58 137.3 59.9 135.4 60.5 132.6C61.2 129.9 60.7 126.9 60.2 123.9C59.7 120.9 59.3 117.7 60.4 114.6C61.4 111.5 63.6 108.7 64.7 105.2C65.8 101.7 65.2 97.9 65.4 94.1C65.5 92.2 65.8 90.3 66.7 88.6C67.5 86.8 68.6 85.2 69.5 83.3C71.2 79.6 71.5 75.3 72 71.2C72.2 69.1 72.4 67 72.7 64.9C72.9 62.8 73.1 60.6 73.8 58.5C74.4 56.4 75.3 54.4 76.1 52.3C76.5 51.3 77 50.2 77.2 49.1C77.4 47.9 77.4 46.8 77.5 45.7C77.6 43.4 77.5 41.1 77.2 38.8C76.9 36.5 76.5 34.2 76.2 31.9C76.2 31.8 76.2 31.6 76.2 31.5L76.1 31L75.7 31.2C73.6 32.3 71.8 33.9 70.4 35.7C69 37.6 68 39.6 67.2 41.8C65.6 46.1 65 50.5 64.2 54.8C63.4 59.1 62.4 63.3 60.2 66.8C59.1 68.6 57.8 70.2 56.7 71.9C55.6 73.6 54.6 75.5 54.3 77.6C53.7 81.8 56.1 85.5 55.6 89.2C55.4 91 54.7 92.8 53.8 94.4C52.9 96 51.9 97.5 50.9 99C49.9 100.5 49 102 48.3 103.6C47.6 105.2 47.2 106.9 47.1 108.6C46.9 111.9 47.4 115.1 47.1 118.1C46.9 121.1 45.9 123.8 44.7 126.3C43.5 128.7 42.2 131 41.1 133.1C40.5 134.2 40 135.2 39.6 136.3C39.2 137.3 38.9 138.4 38.7 139.4C38.4 141.5 38.4 143.4 38.7 145.1C39.2 148.5 40.4 150.9 41.6 152.3C41.9 152.7 42.2 152.9 42.4 153.2C42.6 153.4 42.9 153.6 43.1 153.7C43.3 154 43.4 154.1 43.4 154.1C43.4 154 42.6 153.6 41.5 152.2C40.4 150.8 39.2 148.4 38.8 145C38.6 143.3 38.6 141.4 38.9 139.4C39.1 138.4 39.3 137.3 39.8 136.3C40.2 135.3 40.7 134.2 41.3 133.2C42.4 131.1 43.8 128.9 45 126.4C46.2 123.9 47.3 121.2 47.5 118.1C47.7 115 47.3 111.9 47.5 108.6C47.6 107 48 105.3 48.7 103.8C49.4 102.2 50.3 100.8 51.3 99.3C52.3 97.8 53.4 96.3 54.3 94.7C55.2 93.1 56 91.3 56.2 89.3C56.7 85.3 54.3 81.6 54.9 77.7C55.2 75.8 56.1 74 57.2 72.3C58.3 70.6 59.6 69 60.7 67.2C62.9 63.5 64 59.3 64.8 55C65.6 50.7 66.2 46.3 67.8 42.1C68.6 40 69.6 38 71 36.2C72.3 34.4 74.1 32.9 76.1 31.8L75.6 31.5C75.6 31.6 75.6 31.8 75.6 31.9C75.9 34.2 76.3 36.5 76.6 38.8C76.9 41.1 77 43.3 76.9 45.6C76.8 46.7 76.8 47.9 76.6 48.9C76.4 49.9 75.9 51 75.5 52C74.6 54 73.8 56.1 73.1 58.2C72.4 60.3 72.2 62.5 72 64.7C71.8 66.8 71.6 69 71.3 71.1C70.8 75.3 70.6 79.4 68.9 83.1C68.1 84.9 67 86.6 66.2 88.4C65.4 90.2 65 92.2 64.9 94.1C64.7 97.9 65.2 101.7 64.2 105.1C63.2 108.5 61 111.3 60 114.5C58.8 117.7 59.4 121.1 59.8 124.1C60.3 127.1 60.8 130 60.2 132.6C59.6 135.3 57.8 137.2 56.6 139.3C56 140.4 55.5 141.5 55.4 142.6C55.2 143.7 55.2 144.8 55.2 145.9C55.2 146.9 55.1 147.9 54.8 148.8C54.5 149.7 53.9 150.3 53.3 150.9C52 152 50.6 152.6 49.4 153.1C48.2 153.6 47.1 153.8 46.2 154C45.3 154.2 44.6 154.2 44.2 154.2C43.7 154.1 43.4 154.1 43.4 154.1Z" fill="#263238"/>
<path d="M74.0999 37C74.0999 37 74.1 37.1 74 37.3C73.9 37.5 73.9 37.8 73.8 38.2C73.6 39 73.4 40.2 73 41.6C72.6 43.1 71.7 44.7 71 46.8C70.2 48.8 69.3999 51.2 68.6999 53.9C67.9999 56.6 67.2999 59.5 66.5999 62.6C65.8999 65.7 65.2 69.1 63.5 72.3C62.7 73.9 61.7999 75.6 61.0999 77.3C60.3999 79.1 60 81 59.7 83C59.2 86.9 58.4999 90.9 57.5999 95C55.6999 103.1 53.7999 110.9 52.0999 118C50.3999 125 48.7999 131.4 47.4999 136.7C46.1999 142 45.1999 146.3 44.4999 149.3C44.1999 150.8 43.9 151.9 43.7 152.7C43.6 153.1 43.5999 153.4 43.4999 153.6C43.4999 153.8 43.3999 153.9 43.4999 153.9C43.4999 153.9 43.4999 153.8 43.5999 153.6C43.6999 153.4 43.8 153.1 43.9 152.7C44.1 151.9 44.3999 150.7 44.7999 149.3C45.5999 146.3 46.6999 142 47.9999 136.7C49.4 131.4 51 125 52.7 118C54.4 110.9 56.3 103.2 58.2 95C59.0999 90.9 59.7999 86.8 60.2999 82.9C60.5999 81 60.8999 79.1 61.5999 77.3C62.2999 75.6 63.2 73.9 64 72.3C65.7 69.1 66.3999 65.6 67.0999 62.4C67.7999 59.2 68.3999 56.3 69.0999 53.7C69.7999 51.1 70.6 48.7 71.3 46.7C72 44.7 72.8999 43 73.1999 41.4C73.4999 39.9 73.7 38.7 73.9 37.9C74 37.5 73.9999 37.2 74.0999 37C74.1999 37 74.0999 37.1 74.0999 37Z" fill="#263238"/>
<path d="M45.2 154.1C51.7 150.2 53.5 138.5 50.7 131.5C48 124.5 43.2 118.1 42.4 110.6C41.8 104.8 43.7 98.9 42.3 93.3C40.5 85.6 33 79.8 33 72C33 67.6 35.5 63.5 35.3 59.1C35 53.7 30.9 49.5 28.3 44.8C24.3 37.6 24 29 22.7 20.9C21.3 12.6 18.1 4 10.9 0C9.89995 6.9 8.09996 11.6 8.69996 21C8.89996 24.4 12.9 30.8 13.4 38.1C13.7 42.5 14 46.9 14.3 51.3C14.6 55.6 14.9 59.9 16.4 63.9C17.6 67 19.5 69.7 20.4 72.9C22.1 78.9 20 85.3 21.3 91.4C22.5 96.5 26 100.9 26.8 106.1C27.9 113.4 23.2 121 25.6 127.9C26.8 131.3 29.7 134.1 30.5 137.7C31.1 140.5 30.5 143.4 31.1 146.2C32.1 150.7 40.6 154.4 45.2 154.1Z" fill="#004B84"/>
<path d="M12.7 6.80005C12.7 6.80005 12.7 6.90005 12.7 7.20005C12.7 7.50005 12.8 7.90005 12.9 8.30005C13.1 9.30005 13.2 10.8 13.6 12.7C14 14.6 15 16.7 15.8 19.3C16.6 21.9 17.5 24.8001 18.2 28.2001C19 31.5 19.6 35.2001 20.3 39.2001C21 43.1001 21.7 47.5 23.7 51.6C24.6 53.7 25.7 55.7001 26.4 57.9001C27.2 60.1001 27.6 62.5 27.8 64.9001C28.2 69.8001 28.7999 74.9 29.7999 80C31.7999 90.2 33.7999 100 35.5999 108.8C37.4999 117.6 39.0999 125.6 40.5999 132.3C41.9999 138.9 43.2 144.3 44 148.1C44.4 149.9 44.7 151.4 45 152.4C45.0999 152.9 45.2 153.2 45.2999 153.5C45.3999 153.8 45.4 154.2 45.4 154.2C45.4 154.2 45.4 153.8 45.4 153.5C45.3 153.2 45.2999 152.8 45.2 152.4C45 151.4 44.7 149.9 44.4 148.1C43.6 144.3 42.5 138.9 41.2 132.2C39.8 125.5 38.2 117.5 36.4 108.7C34.6 99.8 32.7 90.1 30.7 79.9C29.8 74.8 29.1 69.8001 28.7 64.9001C28.5 62.5 28.1 60 27.2 57.8C26.4 55.5 25.4 53.5 24.4 51.4001C22.4 47.3001 21.7 43.1001 21 39.2001C20.3 35.2001 19.6 31.6 18.8 28.2001C18 24.9001 17.1 21.9 16.3 19.3C15.5 16.7 14.4 14.6 14 12.7C13.6 10.8 13.4 9.40005 13.2 8.40005C13.1 7.90005 13 7.60005 13 7.30005C12.8 7.00005 12.7 6.80005 12.7 6.80005Z" fill="#263238"/>
<path d="M167.4 160.6C167.4 160.6 167.3 160.5 167.2 160.4C167 160.2 166.8 160 166.5 159.6C165.9 158.9 165.1 157.9 163.9 156.7C162.8 155.5 161.3 154 159.5 152.4C157.7 150.8 155.5 149.2 152.8 147.9C151.4 147.3 149.9 146.8 148.3 146.6C146.7 146.4 145 146.4 143.2 146.6C139.7 147.1 136.2 148.5 132.4 149.9C130.5 150.6 128.6 151.2 126.5 151.7C124.4 152.1 122.2 152.3 120.1 152C115.7 151.4 111.6 149.1 107.8 146.6C103.9 144.1 100.3 141.4 96.3 139.8C92.3 138.2 88.2 137.4 84.2 137.2C80.2 137.1 76.4 137.5 73 138.4C72.6 138.5 72.1 138.6 71.7 138.7C71.3 138.8 70.9 139 70.5 139.1C69.7 139.4 68.9 139.6 68.1 139.9C66.6 140.6 65.1 141.1 63.8 141.9C58.5 144.7 54.9 148.2 52.8 150.8C51.7 152.1 51 153.2 50.5 153.9C50.3 154.2 50.1 154.5 49.9 154.7C49.8 154.9 49.7 155 49.7 155C49.7 155 49.7 154.9 49.9 154.7C50 154.5 50.2 154.2 50.4 153.8C50.9 153.1 51.5 151.9 52.6 150.6C54.7 147.9 58.2 144.4 63.6 141.5C64.9 140.7 66.4 140.1 67.9 139.5C68.7 139.2 69.5 138.9 70.3 138.7C70.7 138.6 71.1 138.4 71.5 138.3C71.9 138.2 72.4 138.1 72.8 138C76.2 137.1 80.1 136.6 84.1 136.8C88.1 136.9 92.3 137.7 96.4 139.4C100.5 141 104.2 143.8 108 146.3C111.8 148.8 115.8 151.1 120.1 151.7C124.4 152.3 128.5 151 132.2 149.7C135.9 148.4 139.5 146.9 143.1 146.5C144.9 146.3 146.6 146.3 148.3 146.5C149.9 146.8 151.5 147.3 152.9 147.9C155.7 149.2 157.9 150.9 159.7 152.5C161.5 154.1 162.9 155.6 164 156.9C165.1 158.2 165.9 159.2 166.5 159.9C166.8 160.2 167 160.5 167.1 160.7C167.4 160.5 167.4 160.6 167.4 160.6Z" fill="#263238"/>
<path d="M256.4 187.7C256.4 187.7 256.3 187.7 256.1 187.7C255.8 187.7 255.5 187.7 255.1 187.7C254.2 187.7 252.9 187.8 251.2 187.8C247.8 187.9 242.9 188 236.8 188.1C230.7 188.2 223.5 188.4 215.5 188.5C211.5 188.6 207.3 188.6 202.9 188.7C200.7 188.7 198.5 188.8 196.2 188.8C195.6 188.8 195.1 188.8 194.5 188.8C194.2 188.8 193.9 188.8 193.6 188.8C193.2 188.8 193 188.7 192.8 188.6C191.7 188.1 190.7 187.7 189.7 187.2C186.9 185.9 184.1 184.6 181.3 183.5C178.5 182.4 175.7 181.4 172.9 181.1C170.1 180.9 167.3 181.8 165.2 183.3C164.1 184 163.2 185 162.6 186.1C162 187.2 161.7 188.4 161.7 189.6V190L161.3 189.8C159.2 188.6 157 187.7 154.8 187.1C152.6 186.5 150.5 186.2 148.5 186.2C144.5 186 141 186.8 138.3 187.6C135.6 188.5 133.6 189.6 132.3 190.4C131.6 190.8 131.2 191.2 130.8 191.4C130.6 191.5 130.5 191.6 130.4 191.7C130.3 191.8 130.3 191.8 130.3 191.8C130.3 191.8 130.3 191.8 130.4 191.7C130.5 191.6 130.6 191.5 130.8 191.4C131.1 191.2 131.6 190.8 132.2 190.4C133.5 189.6 135.5 188.4 138.2 187.4C140.9 186.5 144.4 185.7 148.5 185.8C150.5 185.8 152.7 186.1 154.9 186.7C157.1 187.3 159.3 188.1 161.5 189.4L161.2 189.6C161.1 188.3 161.4 187 162.1 185.8C162.8 184.6 163.7 183.6 164.8 182.9C167 181.3 169.9 180.5 172.8 180.6C175.7 180.8 178.5 181.9 181.3 183C184.1 184.1 186.9 185.4 189.7 186.7C190.7 187.2 191.8 187.7 192.8 188.1C193.4 188.4 193.8 188.3 194.4 188.3C195 188.3 195.5 188.3 196.1 188.3C198.4 188.3 200.6 188.2 202.8 188.2C207.2 188.1 211.4 188.1 215.4 188C223.4 187.9 230.6 187.8 236.7 187.7C242.7 187.6 247.6 187.6 251.1 187.5C252.8 187.5 254.1 187.5 255 187.5C255.4 187.5 255.8 187.5 256 187.5C256.3 187.7 256.4 187.7 256.4 187.7Z" fill="#263238"/>
</g>
<defs>
<clipPath id="clip0">
<rect width="256.4" height="191.8" fill="white"/>
</clipPath>
</defs>
</svg>
