<svg width="45" height="45" viewBox="0 0 45 45" fill="none" xmlns="http://www.w3.org/2000/svg">
<circle cx="22.5" cy="22.5" r="22.5" fill="#699FF0"/>
<path d="M32.1648 16.1155L34 14.3799V14H27.6424L23.1114 25.1486L17.9565 14H11.2904V14.3799L13.4342 16.9312C13.6431 17.1197 13.7523 17.3954 13.7245 17.6729V27.6989C13.7907 28.0599 13.6718 28.4313 13.415 28.6937L11 31.5869V31.9621H17.8473V31.5822L15.4323 28.6937C15.1707 28.4303 15.047 28.0656 15.0997 27.6989V19.0267L21.1104 31.9668H21.809L26.9773 19.0267V29.3351C26.9773 29.6069 26.9773 29.6628 26.7972 29.8409L24.938 31.6192V32H33.9578V31.6201L32.1658 29.8855C32.0086 29.768 31.9271 29.5709 31.9607 29.3796V16.6214C31.9271 16.4291 32.0076 16.232 32.1648 16.1155Z" fill="white"/>
</svg>
