<svg width="146" height="152" viewBox="0 0 146 152" fill="none" xmlns="http://www.w3.org/2000/svg">
<g clip-path="url(#clip0)">
<path d="M97.0683 10.3576C99.4208 8.33427 102.325 7.32258 103.98 9.34596C105.635 11.3693 105.067 14.6366 102.714 16.6766C100.362 18.6999 94.5049 18.6004 92.8501 16.5771C91.1952 14.5371 94.6996 12.381 97.0683 10.3576Z" fill="#F2F7F9"/>
<path d="M74.2249 123.004C89.1347 126.752 102.114 133.734 100.135 141.927C98.1715 150.12 84.4784 153.719 69.5686 149.971C54.6587 146.223 36.2606 128.676 38.24 120.483C40.2031 112.29 59.315 119.255 74.2249 123.004Z" fill="#F2F7F9"/>
<path d="M145.805 79.0362C145.124 72.1368 142.674 65.4861 138.164 60.1955C130.685 51.4054 120.009 49.2659 111.345 42.8973C102.585 36.4788 96.03 26.76 88.5021 18.5172C70.0391 -1.71662 44.5674 11.1368 28.1811 26.677C11.7949 42.1841 -4.59142 67.891 6.16511 94.6759C15.7697 118.592 41.3226 113.351 58.8932 117.414C79.8222 122.257 99.8426 131.926 120.593 122.008C127.78 118.575 134.562 113.45 139.429 106.037C144.361 98.4905 146.746 88.5228 145.805 79.0362Z" fill="#F2F7F9"/>
<path d="M52.5983 32.4156C44.7783 32.88 36.9583 32.3658 28.895 33.6097C18.9659 35.1355 8.53382 40.3101 3.14744 49.3158C-3.52063 60.4444 1.41147 73.0656 8.63116 82.5689C15.1532 91.1599 23.3301 98.4242 29.4141 107.347C38.9701 121.361 45.2163 135.177 62.3651 140.948C87.8855 149.506 118.062 132.739 118.273 103.383C118.322 97.2467 116.975 91.0936 117.689 84.9903C119.247 71.9047 130.895 63.1975 134.027 50.7089C137.661 36.2136 126.937 25.0352 114.201 20.9553C97.2468 15.532 82.5965 24.6206 66.8267 29.8946C62.0569 31.5034 57.3357 32.1336 52.5983 32.4156Z" fill="#FF4D43"/>
<path d="M85.679 8.05223C84.7705 5.03374 84.9976 1.91575 87.4637 1.15283C89.9297 0.373335 92.6554 2.19769 93.5639 5.21618C94.4725 8.23467 92.0875 13.6912 89.6215 14.4541C87.1554 15.217 86.5876 11.0707 85.679 8.05223Z" fill="#F2F7F9"/>
</g>
<path d="M96.8484 76.8484C94.9946 76.8484 93.4212 78.0698 92.8895 79.75H90.2123C89.9255 74.8306 87.9577 70.3557 84.8761 66.8918L86.7754 64.9924C87.3602 65.2974 88.0134 65.4598 88.6919 65.4598C88.8128 65.4598 88.9328 65.4537 89.0518 65.4436L90.9932 70.13C91.1925 70.6114 91.6579 70.9019 92.1485 70.9019C92.3079 70.9019 92.47 70.8713 92.6264 70.8064C93.2643 70.5422 93.567 69.811 93.3029 69.1732L91.3615 64.4867C91.4529 64.4097 91.5422 64.3292 91.6277 64.2437C93.2463 62.6251 93.2463 59.9912 91.6277 58.3725C90.8434 57.5883 89.8009 57.1565 88.692 57.1565C87.583 57.1565 86.5406 57.5883 85.7566 58.3725C84.9723 59.1566 84.5404 60.1992 84.5404 61.3081C84.5404 61.9866 84.7028 62.6398 85.0079 63.2246L83.1086 65.1239C79.6447 62.0423 75.1698 60.0746 70.2504 59.7878V57.1106C71.0101 56.8702 71.6755 56.4166 72.1771 55.8205L76.8651 57.7625C77.0215 57.8273 77.1835 57.858 77.343 57.858C77.8335 57.858 78.2988 57.5673 78.4983 57.086C78.7626 56.4482 78.4596 55.717 77.8218 55.4528L73.135 53.5115C73.1452 53.3927 73.1516 53.273 73.1516 53.1517C73.1516 50.8625 71.2892 49 69.0001 49C66.7109 49 64.8485 50.8624 64.8485 53.1516C64.8485 55.0054 66.0699 56.5788 67.7501 57.1105V59.7878C62.8306 60.0746 58.3559 62.0423 54.8919 65.1239L52.9924 63.2246C53.2974 62.6398 53.4599 61.9866 53.4599 61.3081C53.4599 61.1872 53.4538 61.0673 53.4437 60.9482L58.1302 59.007C58.768 58.7427 59.0708 58.0116 58.8067 57.3737C58.5424 56.736 57.8114 56.433 57.1734 56.6972L52.4871 58.6385C52.4101 58.547 52.3296 58.458 52.2441 58.3725C51.4601 57.5883 50.4174 57.1563 49.3086 57.1563C48.1997 57.1563 47.1571 57.5882 46.3728 58.3725C44.7542 59.9912 44.7542 62.6251 46.373 64.2437C47.1572 65.0278 48.1997 65.4597 49.3087 65.4597C49.9871 65.4597 50.6403 65.2973 51.2251 64.9923L53.1244 66.8917C50.0428 70.3555 48.075 74.8305 47.7882 79.7499H45.1106C44.8702 78.9901 44.4166 78.3246 43.8205 77.823L45.7625 73.1345C46.0267 72.4967 45.7238 71.7655 45.086 71.5014C44.4483 71.2373 43.717 71.54 43.4528 72.1779L41.5116 76.8649C41.3929 76.8546 41.2731 76.8483 41.1519 76.8483C38.8624 76.8484 37 78.7109 37 81C37 83.2891 38.8624 85.1515 41.1516 85.1515C43.0054 85.1515 44.5788 83.9301 45.1105 82.25H47.7878C48.0747 87.1693 50.0423 91.6442 53.1239 95.1082L51.2246 97.0076C50.6398 96.7026 49.9866 96.5401 49.3082 96.5401C49.1873 96.5401 49.0673 96.5461 48.9482 96.5563L47.007 91.8698C46.7427 91.232 46.0117 90.929 45.3737 91.1933C44.7358 91.4576 44.4331 92.1887 44.6972 92.8266L46.6386 97.5131C46.5472 97.5901 46.458 97.6707 46.3725 97.7562C44.754 99.3748 44.754 102.009 46.3726 103.628C47.1567 104.412 48.1993 104.843 49.3082 104.843C50.4171 104.843 51.4596 104.412 52.2437 103.627C53.0278 102.843 53.4597 101.801 53.4597 100.692C53.4597 100.013 53.2973 99.3602 52.9922 98.7754L54.8916 96.8761C58.3555 99.9577 62.8304 101.925 67.7498 102.212V104.889C66.99 105.13 66.3246 105.584 65.823 106.18L61.1347 104.238C60.497 103.973 59.7657 104.276 59.5015 104.914C59.2373 105.552 59.5403 106.283 60.178 106.547L64.8649 108.489C64.8546 108.607 64.8483 108.727 64.8483 108.848C64.8483 111.138 66.7106 113 68.9999 113C71.289 113 73.1515 111.138 73.1515 108.848C73.1515 106.995 71.93 105.421 70.2499 104.889V102.212C75.1692 101.925 79.6441 99.9577 83.1081 96.8761L85.0074 98.7753C84.7024 99.3601 84.5399 100.013 84.5399 100.692C84.5399 100.813 84.5461 100.933 84.5562 101.052L79.8698 102.993C79.2321 103.257 78.9292 103.988 79.1933 104.626C79.3927 105.108 79.8581 105.398 80.3487 105.398C80.5081 105.398 80.6702 105.367 80.8266 105.303L85.5131 103.361C85.5901 103.453 85.6706 103.542 85.7561 103.627C86.5402 104.411 87.5827 104.843 88.6917 104.843C89.8005 104.843 90.843 104.411 91.6274 103.627C93.2459 102.008 93.2459 99.3746 91.6273 97.7559C90.843 96.9718 89.8005 96.5399 88.6917 96.5399C88.0132 96.5399 87.3599 96.7023 86.7752 97.0074L84.8758 95.1081C87.9574 91.6442 89.9252 87.1693 90.212 82.2499H92.8893C93.1297 83.0096 93.5833 83.6751 94.1794 84.1766L92.2375 88.865C91.9733 89.5028 92.2762 90.234 92.914 90.4981C93.0704 90.563 93.2324 90.5936 93.3919 90.5936C93.8824 90.5936 94.3479 90.303 94.5473 89.8216L96.4885 85.1347C96.6071 85.145 96.7269 85.1514 96.8481 85.1514C99.1374 85.1514 101 83.289 101 80.9999C101 78.7109 99.1378 76.8484 96.8484 76.8484ZM87.5239 60.1403C87.8358 59.8283 88.2505 59.6566 88.6917 59.6566C89.1328 59.6566 89.5477 59.8283 89.8595 60.1403C90.5034 60.7843 90.5034 61.8322 89.8597 62.4761C89.704 62.6317 89.5228 62.7523 89.3254 62.8343C89.3249 62.8346 89.3244 62.8347 89.3239 62.8348C89.3235 62.8351 89.323 62.8352 89.3225 62.8354C89.1252 62.9171 88.9117 62.9598 88.6917 62.9598C88.2505 62.9598 87.8358 62.7881 87.5238 62.4759C87.2118 62.1641 87.0401 61.7493 87.0401 61.3082C87.0402 60.8671 87.2121 60.4523 87.5239 60.1403ZM50.4762 62.4761C50.1643 62.7881 49.7496 62.9598 49.3085 62.9598C48.8671 62.9598 48.4523 62.7879 48.1403 62.4761C47.4965 61.8321 47.4965 60.7842 48.1403 60.1403C48.4523 59.8283 48.8671 59.6566 49.3083 59.6566C49.7495 59.6566 50.1642 59.8283 50.4761 60.1403C50.6318 60.2961 50.7526 60.4775 50.8346 60.675C50.8348 60.6752 50.8348 60.6756 50.8349 60.676C50.8351 60.6762 50.8352 60.6763 50.8353 60.6766C50.9171 60.8742 50.9599 61.0878 50.9599 61.3082C50.9599 61.7493 50.7883 62.1641 50.4762 62.4761ZM41.1517 82.6516C40.241 82.6516 39.5001 81.9107 39.5001 81.0001C39.5001 80.0894 40.241 79.3485 41.1517 79.3485C42.0625 79.3485 42.8034 80.0894 42.8034 81.0001C42.8034 81.9106 42.0625 82.6516 41.1517 82.6516ZM50.4762 101.86C50.1643 102.172 49.7496 102.343 49.3085 102.343C48.8672 102.343 48.4525 102.172 48.1406 101.86C47.4967 101.216 47.4966 100.168 48.1405 99.5241C48.2961 99.3684 48.4773 99.2477 48.6747 99.1658C48.6752 99.1657 48.6757 99.1656 48.6762 99.1653C48.6766 99.1652 48.6771 99.1649 48.6775 99.1647C48.875 99.0832 49.0885 99.0403 49.3085 99.0403C49.7496 99.0403 50.1643 99.2121 50.4762 99.5241C50.7882 99.8361 50.9599 100.251 50.9599 100.692C50.9599 101.133 50.7881 101.548 50.4762 101.86ZM87.5241 99.5239C87.8359 99.2119 88.2507 99.0402 88.6918 99.0402C89.133 99.0402 89.5478 99.2121 89.8598 99.5239C90.5037 100.168 90.5037 101.216 89.8599 101.86C89.5478 102.172 89.133 102.343 88.6919 102.343C88.2508 102.343 87.8361 102.172 87.5241 101.86C87.3684 101.704 87.2477 101.523 87.1658 101.326C87.1657 101.325 87.1654 101.325 87.1653 101.324C87.1652 101.324 87.1649 101.323 87.1647 101.323C87.0831 101.125 87.0402 100.912 87.0402 100.692C87.0402 100.251 87.2119 99.8359 87.5241 99.5239ZM87.1469 76.2768C86.1728 75.6181 84.9809 75.0173 83.5837 74.4896C81.7003 73.7783 79.5238 73.2214 77.1616 72.8342C76.7738 70.4805 76.2167 68.3095 75.506 66.4276C74.9759 65.0239 74.3727 63.8273 73.7119 62.8499C80.2675 64.5531 85.4399 69.7228 87.1469 76.2768ZM75.303 81C75.303 83.0542 75.1832 85.0579 74.9535 86.9561C73.0572 87.1843 71.0545 87.3032 68.9999 87.3032C66.9451 87.3032 64.9424 87.1843 63.0463 86.9561C62.8165 85.058 62.6968 83.0542 62.6968 81C62.6968 78.9456 62.8165 76.942 63.0463 75.0438C64.9424 74.8155 66.9451 74.6966 68.9999 74.6966C71.0546 74.6966 73.0574 74.8155 74.9535 75.0438C75.1833 76.942 75.303 78.9456 75.303 81ZM67.3485 53.1516C67.3485 52.2409 68.0894 51.5 69.0001 51.5C69.9109 51.5 70.6517 52.2409 70.6517 53.1516C70.6517 54.0624 69.9109 54.8032 69.0001 54.8032C68.0894 54.8032 67.3485 54.0624 67.3485 53.1516ZM68.9997 62.2501C70.4126 62.2501 71.9705 64.1419 73.1672 67.3108C73.7459 68.8432 74.2149 70.5904 74.5647 72.4852C72.7737 72.2952 70.9056 72.1968 68.9999 72.1968C67.0941 72.1968 65.2261 72.2952 63.435 72.4852C63.7849 70.5905 64.2539 68.8432 64.8325 67.3108C66.0293 64.1419 67.5871 62.2501 68.9997 62.2501ZM64.2883 62.8501C63.6274 63.8274 63.0243 65.0241 62.4941 66.4277C61.7834 68.3097 61.2263 70.4807 60.8385 72.8343C58.4763 73.2214 56.2999 73.7784 54.4164 74.4898C53.0191 75.0175 51.8273 75.6183 50.8532 76.2769C52.5602 69.7228 57.7327 64.5531 64.2883 62.8501ZM55.2997 76.8284C56.8334 76.2491 58.5855 75.78 60.4875 75.4305C60.296 77.224 60.1969 79.0938 60.1969 81C60.1969 82.9062 60.2962 84.776 60.4875 86.5694C58.5855 86.2199 56.8334 85.7507 55.2997 85.1715C52.1379 83.9774 50.2502 82.418 50.2502 81C50.2502 79.582 52.1379 78.0225 55.2997 76.8284ZM50.8529 85.7232C51.8272 86.3819 53.0189 86.9826 54.4163 87.5103C56.2997 88.2216 58.4762 88.7787 60.8384 89.1658C61.2262 91.5195 61.7832 93.6904 62.494 95.5724C63.0241 96.9761 63.6273 98.1727 64.2881 99.1501C57.7324 97.4471 52.5599 92.2772 50.8529 85.7232ZM70.6517 108.848C70.6517 109.759 69.9109 110.5 69.0001 110.5C68.0894 110.5 67.3485 109.759 67.3485 108.848C67.3485 107.938 68.0894 107.197 69.0001 107.197C69.9109 107.197 70.6517 107.938 70.6517 108.848ZM69.0004 99.7499C67.5875 99.7499 66.0296 97.8581 64.8329 94.6892C64.2543 93.1568 63.7853 91.4096 63.4354 89.5148C65.2264 89.705 67.0945 89.8032 69.0002 89.8032C70.906 89.8032 72.774 89.7048 74.5651 89.5148C74.2152 91.4096 73.7462 93.1568 73.1676 94.6892C71.9709 97.8581 70.413 99.7499 69.0004 99.7499ZM73.712 99.1501C74.3729 98.1727 74.976 96.9761 75.5061 95.5724C76.217 93.6903 76.774 91.5193 77.1617 89.1658C79.524 88.7787 81.7003 88.2217 83.5838 87.5103C84.9812 86.9826 86.1729 86.3819 87.1472 85.7232C85.4399 92.2772 80.2677 97.4471 73.712 99.1501ZM82.7004 85.1715C81.1666 85.7507 79.4146 86.2199 77.5126 86.5694C77.7041 84.7759 77.8032 82.9062 77.8032 81C77.8032 79.0938 77.704 77.224 77.5126 75.4305C79.4146 75.78 81.1667 76.2491 82.7004 76.8284C85.8622 78.0225 87.7499 79.582 87.7499 81C87.7499 82.418 85.8622 83.9774 82.7004 85.1715ZM96.8484 82.6516C95.9376 82.6516 95.1968 81.9107 95.1968 81.0001C95.1968 80.0894 95.9376 79.3485 96.8484 79.3485C97.7591 79.3485 98.5001 80.0894 98.5001 81.0001C98.5001 81.9106 97.7591 82.6516 96.8484 82.6516Z" fill="white"/>
<path d="M81.0039 56.7707L80.9716 56.7572C80.3345 56.4916 79.6025 56.7927 79.3367 57.4298C79.071 58.0672 79.3722 58.7991 80.0093 59.0648L80.0417 59.0783C80.199 59.1438 80.362 59.1748 80.5223 59.1748C81.0118 59.1748 81.4764 58.8856 81.6766 58.4056C81.9422 57.7683 81.6411 57.0365 81.0039 56.7707Z" fill="white"/>
<path d="M61.9855 56.0563C61.7208 55.4187 60.9893 55.1163 60.3518 55.381L60.3194 55.3944C59.6818 55.659 59.3794 56.3905 59.6442 57.0282C59.8438 57.5092 60.3089 57.7993 60.7992 57.7993C60.9589 57.7993 61.1213 57.7685 61.2779 57.7034L61.3103 57.69C61.9478 57.4254 62.2503 56.6939 61.9855 56.0563Z" fill="white"/>
<path d="M46.402 68.3222C45.764 68.0585 45.033 68.3617 44.7691 68.9997L44.7557 69.0322C44.492 69.6702 44.7954 70.4012 45.4334 70.6651C45.5896 70.7297 45.7514 70.7602 45.9105 70.7602C46.4012 70.7602 46.8668 70.4693 47.0661 69.9876L47.0795 69.9551C47.3433 69.3171 47.04 68.5861 46.402 68.3222Z" fill="white"/>
<path d="M45.7053 88.7278L45.692 88.6953C45.4302 88.0565 44.7003 87.7508 44.0613 88.0127C43.4226 88.2744 43.1168 89.0045 43.3787 89.6433L43.3921 89.6758C43.5903 90.1595 44.057 90.452 44.5492 90.452C44.7071 90.452 44.8676 90.4219 45.0227 90.3584C45.6615 90.0966 45.9671 89.3665 45.7053 88.7278Z" fill="white"/>
<path d="M57.9908 102.935L57.9584 102.922C57.3213 102.656 56.5893 102.957 56.3235 103.594C56.0579 104.232 56.359 104.963 56.9962 105.229L57.0285 105.243C57.1858 105.308 57.3488 105.339 57.5092 105.339C57.9987 105.339 58.4633 105.05 58.6634 104.57C58.9293 103.933 58.6279 103.201 57.9908 102.935Z" fill="white"/>
<path d="M78.3576 104.975C78.0947 104.337 77.3642 104.032 76.7259 104.295L76.6934 104.309C76.055 104.571 75.7505 105.302 76.0134 105.94C76.2121 106.423 76.6781 106.715 77.1697 106.715C77.3282 106.715 77.4895 106.684 77.6451 106.62L77.6776 106.607C78.316 106.344 78.6205 105.614 78.3576 104.975Z" fill="white"/>
<path d="M92.5675 91.3353C91.9299 91.071 91.1985 91.3738 90.9343 92.0117L90.9209 92.0441C90.6567 92.6818 90.9594 93.4131 91.5973 93.6773C91.7538 93.7422 91.9158 93.7728 92.0753 93.7728C92.5657 93.7728 93.0312 93.4823 93.2305 93.0009L93.2439 92.9686C93.5081 92.3308 93.2054 91.5996 92.5675 91.3353Z" fill="white"/>
<path d="M94.6196 72.3532L94.6063 72.3207C94.3425 71.6827 93.6114 71.3796 92.9734 71.6432C92.3355 71.9071 92.0323 72.6381 92.296 73.2761L92.3094 73.3086C92.5087 73.7903 92.9743 74.0812 93.465 74.0812C93.6241 74.0812 93.786 74.0506 93.9421 73.9861C94.5801 73.7222 94.8834 72.9912 94.6196 72.3532Z" fill="white"/>
<defs>
<clipPath id="clip0">
<rect width="146" height="150.493" fill="white" transform="translate(0 0.970215)"/>
</clipPath>
</defs>
</svg>
