<svg width="152" height="136" viewBox="0 0 152 136" fill="none" xmlns="http://www.w3.org/2000/svg">
<path d="M145.944 45.6465C146.805 44.3781 148.604 43.5951 150.028 44.3781C152.751 45.8657 151.937 51.4717 151.703 53.8206C151.108 59.8024 149.606 65.6589 148.166 71.4685C146.649 77.6225 144.99 83.7453 142.862 89.7114C142.001 92.1543 140.734 94.8633 138.246 95.5523C137.479 95.7715 136.603 95.7402 135.993 95.2391C134.929 94.3935 135.179 92.7337 135.601 91.434C138.496 82.289 144.599 74.0836 145.459 64.2809C145.897 59.2073 144.661 54.1494 145.021 49.0758C145.099 47.9484 145.272 46.7896 145.835 45.8187C145.866 45.7718 145.913 45.7091 145.944 45.6465Z" fill="#F2F7F9"/>
<path d="M74.4822 8.78473C74.7795 7.82952 75.1081 6.87431 75.1237 5.85646C75.1394 5.35537 75.0611 4.85428 74.9046 4.3845C74.7482 3.91473 74.4196 3.52325 74.3257 3.03781C74.2161 2.45842 74.4352 1.91035 74.9203 1.56585C76.4068 0.516684 78.6601 1.62849 79.9119 2.59936C82.0869 4.27489 82.6815 7.29711 82.5406 9.77126C82.4311 11.619 81.6644 13.4355 80.0057 14.4064C78.5975 15.2207 76.8449 15.2363 75.421 14.2811C74.2005 13.4512 73.9188 11.9166 74.0753 10.6012C74.1379 9.97483 74.31 9.37978 74.4822 8.78473Z" fill="#F2F7F9"/>
<path d="M94.4953 124.929C95.4498 124.647 96.4356 124.397 97.2962 123.864C97.7187 123.598 98.0943 123.269 98.4072 122.878C98.7202 122.486 98.861 121.985 99.2052 121.656C99.6277 121.233 100.207 121.124 100.754 121.343C102.444 122.001 102.757 124.506 102.632 126.088C102.429 128.828 100.238 130.973 98.0943 132.226C96.4982 133.15 94.5579 133.51 92.821 132.649C91.3658 131.929 90.3957 130.457 90.4113 128.75C90.427 127.262 91.5692 126.197 92.7428 125.602C93.3061 125.289 93.9007 125.101 94.4953 124.929Z" fill="#F2F7F9"/>
<path d="M45.9411 49.5769C55.5956 44.9105 65.5318 40.5729 73.6685 33.307C77.6273 29.768 81.1167 25.6027 83.7455 20.8893C86.3273 16.2542 86.9845 10.6952 90.0358 6.48284C93.7599 1.33097 99.659 -0.939612 105.902 0.360101C124.992 4.33753 132.613 30.2065 134.146 47.1341C136.806 76.4324 117.419 103.131 96.9833 120.028C81.7583 132.618 61.839 139.883 42.0292 133.823C25.302 128.718 12.4554 114.923 9.6545 96.852C7.19784 81.1615 17.3374 67.8042 28.7288 59.4265C34.0177 55.5431 39.9324 52.4739 45.9411 49.5769Z" fill="#F2F7F9"/>
<path d="M140.64 48.1989C138.105 42.8904 133.927 38.3962 128.137 35.7498C118.53 31.3496 107.639 33.4479 97.5309 31.4279C87.3288 29.3922 78.3471 23.9115 68.849 19.9654C45.5342 10.2723 24.3944 29.7993 12.784 48.1989C1.17353 66.5984 -7.66732 93.219 9.99873 110.961C25.7714 126.792 49.0236 113.388 67.0965 110.366C88.6275 106.764 110.597 107.359 127.934 91.9193C133.943 86.5639 139.106 80.0027 141.782 72.267C144.52 64.4218 144.129 55.5274 140.64 48.1989Z" fill="#266BCF"/>
<g clip-path="url(#clip0)">
<path d="M85.9409 70.6985C85.9207 70.184 85.5623 69.7456 85.0622 69.6232C84.5626 69.5016 84.0418 69.7258 83.7875 70.1732C83.1478 71.2977 80.5194 71.9202 78.1751 72.1246C80.6707 65.5886 79.693 60.7158 78.3511 57.6954C76.7545 54.1015 74.3273 52.2951 74.2247 52.2199C73.8556 51.9494 73.3613 51.9228 72.9652 52.1528C72.5691 52.3824 72.3472 52.8249 72.3985 53.2795C72.6515 55.505 70.95 56.6119 70.2063 56.9842C68.5332 57.8228 65.8733 57.9173 63.9881 56.1438C60.9231 53.2602 61.1892 46.8678 64.7178 38.6046C64.8848 38.2134 64.8227 37.7624 64.5566 37.4306C64.2906 37.0993 63.8634 36.9413 63.4452 37.0196C60.6823 37.5382 57.7249 38.596 55.9113 39.7155C55.3698 40.05 55.2019 40.7598 55.5363 41.3014C55.8703 41.8429 56.5806 42.0112 57.1222 41.6768C58.2484 40.9818 59.9652 40.2899 61.7581 39.7835C57.5507 50.9069 60.297 55.8354 62.4086 57.8223C65.1144 60.3674 68.7929 60.2702 71.2389 59.0449C72.8032 58.2608 73.8943 57.0589 74.4034 55.6293C75.0039 56.3648 75.6818 57.3641 76.2449 58.6312C78.0833 62.7689 77.7862 67.5611 75.3627 72.8745C75.2006 73.2301 75.2294 73.6433 75.4396 73.9729C75.6503 74.3019 76.0127 74.5027 76.4038 74.5049C76.4772 74.5054 78.244 74.513 80.2251 74.1795C81.5827 73.9512 82.7157 73.6168 83.6191 73.1797C83.0672 83.1503 76.5762 88.2422 72.5569 90.4542C70.8802 91.377 69.099 92.1008 67.2647 92.6266C67.6774 92.3137 68.0709 91.9878 68.444 91.6475C70.2873 89.9685 71.654 87.9568 72.5052 85.6692C72.7271 85.0728 72.4237 84.4093 71.8273 84.1874C71.2308 83.9655 70.5673 84.2689 70.3454 84.8653C70.164 85.3528 69.9552 85.8236 69.7215 86.2783C70.3567 83.3173 69.5455 80.5948 67.3727 78.4027C67.1449 78.1731 66.8307 78.0484 66.5075 78.0628C66.1843 78.0759 65.8814 78.224 65.673 78.4715C64.0862 80.3545 61.9346 80.8802 60.1912 79.8116C58.5752 78.8208 57.2919 76.2343 58.9934 72.2047C59.1851 71.7505 59.0667 71.2248 58.699 70.8966C58.3308 70.5685 57.7951 70.5108 57.3657 70.7526C53.9451 72.6823 51.5688 75.1509 50.3017 78.0898C49.1957 80.6556 48.9999 83.4924 49.7349 86.2927C50.1144 87.7367 50.7324 89.125 51.5427 90.3817C50.5047 89.4801 49.6008 88.416 48.8797 87.2141C46.5313 83.3002 46.4647 78.6538 48.6974 74.4671C49.193 73.538 49.8074 72.5009 50.4583 71.403C52.6716 67.6678 55.128 63.5215 55.3085 59.9024C56.3137 60.4606 57.6164 61.2988 58.8372 62.4295C61.9935 65.3536 63.1599 68.8129 62.3028 72.7111C62.2146 73.1131 62.3474 73.5313 62.6508 73.809C62.9541 74.0863 63.3822 74.1813 63.7747 74.0575C63.9156 74.0134 66.761 73.0919 68.923 70.577C69.9772 72.5824 70.7177 74.8601 71.0449 77.1436C71.135 77.7738 71.7192 78.2109 72.349 78.1209C72.9787 78.0308 73.4163 77.4466 73.3262 76.8168C72.8684 73.6217 71.6805 70.4316 69.9817 67.8339C69.7625 67.4985 69.3857 67.3009 68.9851 67.3126C68.5849 67.3239 68.2194 67.5417 68.0191 67.8883C67.1629 69.3711 65.8953 70.3744 64.8587 71.0019C65.0711 67.147 63.5362 63.6156 60.3474 60.687C57.5669 58.1334 54.519 56.9509 54.3907 56.9018C53.9865 56.747 53.5291 56.832 53.2073 57.1219C52.8859 57.4123 52.754 57.8579 52.8661 58.2761C53.7043 61.4041 50.8049 66.2966 48.4754 70.2277C47.811 71.349 47.1835 72.4077 46.6636 73.3823C44.0407 78.3009 44.128 83.7746 46.9036 88.3998C47.5837 89.5337 48.4025 90.5622 49.3298 91.472C48.2742 90.9827 47.2664 90.4137 46.3215 89.7628C39.9768 85.3942 36.951 77.9161 37.6753 68.5442C39.4808 70.2628 42.2145 72.5779 44.142 72.9105C44.5003 72.9717 44.8667 72.861 45.1305 72.6107C45.3947 72.3605 45.5248 72.0003 45.482 71.6393C45.464 71.4881 43.7805 56.4143 51.2231 46.7885C51.6125 46.2848 51.5202 45.5615 51.0165 45.1721C50.5128 44.7827 49.7894 44.8755 49.4 45.3787C45.1953 50.8173 43.7328 57.7485 43.2466 62.6055C42.9401 65.6705 42.968 68.2858 43.0477 69.9567C41.3097 68.8548 39.0018 66.6946 37.6312 65.2348C37.3273 64.9111 36.8646 64.7905 36.4419 64.9251C36.0188 65.0597 35.7109 65.4247 35.6496 65.8641C34.0643 77.2494 37.3899 86.4111 45.0143 91.661C48.98 94.3916 53.8627 95.8896 59.1352 95.9941C59.3238 95.9977 59.5119 95.9999 59.701 95.9999C59.909 95.9999 60.1169 95.9968 60.3249 95.9923C60.4199 95.9954 60.5148 95.9999 60.6094 95.9999C60.6859 95.9999 60.762 95.9914 60.8367 95.9765C65.3426 95.7996 69.8422 94.5784 73.6679 92.4731C77.4743 90.3781 80.5969 87.4288 82.699 83.9443C85.0393 80.0655 86.13 75.6087 85.9409 70.6985ZM55.9847 74.4536C55.8316 75.5789 55.8708 76.6588 56.1062 77.6586C56.5244 79.4312 57.5475 80.8937 58.9875 81.7769C60.2587 82.5561 61.7757 82.8271 63.2589 82.5394C64.4256 82.3135 65.5262 81.7589 66.4949 80.9162C67.5366 82.3607 67.8616 84.0096 67.4609 85.8322C66.8231 88.7365 64.2613 91.7713 61.2796 93.2937C60.9357 93.4265 60.5837 93.5534 60.2223 93.6741C60.1952 93.6745 60.1682 93.675 60.1412 93.6754C56.6207 93.3941 53.0912 89.9969 51.9649 85.708C51.4063 83.5806 50.8472 78.6142 55.9847 74.4536Z" fill="white"/>
<path d="M71.2228 80.2712L71.2223 80.2942C71.2003 80.9302 71.6977 81.4636 72.3337 81.4857C72.3472 81.4862 72.3607 81.4866 72.3747 81.4866C72.9923 81.4866 73.5036 80.9964 73.5252 80.3743L73.5266 80.3388C73.545 79.7027 73.0445 79.1716 72.4084 79.1531C71.7701 79.1342 71.2417 79.6352 71.2228 80.2712Z" fill="white"/>
<path d="M53.8109 43.5689C53.8109 44.2054 53.2951 44.7212 52.6586 44.7212C52.0221 44.7212 51.5062 44.2054 51.5062 43.5689C51.5062 42.9324 52.0221 42.4165 52.6586 42.4165C53.2951 42.4165 53.8109 42.9324 53.8109 43.5689Z" fill="white"/>
</g>
<defs>
<clipPath id="clip0">
<rect width="59" height="59" fill="white" transform="translate(31 37)"/>
</clipPath>
</defs>
</svg>
