<svg width="45" height="45" viewBox="0 0 45 45" fill="none" xmlns="http://www.w3.org/2000/svg">
<circle cx="22.5" cy="22.5" r="22.5" fill="#699FF0"/>
<path d="M13.4419 22.7066C13.4419 22.5336 13.4761 22.3623 13.5425 22.2025C13.6089 22.0428 13.7063 21.8977 13.8289 21.7757C13.9516 21.6536 14.0971 21.557 14.2572 21.4913C14.4173 21.4257 14.5887 21.3923 14.7618 21.3931L16.95 21.4003C17.2989 21.4003 17.6335 21.5389 17.8803 21.7856C18.127 22.0323 18.2656 22.3669 18.2656 22.7158V30.9908C18.512 30.9177 18.8275 30.8398 19.1745 30.7581C19.415 30.7015 19.6293 30.5654 19.7827 30.3717C19.9361 30.1781 20.0196 29.9383 20.0197 29.6913V19.4276C20.0197 19.0786 20.1583 18.744 20.405 18.4972C20.6517 18.2505 20.9863 18.1118 21.3352 18.1118H23.5301C23.8791 18.1118 24.2137 18.2505 24.4604 18.4972C24.7071 18.744 24.8457 19.0786 24.8457 19.4276V28.954C24.8457 28.954 25.3948 28.7318 25.9293 28.506C26.128 28.422 26.2975 28.2813 26.4167 28.1016C26.5359 27.9219 26.5996 27.711 26.5998 27.4954V16.1385C26.5998 15.7897 26.7383 15.4551 26.985 15.2084C27.2316 14.9617 27.5662 14.8231 27.9151 14.823H30.1077C30.4563 14.8233 30.7906 14.9621 31.0371 15.2088C31.2835 15.4554 31.4219 15.7899 31.4219 16.1385V25.4905C33.3229 24.1129 35.2493 22.4558 36.7782 20.4635C37 20.1743 37.1467 19.8347 37.2054 19.4749C37.264 19.1152 37.2327 18.7466 37.1143 18.4019C36.4066 16.3659 35.2817 14.5 33.8115 12.9237C32.3413 11.3474 30.5583 10.0954 28.5764 9.24773C26.5946 8.40008 24.4576 7.97547 22.3023 8.00109C20.147 8.02671 18.0207 8.50199 16.0596 9.39651C14.0985 10.291 12.3457 11.5851 10.9134 13.1959C9.48109 14.8067 8.40083 16.6988 7.74174 18.751C7.08264 20.8033 6.85922 22.9705 7.08578 25.1141C7.31234 27.2576 7.98388 29.3303 9.05743 31.1994C9.24447 31.5219 9.51964 31.7842 9.85063 31.9557C10.1816 32.1271 10.5547 32.2006 10.9259 32.1674C11.3407 32.1309 11.8571 32.0793 12.4711 32.0072C12.7383 31.9768 12.985 31.8492 13.1642 31.6487C13.3434 31.4481 13.4426 31.1887 13.4429 30.9198V22.7066" fill="white"/>
<path d="M13.3951 35.9773C15.7063 37.6586 18.4375 38.6678 21.2867 38.8932C24.1358 39.1187 26.9917 38.5515 29.5385 37.2545C32.0853 35.9576 34.2237 33.9813 35.7171 31.5445C37.2104 29.1076 38.0005 26.3052 38 23.4471C38 23.0896 37.9834 22.7376 37.9597 22.3867C32.2992 30.8289 21.8478 34.7756 13.3951 35.9773Z" fill="white"/>
</svg>
