<svg width="146" height="147" viewBox="0 0 146 147" fill="none" xmlns="http://www.w3.org/2000/svg">
<g clip-path="url(#clip0)">
<path d="M97.0683 9.16953C99.4208 7.19311 102.325 6.2049 103.98 8.18132C105.635 10.1577 105.067 13.3492 102.714 15.3418C100.362 17.3182 94.5049 17.221 92.8501 15.2446C91.1952 13.252 94.6996 11.1459 97.0683 9.16953Z" fill="#F2F7F9"/>
<path d="M74.2248 119.201C89.1347 122.862 102.114 129.682 100.135 137.685C98.1715 145.688 84.4784 149.204 69.5685 145.542C54.6587 141.881 36.2606 124.741 38.2399 116.738C40.2031 108.736 59.3149 115.54 74.2248 119.201Z" fill="#F2F7F9"/>
<path d="M145.805 76.254C145.124 69.5148 142.674 63.0185 138.164 57.8507C130.685 49.2646 120.009 47.1748 111.345 40.9539C102.585 34.6845 96.03 25.1912 88.5021 17.1397C70.0391 -2.62442 44.5674 9.93068 28.1811 25.1102C11.7949 40.2573 -4.59142 65.3675 6.16511 91.5307C15.7697 114.891 41.3226 109.772 58.8932 113.741C79.8222 118.472 99.8426 127.916 120.593 118.229C127.78 114.875 134.562 109.869 139.429 102.628C144.361 95.2568 146.746 85.5205 145.805 76.254Z" fill="#F2F7F9"/>
<path d="M52.5983 30.7155C44.7783 31.1691 36.9583 30.6669 28.895 31.8819C18.9659 33.3724 8.53382 38.4268 3.14744 47.2235C-3.52063 58.0938 1.41147 70.4221 8.63116 79.7047C15.1532 88.0964 23.3301 95.1921 29.4141 103.908C38.9701 117.597 45.2163 131.092 62.3651 136.729C87.8855 145.088 118.062 128.71 118.273 100.036C118.322 94.0418 116.975 88.0316 117.689 82.0699C119.247 69.288 130.895 60.783 134.027 48.5843C137.661 34.4254 126.937 23.5065 114.201 19.5212C97.2468 14.2238 82.5965 23.1015 66.8267 28.2531C62.0569 29.8245 57.3357 30.4401 52.5983 30.7155Z" fill="#39CA80"/>
<path d="M85.6791 6.91757C84.7705 3.96915 84.9976 0.923524 87.4637 0.178318C89.9298 -0.583088 92.6554 1.19893 93.564 4.14735C94.4725 7.09577 92.0876 12.4256 89.6215 13.1708C87.1555 13.916 86.5876 9.866 85.6791 6.91757Z" fill="#F2F7F9"/>
</g>
<g clip-path="url(#clip1)">
<path d="M101.429 48.6037C100.326 47.4307 98.776 46.7604 97.1561 46.7604C93.9302 46.7604 91.3188 49.3718 91.3188 52.5976C91.3188 53.1143 91.3886 53.631 91.5283 54.1337L85.2023 58.6164C82.94 56.3262 79.2394 56.2983 76.9491 58.5605C75.3292 60.1665 74.7846 62.5544 75.5666 64.705L69.7294 69.6206C67.8861 66.9813 64.2552 66.3249 61.6019 68.1683C60.5965 68.8665 59.8424 69.8719 59.4374 71.017L54.5917 69.048C54.0471 65.8641 51.0446 63.7275 47.8607 64.2721C44.6767 64.8167 42.5401 67.8191 43.0848 71.0031C43.6294 74.187 46.6318 76.3236 49.8157 75.779C51.9105 75.4299 53.6421 73.9636 54.3543 71.9666L59.2 73.9357C59.7446 77.1196 62.7471 79.2562 65.931 78.7116C68.7379 78.2368 70.7907 75.8069 70.7907 72.9581C70.7907 72.7766 70.7768 72.5811 70.7628 72.3996L77.1307 67.0231C79.5186 69.1877 83.2053 69.0201 85.3699 66.6321C86.7524 65.11 87.2272 62.9734 86.6406 61.0183L92.8968 56.5776C95.1032 58.9376 98.7899 59.0493 101.15 56.8568C103.51 54.6504 103.622 50.9637 101.429 48.6037ZM48.8382 73.0838C47.1625 73.0838 45.7939 71.7153 45.7939 70.0395C45.7939 68.3638 47.1625 66.9952 48.8382 66.9952C50.514 66.9952 51.8825 68.3638 51.8825 70.0395C51.8825 71.7153 50.514 73.0838 48.8382 73.0838ZM64.9395 76.0164C63.2637 76.0164 61.8952 74.6479 61.8952 72.9721C61.8952 71.2963 63.2637 69.9278 64.9395 69.9278C66.6153 69.9278 67.9838 71.2963 67.9838 72.9721C67.9838 74.6479 66.6292 76.0164 64.9395 76.0164ZM81.0548 65.7663C79.379 65.7663 78.0105 64.3978 78.0105 62.722C78.0105 61.0463 79.379 59.6777 81.0548 59.6777C82.7305 59.6777 84.0991 61.0463 84.0991 62.722C84.0991 64.3978 82.7305 65.7663 81.0548 65.7663ZM97.1561 55.6419C95.4803 55.6419 94.1117 54.2734 94.1117 52.5976C94.1117 50.9219 95.4803 49.5533 97.1561 49.5533C98.8318 49.5533 100.2 50.9219 100.2 52.5976C100.2 54.2873 98.8458 55.6419 97.1561 55.6419Z" fill="white"/>
<path d="M101.066 63.071H93.246C92.4779 63.071 91.8495 63.6995 91.8495 64.4675V97.7035C91.8495 98.4715 92.4779 99.1 93.246 99.1H101.066C101.834 99.1 102.463 98.4715 102.463 97.7035V64.4675C102.463 63.6995 101.834 63.071 101.066 63.071ZM99.6697 96.4467H94.6424V65.864H99.6697V96.4467Z" fill="white"/>
<path d="M85.0068 73.1255H77.1866C76.4185 73.1255 75.7901 73.754 75.7901 74.522V97.7034C75.7901 98.4715 76.4185 99.0999 77.1866 99.0999H85.0068C85.7749 99.0999 86.4033 98.4715 86.4033 97.7034V74.522C86.4033 73.754 85.7749 73.1255 85.0068 73.1255ZM83.6103 96.4466H78.583V75.9185H83.6103V96.4466Z" fill="white"/>
<path d="M68.8077 83.5992H60.9875C60.2194 83.5992 59.591 84.2276 59.591 84.9957V97.8432C59.591 98.6112 60.2194 99.2396 60.9875 99.2396H68.8077C69.5758 99.2396 70.2042 98.6112 70.2042 97.8432V84.9957C70.2042 84.2276 69.5758 83.5992 68.8077 83.5992ZM67.4112 96.4467H62.3839V86.3921H67.4112V96.4467Z" fill="white"/>
<path d="M52.7483 80.6665H44.9281C44.16 80.6665 43.5316 81.2949 43.5316 82.063V97.8431C43.5316 98.6111 44.16 99.2395 44.9281 99.2395H52.7483C53.5164 99.2395 54.1448 98.6111 54.1448 97.8431V82.063C54.1448 81.2949 53.5164 80.6665 52.7483 80.6665ZM51.3518 96.4466H46.3246V83.4594H51.3518V96.4466Z" fill="white"/>
</g>
<defs>
<clipPath id="clip0">
<rect width="146" height="147" fill="white"/>
</clipPath>
<clipPath id="clip1">
<rect width="60" height="60" fill="white" transform="translate(43 43)"/>
</clipPath>
</defs>
</svg>
