<svg width="592" height="535" viewBox="0 0 592 535" fill="none" xmlns="http://www.w3.org/2000/svg">
<g clip-path="url(#clip0)">
<path d="M78.4629 106.972C77.0517 77.2967 90.1759 40.8387 124.186 39.7082C185.856 37.5886 219.724 110.787 275.185 124.353C313.287 133.679 336.854 106.689 364.937 86.9058C395.278 65.4266 427.595 36.3168 468.237 45.5019C494.486 51.4369 509.303 78.1446 511.561 102.874C513.96 129.299 501.26 150.495 503.517 175.931C505.775 202.78 534.282 214.367 548.253 236.553C565.61 263.967 571.396 295.621 563.07 326.992C555.026 357.232 532.024 387.331 502.53 399.06C462.593 415.028 432.675 391.005 395.56 380.124C342.499 364.721 317.239 392.983 280.265 424.92C257.404 444.562 228.333 462.084 196.581 457.28C151.987 450.497 138.157 389.875 137.733 352.427C137.451 328.546 148.176 300.849 130.677 282.479C113.884 264.956 97.3731 267.359 74.5116 265.946C56.307 264.815 34.9979 257.891 28.7886 239.097C25.9661 230.336 26.2484 218.748 31.7521 211.117C45.5819 192.04 78.1807 191.617 82.9788 167.735C86.9301 147.669 79.4508 126.897 78.4629 106.972Z" fill="#BBE7F2"/>
<path d="M251.759 44.2301C260.226 9.60917 181.904 -18.6528 179.505 15.2616C178.235 33.3493 204.907 55.6763 220.994 58.6438C235.953 61.47 247.948 59.4916 251.759 44.2301Z" fill="#BBE7F2"/>
<path d="M192.77 399.484C186.702 385.353 184.021 370.233 175.695 357.232C172.449 352.286 169.344 347.764 164.405 344.09C158.478 339.427 151.846 340.275 145.354 337.449C133.359 332.361 126.585 318.513 115.154 311.73C103.723 304.947 90.0348 302.828 77.0517 305.512C65.0565 308.056 56.7304 309.469 45.1585 304.382C36.2679 300.567 17.7812 294.208 23.9905 311.165C27.6596 321.057 39.9371 326.002 46.0052 335.188C52.4968 345.079 54.0491 359.493 62.7986 367.83C71.1247 375.744 82.2732 366.982 91.1637 374.33C100.337 381.961 103.159 392.418 114.59 398.636C126.867 405.419 141.544 407.538 155.374 408.245C165.111 408.81 184.021 409.799 195.169 405.419C194.323 403.44 193.617 401.462 192.77 399.484Z" fill="#3B8B58"/>
<path fill-rule="evenodd" clip-rule="evenodd" d="M163.798 344.884L163.787 344.876C161 342.683 158.036 341.77 154.871 341.056C154.231 340.912 153.578 340.775 152.915 340.636C150.346 340.098 147.629 339.529 144.959 338.367C138.744 335.73 133.922 330.842 129.312 325.908C128.912 325.48 128.514 325.053 128.117 324.625C123.88 320.07 119.731 315.609 114.644 312.59C103.436 305.939 90.0036 303.856 77.2566 306.491C65.2347 309.04 56.6372 310.519 44.7602 305.299C42.5577 304.354 39.7747 303.258 36.9392 302.405C34.0872 301.548 31.2508 300.959 28.9227 300.984C26.5654 301.009 25.0247 301.65 24.294 302.915C23.5288 304.239 23.4005 306.645 24.9287 310.819C26.662 315.49 30.4489 319.049 34.7435 322.677C35.275 323.126 35.8145 323.576 36.3579 324.03C40.1354 327.181 44.0995 330.489 46.8396 334.636L46.8413 334.639C49.5811 338.814 51.464 343.782 53.31 348.652C53.7013 349.685 54.091 350.713 54.4869 351.729C56.7779 357.605 59.2882 363.103 63.4875 367.105C67.3007 370.73 71.7339 370.579 76.7123 370.294C76.8276 370.287 76.9431 370.281 77.059 370.274C81.8457 369.998 87.1225 369.693 91.8008 373.56L91.8033 373.562C95.7402 376.837 98.5466 380.633 101.255 384.298C101.781 385.009 102.303 385.714 102.828 386.41C106.083 390.722 109.543 394.752 115.068 397.757L115.073 397.761C127.147 404.431 141.637 406.542 155.425 407.246L155.431 407.247C160.299 407.529 167.422 407.915 174.711 407.687C181.601 407.471 188.543 406.709 193.846 404.844C193.568 404.166 193.304 403.491 193.042 402.823L193.039 402.816C192.65 401.825 192.268 400.851 191.852 399.878C191.851 399.878 191.851 399.878 191.851 399.877L192.77 399.484C190.53 394.267 188.752 388.915 186.98 383.586C183.953 374.478 180.947 365.433 175.695 357.232C172.449 352.286 169.344 347.764 164.405 344.09C160.823 341.272 156.983 340.466 153.072 339.646C150.512 339.11 147.922 338.567 145.354 337.449C138.834 334.684 133.857 329.33 128.836 323.93C124.619 319.395 120.372 314.826 115.154 311.73C103.723 304.947 90.0348 302.828 77.0517 305.512C65.0565 308.056 56.7304 309.469 45.1585 304.382C36.2679 300.567 17.7812 294.208 23.9905 311.165C26.0556 316.732 30.8479 320.733 35.7251 324.805C39.5132 327.967 43.3525 331.172 46.0052 335.188C48.6789 339.262 50.5147 344.103 52.3606 348.971C54.9964 355.922 57.6528 362.927 62.7986 367.83C67.0299 371.852 71.9901 371.567 77.0125 371.278C81.8728 370.999 86.7914 370.717 91.1637 374.33C94.9996 377.521 97.725 381.207 100.434 384.87C104.202 389.966 107.939 395.018 114.59 398.636C126.867 405.419 141.544 407.538 155.374 408.245C164.843 408.795 182.987 409.745 194.231 405.768C194.55 405.656 194.863 405.539 195.169 405.419C195.169 405.419 195.169 405.419 195.169 405.418C195.038 405.111 194.91 404.803 194.784 404.496C194.505 403.814 194.237 403.133 193.97 402.451C193.582 401.462 193.194 400.473 192.77 399.484M174.856 357.776C171.611 352.832 168.59 348.449 163.808 344.892L163.798 344.884" fill="black"/>
<path d="M89.047 340.84C118.682 372.352 154.103 393.973 193.335 401.321C193.053 400.756 192.912 400.19 192.629 399.484C186.561 385.353 183.88 370.233 175.554 357.232C172.308 352.286 169.203 347.764 164.264 344.09C158.337 339.427 151.704 340.275 145.213 337.449C133.218 332.362 126.444 318.513 115.013 311.73C103.582 304.947 89.8937 302.828 76.9106 305.513C71.9714 306.502 67.5967 307.35 63.5042 307.632C71.6892 319.644 80.0153 331.09 89.047 340.84Z" fill="#307147"/>
<path d="M511.703 122.233C509.021 124.918 489.688 141.028 499.284 143.006C502.247 143.571 507.61 138.201 510.15 142.865C512.126 145.973 507.469 155.017 505.776 157.844C499.143 169.148 487.148 178.757 476.422 186.106L450.033 202.921C444.67 188.508 439.59 168.018 438.461 162.224C436.627 153.322 435.78 142.582 437.897 133.68C441.142 119.972 451.162 129.723 457.371 134.527C460.052 131.984 458.5 122.092 458.5 118.277C458.359 107.678 456.807 96.3736 459.206 85.9167C460.758 79.8404 462.169 71.927 469.366 76.4489C472.33 78.2859 475.011 81.6774 477.693 83.797C480.092 80.123 478.398 74.7532 477.975 70.6552C477.269 63.4484 476.422 56.1003 477.551 48.8935C478.257 44.9368 479.386 34.1972 484.607 33.632C489.406 33.0667 489.406 40.5562 493.78 37.5886C497.873 34.9038 500.413 23.175 502.53 18.7944C504.364 14.8377 509.304 2.68505 515.089 3.67422C526.238 5.36994 521.017 27.6969 520.311 34.1972C520.029 36.5995 519.605 39.567 521.017 41.5453C530.472 35.8929 538.515 38.2952 535.975 50.7305C534.846 56.6655 531.036 61.4701 527.367 65.992C522.569 71.7857 511.561 79.4164 510.291 87.3298C517.065 89.1668 528.919 80.9708 530.613 92.1343C532.306 103.439 518.759 115.309 511.703 122.233Z" fill="#3B8B58"/>
<path fill-rule="evenodd" clip-rule="evenodd" d="M499.089 143.987L499.082 143.985C497.737 143.708 496.681 143.138 496.097 142.173C495.514 141.211 495.544 140.092 495.835 139.037C496.405 136.97 498.146 134.539 500.131 132.232C503.133 128.746 507.067 125.147 509.358 123.051C510.113 122.36 510.689 121.833 510.995 121.527L511.002 121.52C511.615 120.919 512.272 120.284 512.96 119.62C516.28 116.414 520.332 112.502 523.648 108.215C527.672 103.011 530.406 97.5065 529.624 92.2825C529.23 89.6868 528.287 88.4324 527.18 87.801C526.008 87.1325 524.423 87.0224 522.462 87.2291C521.224 87.3596 519.97 87.5953 518.67 87.8399C517.881 87.9882 517.075 88.1397 516.245 88.273C514.142 88.6106 511.946 88.8145 510.03 88.2949L509.161 88.0595L509.304 87.1713C509.994 82.8735 513.281 78.7873 516.788 75.17C518.214 73.6994 519.714 72.27 521.138 70.9121C521.485 70.5821 521.826 70.2564 522.162 69.9353C523.889 68.2804 525.436 66.755 526.594 65.3578C530.285 60.8083 533.919 56.1917 534.993 50.5436L534.995 50.5303C536.238 44.4454 534.791 41.3799 532.544 40.2481C530.146 39.0398 526.178 39.6249 521.53 42.4036L520.738 42.8769L520.202 42.126C519.332 40.9054 519.067 39.4385 519.029 38.0576C518.995 36.7975 519.149 35.4982 519.281 34.3878C519.294 34.2851 519.306 34.1841 519.317 34.0849C519.421 33.1333 519.609 31.901 519.827 30.4764C520.388 26.8016 521.146 21.8475 521.145 17.134C521.145 13.8799 520.777 10.891 519.792 8.64639C518.83 6.45277 517.314 5.02411 514.939 4.66285L514.93 4.66147L514.921 4.65992C513.868 4.47998 512.761 4.87433 511.575 5.83873C510.389 6.80404 509.239 8.25317 508.169 9.91964C506.38 12.7089 504.93 15.9189 503.954 18.0793C503.763 18.5017 503.591 18.8839 503.437 19.215L503.434 19.2223L503.43 19.2295C502.932 20.261 502.394 21.7578 501.792 23.5245C501.652 23.9327 501.51 24.3542 501.364 24.7851C500.888 26.1933 500.379 27.7014 499.834 29.1743C499.122 31.0982 498.335 33.0064 497.453 34.6158C496.586 36.1987 495.565 37.6109 494.335 38.4206C493.073 39.2748 491.902 39.5102 490.805 39.0714C489.834 38.683 489.122 37.8227 488.572 37.1365C488.523 37.075 488.474 37.014 488.426 36.9538C487.255 35.4891 486.406 34.427 484.724 34.6251L484.715 34.6262C483.779 34.7275 482.954 35.2835 482.205 36.2941C481.449 37.3138 480.837 38.7128 480.34 40.2912C479.555 42.7848 479.115 45.5188 478.785 47.571C478.696 48.1218 478.615 48.6235 478.538 49.0582C477.5 55.692 478.17 62.461 478.843 69.271C478.886 69.699 478.928 70.1272 478.97 70.5556C479.059 71.4189 479.207 72.3421 479.365 73.3287C479.388 73.4724 479.411 73.6174 479.434 73.7638C479.615 74.9016 479.798 76.1075 479.889 77.3091C480.071 79.6928 479.912 82.2272 478.53 84.3438L477.931 85.2605L477.072 84.5815C475.927 83.6758 474.78 82.5457 473.661 81.4434C473.418 81.2043 473.177 80.9666 472.937 80.7328C471.561 79.39 470.219 78.1536 468.84 77.2989L468.834 77.2957C467.141 76.2314 465.958 76.0093 465.13 76.1516C464.326 76.2898 463.635 76.8113 463.002 77.7626C462.361 78.7251 461.848 80.03 461.393 81.5284C461.055 82.6424 460.765 83.8074 460.475 84.9688C460.376 85.3644 460.278 85.7595 460.178 86.1521C459.007 91.26 458.795 96.6021 458.9 102.024C458.951 104.624 459.074 107.23 459.196 109.835L459.212 110.173C459.34 112.885 459.465 115.594 459.5 118.263L459.5 118.277C459.5 119.13 459.582 120.315 459.679 121.714L459.698 121.999C459.802 123.501 459.914 125.199 459.941 126.863C459.968 128.52 459.911 130.186 459.664 131.621C459.424 133.017 458.974 134.386 458.059 135.253L457.437 135.843L456.759 135.318C456.14 134.839 455.506 134.33 454.854 133.806C453.809 132.968 452.719 132.092 451.571 131.245C449.727 129.883 447.886 128.714 446.184 128.103C444.489 127.494 443.096 127.491 441.968 128.2C440.803 128.933 439.657 130.584 438.87 133.91C436.801 142.61 437.62 153.187 439.441 162.022L439.443 162.033C440.534 167.631 445.363 187.14 450.543 201.411L475.871 185.271C486.576 177.936 498.402 168.434 504.913 157.337L504.918 157.33C505.742 155.953 507.3 153.041 508.403 150.108C508.955 148.64 509.377 147.207 509.548 145.981C509.725 144.713 509.603 143.868 509.306 143.401L509.288 143.373L509.272 143.343C508.764 142.41 508.193 142.085 507.622 141.983C506.974 141.868 506.173 142.014 505.197 142.345C504.721 142.507 504.235 142.701 503.732 142.906C503.665 142.933 503.598 142.961 503.531 142.988C503.099 143.165 502.652 143.347 502.219 143.506C501.258 143.857 500.134 144.186 499.097 143.988L499.089 143.987ZM476.422 186.106L450.033 202.921C449.915 202.604 449.797 202.284 449.679 201.961C444.449 187.613 439.565 167.89 438.461 162.224C436.627 153.322 435.78 142.582 437.897 133.68C440.835 121.272 449.323 128.085 455.511 133.051C456.159 133.572 456.782 134.072 457.371 134.527C457.572 134.337 457.749 134.105 457.905 133.837C457.927 133.8 457.948 133.763 457.968 133.725C459.333 131.203 458.959 125.799 458.68 121.765C458.584 120.385 458.5 119.166 458.5 118.277C458.463 115.516 458.331 112.707 458.197 109.878C457.818 101.846 457.432 93.6496 459.206 85.9167C459.304 85.533 459.401 85.1419 459.5 84.7471C460.959 78.8904 462.624 72.2126 469.366 76.4489C471.116 77.5333 472.767 79.1593 474.378 80.7457C475.233 81.588 476.077 82.4191 476.918 83.1521C477.176 83.3772 477.434 83.593 477.693 83.797C477.88 83.5105 478.042 83.2137 478.182 82.908C479.444 80.1487 478.886 76.664 478.378 73.4886C478.22 72.5042 478.067 71.5494 477.975 70.6552C477.932 70.2165 477.888 69.7773 477.845 69.3376C477.173 62.5543 476.491 55.6616 477.551 48.8935C477.625 48.4808 477.703 47.9943 477.79 47.4533C478.537 42.8072 479.931 34.1383 484.607 33.632C486.857 33.3669 488.052 34.873 489.138 36.2415C490.368 37.7913 491.457 39.1646 493.78 37.5886C496.609 35.7331 498.695 29.5581 500.414 24.4743C501.182 22.2019 501.876 20.1476 502.53 18.7944C502.678 18.4748 502.846 18.1017 503.034 17.6864C505.168 12.9601 509.771 2.76495 515.089 3.67422C524.711 5.13766 522.14 21.9672 520.801 30.7287C520.589 32.1194 520.408 33.3068 520.311 34.1972C520.299 34.2964 520.287 34.3966 520.275 34.4977C520.037 36.5042 519.759 38.8478 520.531 40.6708C520.569 40.7606 520.609 40.8492 520.653 40.9364C520.757 41.1479 520.878 41.3514 521.017 41.5453C530.472 35.8929 538.515 38.2952 535.975 50.7305C534.846 56.6655 531.036 61.4701 527.367 65.992C525.932 67.7249 523.941 69.6222 521.822 71.6422C516.855 76.3757 511.182 81.7833 510.291 87.3298C512.609 87.9584 515.522 87.4122 518.42 86.8688C523.988 85.8245 529.499 84.7911 530.613 92.1343C532.162 102.474 520.961 113.286 513.638 120.355C512.955 121.015 512.305 121.642 511.703 122.233C511.359 122.577 510.743 123.141 509.95 123.866C504.546 128.81 490.916 141.281 499.284 143.006C500.345 143.208 501.715 142.65 503.152 142.063C505.727 141.012 508.52 139.872 510.15 142.865C512.126 145.973 507.469 155.017 505.776 157.844C499.143 169.148 487.148 178.757 476.422 186.106Z" fill="black"/>
<path d="M510.291 142.441C507.61 138.201 502.247 143.571 499.284 143.006C498.861 142.865 498.578 142.865 498.155 142.723C482.067 155.724 466.967 170.137 454.972 187.095C452.573 190.486 450.315 193.878 448.339 197.269C448.904 199.106 449.61 200.802 450.174 202.497C451.021 201.932 452.009 201.226 452.855 200.66C460.476 195.149 468.661 191.051 476.564 185.682C487.289 178.333 499.284 168.724 505.917 157.42C507.61 154.593 512.267 145.549 510.291 142.441Z" fill="#307147"/>
<path d="M170.897 256.337C175.272 240.51 180.775 224.259 183.456 208.15C185.573 195.149 180.352 181.16 174.001 169.996C168.639 160.952 157.49 154.735 152.41 145.55C145.918 133.68 149.588 117.57 145.636 104.711C141.403 90.7213 132.935 81.3949 121.787 72.4923C111.908 64.7203 104.711 61.8941 98.6432 50.4479C93.1395 40.1323 87.3535 27.5557 75.6405 22.8925C48.5454 12.0116 68.5845 68.1117 69.7135 78.5687C70.8424 90.4387 66.1855 97.7868 60.8229 107.82C53.0613 122.375 52.9201 136.506 64.3509 149.789C74.2293 161.518 84.2489 164.768 81.8498 181.866C80.0153 194.16 78.1807 207.867 81.8498 220.303C86.2246 234.716 94.2684 248.141 107.11 255.63C112.614 258.88 118.823 261.848 124.892 264.391C129.831 266.511 149.023 269.761 164.546 272.022C167.087 267.076 169.203 262.272 170.897 256.337Z" fill="#59A960"/>
<path d="M124.892 264.25C129.831 266.37 149.023 269.62 164.546 271.881C166.522 268.065 168.215 264.391 169.627 260.152C159.466 241.075 145.213 223.411 124.892 207.443C111.344 196.704 97.0908 187.519 81.8498 180.453C81.8498 180.877 81.7087 181.301 81.7087 181.725C79.8741 194.019 78.0396 207.726 81.7087 220.161C86.0834 234.575 94.1273 247.999 106.969 255.489C112.614 258.739 118.823 261.706 124.892 264.25Z" fill="#3B8B58"/>
<path d="M546.277 208.291C554.321 180.594 557.99 149.506 555.873 120.679C555.026 108.95 555.45 97.2215 557.143 85.634C553.333 89.5907 548.817 93.1235 546.559 95.667C538.656 104.287 530.048 112.483 522.145 121.244C500.836 145.408 479.527 171.268 467.391 201.367C459.347 221.15 454.831 241.499 455.96 262.554C456.383 272.446 458.218 281.914 460.899 291.523C461.746 294.632 462.875 299.012 464.145 303.393C505.211 285.023 533.858 251.673 546.277 208.291Z" fill="#59A960"/>
<path d="M471.201 192.606C469.79 195.432 468.52 198.399 467.391 201.226C459.347 221.009 454.831 241.358 455.96 262.413C456.383 272.305 458.218 281.772 460.899 291.381C461.746 294.49 462.875 298.871 464.145 303.251C476.705 297.599 488.135 290.675 498.155 282.479C496.885 249.695 487.289 219.031 471.201 192.606Z" fill="#3B8B58"/>
<path d="M541.479 222.422C515.372 228.498 492.792 240.51 471.483 256.195C465.98 260.293 460.899 264.533 456.242 268.913C457.089 276.544 458.5 284.033 460.617 291.381C461.464 294.49 462.593 298.871 463.863 303.252C500.695 287.001 527.226 258.88 541.479 222.422Z" fill="#3B8B58"/>
<path d="M115.295 219.172C92.1516 200.943 67.4555 187.236 38.8081 180.736C30.482 178.899 14.2532 179.182 0 176.779C28.6474 207.585 42.0539 256.337 65.7621 289.827C95.9619 332.503 136.463 361.895 184.868 370.091C179.646 310.883 166.804 259.87 115.295 219.172Z" fill="#73C078"/>
<path d="M471.483 269.055C493.498 252.663 517.065 240.369 544.301 234.575C552.204 232.879 567.727 233.162 581.275 231.042C554.039 258.598 541.197 302.404 518.617 332.503C489.829 370.798 451.303 397.223 405.016 404.43C410.237 351.297 422.373 305.513 471.483 269.055Z" fill="#73C078"/>
<path d="M405.298 404.43C432.252 400.19 456.524 389.451 477.834 373.624C490.817 348.33 498.296 319.502 498.296 288.979C498.296 276.968 497.167 265.098 494.909 253.652C486.865 258.174 479.245 263.402 471.624 268.913C422.373 305.513 410.237 351.297 405.298 404.43Z" fill="#59A960"/>
<path d="M213.515 376.167C202.084 370.656 190.23 361.047 182.186 354.264C153.821 330.242 131.101 300.284 109.086 271.174C106.405 267.641 103.723 263.967 100.901 260.435C89.3292 245.173 79.4508 234.01 69.0079 224.259C67.8789 223.27 66.75 222.139 65.621 221.009C56.4482 212.248 45.1585 201.367 34.4334 196.704L34.9979 195.432C45.8641 200.236 57.436 211.117 66.6088 219.879C67.7378 221.009 68.8668 221.998 69.9957 223.129C80.4386 233.02 90.3171 244.184 102.03 259.445C104.711 262.978 107.534 266.652 110.215 270.185C132.23 299.153 154.809 328.97 183.174 352.993C191.077 359.634 202.931 369.243 214.221 374.613L213.515 376.167Z" fill="#59A960"/>
<path d="M161.724 259.587C160.172 246.869 157.49 236.271 152.974 226.52C145.354 209.422 136.604 195.997 125.597 184.41C116.001 174.236 108.098 164.626 107.957 149.082C107.957 145.691 108.098 142.158 108.098 138.908C108.38 128.31 108.522 118.135 106.405 107.82C102.453 89.7321 93.2805 75.0358 83.5432 59.4917L84.1077 59.0678L84.6722 58.7852L84.1077 59.0678L84.6722 58.7852C94.5506 74.4706 103.723 89.3081 107.816 107.537C110.074 117.994 109.792 128.592 109.65 138.908C109.509 142.299 109.509 145.691 109.509 149.082C109.509 164.061 117.271 173.529 126.726 183.421C137.875 195.149 146.624 208.574 154.386 225.814C158.902 235.705 161.583 246.445 163.135 259.304L161.724 259.587Z" fill="#3B8B58"/>
<path d="M443.541 243.619L442.271 243.336C443.4 237.825 444.106 232.173 444.67 226.944C445.517 219.455 446.364 211.683 448.763 204.193C450.033 200.095 451.162 196.421 452.573 192.606C454.266 188.084 455.678 183.421 457.23 178.899C459.488 171.974 461.887 164.626 464.709 157.702C467.25 151.343 470.495 144.843 473.6 138.484C476.846 131.842 480.374 124.918 482.914 118.135C485.313 111.918 487.148 105.417 488.982 99.1997C491.381 90.8625 493.78 82.3839 497.59 74.3292C501.965 65.0027 503.941 56.1002 506.058 46.6324C506.904 42.6757 507.892 38.5777 508.88 34.4797L510.15 34.7624C509.021 38.8604 508.174 42.9583 507.328 46.7737C505.211 56.2415 503.235 65.2853 498.719 74.7531C494.909 82.6665 492.51 91.1451 490.111 99.4824C488.276 105.841 486.442 112.342 484.043 118.559C481.362 125.342 477.975 132.266 474.588 139.049C471.483 145.267 468.237 151.767 465.697 158.126C462.875 165.192 460.476 172.398 458.218 179.323C456.666 183.844 455.254 188.508 453.561 193.171C452.15 197.128 451.021 200.66 449.751 204.758C447.493 212.248 446.646 219.596 445.799 227.368C445.376 232.455 444.67 238.108 443.541 243.619Z" fill="#307147"/>
<path d="M444.529 320.491L443.682 319.502C447.634 316.252 450.033 311.306 452.291 306.643C453.843 303.252 455.537 299.86 457.795 296.893C458.923 295.338 460.052 294.066 461.181 292.795C463.58 289.827 465.98 287.142 468.096 283.044C472.612 274.283 475.293 265.098 477.41 256.478C478.116 253.652 478.821 250.684 479.527 247.717C482.349 236.271 485.172 224.542 489.688 214.226L491.522 209.987C497.732 195.715 504.082 181.018 513.678 168.866C523.698 156.006 529.343 145.973 535.552 132.832L536.681 133.397C530.33 146.68 524.827 156.854 514.666 169.713C505.211 181.725 498.861 196.421 492.651 210.552L490.817 214.791C486.301 224.966 483.478 236.694 480.797 247.999C480.092 250.967 479.386 253.934 478.68 256.761C476.422 265.522 473.741 274.848 469.225 283.609C467.108 287.849 464.709 290.675 462.169 293.642C461.04 294.914 459.911 296.327 458.782 297.74C456.666 300.567 454.972 303.958 453.42 307.208C451.162 312.013 448.763 317.1 444.529 320.491Z" fill="#3B8B58"/>
<path d="M384.835 431.278L384.13 430.148C386.67 428.593 387.799 426.756 389.069 424.637C389.633 423.648 390.339 422.658 391.186 421.528C398.101 412.484 404.733 403.299 411.225 394.396C420.962 380.972 430.982 367.124 441.989 353.84C447.916 346.634 455.254 340.84 462.31 335.188C469.225 329.676 476.422 323.883 482.208 316.817L485.313 313.002C498.437 296.893 510.997 281.631 525.25 266.793L526.238 267.641C511.985 282.338 499.566 297.599 486.442 313.708L483.337 317.524C477.551 324.589 470.213 330.524 463.298 336.035C456.242 341.688 449.045 347.481 443.259 354.547C432.252 367.83 422.232 381.679 412.495 394.962C406.003 403.864 399.371 413.049 392.456 422.093C391.609 423.082 391.045 424.072 390.48 425.061C388.787 427.463 387.517 429.583 384.835 431.278Z" fill="#59A960"/>
<path d="M228.756 418.843C226.922 417.006 225.087 415.31 223.394 413.615C209.282 399.908 198.98 389.875 178.094 385.918C175.554 385.494 173.014 385.07 170.332 384.646C164.687 383.798 158.76 382.95 153.68 381.113C146.765 378.711 141.685 373.765 136.604 368.961C131.948 364.439 127.573 360.2 121.787 357.797C117.553 355.96 113.743 354.971 110.074 353.982C102.171 351.862 95.3973 350.025 87.7768 341.405C86.3656 339.71 84.8133 337.731 83.1199 335.47C76.205 326.285 67.5966 314.839 55.8836 319.785L55.3192 318.513C68.02 313.285 76.9106 325.155 84.1077 334.622C85.8012 336.742 87.3535 338.862 88.7647 340.416C96.1029 348.753 102.736 350.449 110.356 352.569C114.025 353.558 117.977 354.547 122.351 356.525C128.278 359.069 133.076 363.591 137.592 367.972C142.39 372.635 147.471 377.439 154.103 379.842C159.184 381.679 164.97 382.527 170.615 383.374C173.155 383.798 175.836 384.222 178.376 384.646C199.685 388.744 210.128 398.777 224.381 412.767C226.075 414.463 227.909 416.158 229.744 417.995L228.756 418.843Z" fill="#307147"/>
<path d="M480.394 281.076C493.361 179.667 421.775 86.9332 320.502 73.9491C219.23 60.965 126.62 132.647 113.654 234.056C100.687 335.465 172.273 428.199 273.546 441.183C374.818 454.167 467.428 382.484 480.394 281.076Z" fill="#4D7ABB"/>
<path d="M288.873 99.7651C287.462 102.874 283.087 101.743 281.817 104.287C279.842 108.385 281.958 112.059 282.805 115.874C284.357 124.494 286.898 128.027 278.148 133.114C269.822 138.06 267.423 134.527 267.846 146.256C267.988 150.354 271.657 150.495 269.399 154.876C268.693 156.289 262.766 156.854 261.214 159.115C256.557 165.757 263.754 174.518 261.919 181.866C259.803 190.486 253.452 189.214 247.807 193.595C236.8 202.215 240.187 223.411 227.204 229.629C222.123 232.173 209.705 229.346 206.177 225.248C200.673 219.031 204.624 211.824 207.306 205.889C210.834 197.834 211.68 196.139 207.447 188.367C205.895 185.54 203.496 184.692 202.367 180.877C201.238 176.92 203.496 172.398 201.661 168.442C200.25 165.333 196.157 165.05 194.887 162.507C193.053 158.833 194.464 154.735 192.77 151.202C191.924 149.506 189.242 144.702 187.126 144.278C180.775 143.147 184.585 147.952 182.327 151.202C173.014 165.05 163.276 149.789 149.729 154.735C146.483 156.006 143.237 157.985 139.991 159.963C168.498 114.037 216.62 81.5361 272.645 74.0466C279.701 82.1013 295.083 86.4819 288.873 99.7651Z" fill="#79C0C4"/>
<path d="M334.879 301.697C327.117 281.207 315.122 298.447 302.562 288.132C299.034 285.164 299.457 279.653 294.236 277.957C288.591 276.12 281.253 281.066 274.62 280.359C257.968 278.664 250.63 286.718 245.832 303.817C243.433 312.578 242.304 316.535 249.501 322.611C252.323 325.014 256.839 325.579 259.238 328.405C262.202 331.655 261.496 336.177 263.754 339.286C267.423 344.232 274.902 344.938 279.277 350.449C281.253 352.852 281.112 356.95 283.511 359.634C286.192 362.461 290.426 362.037 293.53 365.146C301.715 373.2 302.985 384.646 302.703 394.962C302.139 408.81 311.17 413.332 324.718 412.061C327.823 401.321 332.48 406.549 340.241 402.593C346.733 399.343 350.261 390.016 351.672 383.375C353.365 375.179 352.378 374.189 358.446 366.841C363.244 361.189 367.477 355.536 368.042 347.906C368.889 336.036 364.091 337.731 357.458 332.644C352.801 329.111 349.414 323.742 345.039 320.068C341.37 316.959 340.523 317.948 338.124 313.426C336.572 310.035 336.149 305.371 334.879 301.697Z" fill="#79C0C4"/>
<path d="M481.785 257.608C481.785 284.599 475.999 310.176 465.697 333.209C463.157 333.209 460.899 333.209 459.347 333.209C451.444 333.492 443.541 330.524 439.167 323.742C436.768 320.068 438.602 315.828 434.368 312.437C431.546 310.176 427.171 311.448 423.926 310.317C412.495 306.502 417.999 302.545 416.305 294.066C414.894 286.86 405.157 282.762 398.101 285.164C391.609 287.425 390.198 296.327 382.718 296.045C374.11 295.621 372.981 285.588 371.288 279.653C368.183 269.479 369.171 268.207 359.575 271.739C358.587 272.163 351.531 275.414 351.249 275.837C348.85 278.805 351.39 283.468 349.273 286.436C344.757 293.077 337.137 283.61 335.161 277.675C333.891 274.142 335.161 269.902 334.032 266.228C333.044 263.12 329.375 261.848 328.528 258.598C325 246.445 334.314 248.847 339.536 243.054C348.567 233.021 336.008 233.303 329.234 237.26C325.565 239.379 324.859 242.206 320.625 243.195C317.097 244.043 313.005 241.782 309.054 242.206C305.243 242.63 303.832 245.314 299.457 245.173C293.813 245.032 295.224 242.771 291.131 241.075C281.958 237.542 277.866 242.63 268.975 241.217C267 233.444 275.749 227.792 281.535 225.248C285.345 223.553 289.156 223.835 292.543 221.857C296.212 219.737 296.635 216.205 301.433 214.65C309.195 212.107 317.239 211.683 324.436 207.726C330.081 204.617 335.161 195.573 323.589 194.16C325.706 180.736 309.195 190.769 304.256 190.486C289.438 189.78 301.151 179.04 308.066 174.801C311.876 172.398 316.11 170.561 319.779 168.583C324.577 166.04 325.847 164.344 329.798 161.376C342.922 151.626 337.701 165.192 348.991 165.616C347.438 179.747 356.611 175.366 363.526 169.29C365.22 167.735 366.207 163.779 368.465 162.789C370.864 161.8 372.276 164.485 373.263 164.344C377.074 163.496 381.448 162.789 385.4 162.507C384.835 157.844 381.166 149.789 383.847 145.55C384.976 143.713 390.339 144.419 392.315 142.582C395.843 139.049 395.278 138.343 396.125 133.962C397.677 126.331 394.855 124.494 400.923 118.842C403.04 116.864 406.991 114.037 410.801 112.059C454.125 145.691 481.785 198.4 481.785 257.608Z" fill="#79C0C4"/>
<path d="M228.474 370.656C229.462 385.918 220.712 377.581 211.116 381.537C211.257 385.494 210.975 389.875 209.846 393.69C199.544 398.777 200.673 407.256 201.802 416.3C189.384 408.81 177.812 399.766 167.51 389.592C167.369 387.755 167.087 385.918 166.945 384.222C166.804 382.668 169.627 382.244 168.78 379.7C168.498 378.852 165.534 377.439 164.829 375.885C163.135 371.646 161.583 371.08 161.159 366.135C160.736 358.504 167.086 352.145 167.933 345.079C168.357 341.405 165.675 338.438 165.958 334.481C166.099 331.09 168.215 328.546 168.639 325.013C162.571 322.752 157.914 321.481 153.68 317.383C149.023 321.763 138.298 315.263 133.359 314.415C125.879 313.002 119.67 312.154 117.977 302.121C117.835 301.98 117.553 301.98 117.412 301.839C114.025 287.707 112.191 273.011 112.191 257.75C112.191 238.108 115.295 219.172 120.94 201.367C128.843 202.356 126.444 201.084 130.536 196.421C133.359 193.171 149.305 172.681 151.845 188.649C158.337 188.366 170.897 189.356 167.933 199.389C166.099 205.465 154.668 204.9 150.434 211.824C145.636 219.737 149.729 222.564 155.515 228.075C164.123 236.412 163.982 236.553 167.792 226.379C169.344 222.14 164.97 221.433 170.897 219.455C174.848 218.042 177.529 220.02 180.211 222.564C183.88 225.955 182.327 229.488 187.267 232.597C190.371 234.716 194.323 233.727 197.71 234.716C203.496 236.412 217.325 244.608 211.822 252.804C207.306 259.587 194.605 249.836 190.936 253.934C190.654 254.076 190.371 254.076 190.23 254.076C190.795 261.989 201.379 262.413 200.532 270.044C193.758 270.326 183.315 267.783 178.799 273.011C175.13 277.392 178.517 292.229 175.554 294.914C170.756 299.154 160.736 293.501 156.361 291.523C153.116 290.11 150.999 287.284 147.047 287.425C146.342 287.425 138.298 291.664 138.157 291.947C135.617 298.447 145.354 306.078 151.14 307.35C157.49 308.763 162.147 302.969 169.909 306.784C177.106 310.317 175.977 316.535 185.432 318.089C190.936 319.078 203.213 316.535 207.447 320.209C211.822 324.024 208.858 328.405 211.963 332.785C214.503 336.177 219.442 336.318 222.829 337.307C231.014 339.71 238.635 341.688 238.917 352.569C224.522 354.83 227.768 359.21 228.474 370.656Z" fill="#79C0C4"/>
<path opacity="0.5" d="M430.558 129.582C438.602 150.354 442.977 172.964 442.977 196.563C442.977 298.73 360.28 381.679 258.109 381.679C205.612 381.679 158.196 359.776 124.609 324.589C151.422 393.69 218.454 442.725 296.917 442.725C398.947 442.725 481.785 359.917 481.785 257.608C481.785 208.009 462.31 162.931 430.558 129.582Z" fill="#00BBFF"/>
<path d="M517.206 190.769C510.009 151.343 481.926 169.148 481.926 169.148C442.695 132.125 435.921 180.029 435.921 180.029C417.857 173.246 412.918 190.91 412.918 190.91C387.94 184.834 380.319 197.976 378.203 209.846H544.866C540.209 181.16 517.206 190.769 517.206 190.769Z" fill="white"/>
<path d="M151.846 219.031C147.33 194.302 129.69 205.465 129.69 205.465C104.994 182.149 100.76 212.248 100.76 212.248C89.4703 208.009 86.2245 219.031 86.2245 219.031C70.5602 215.215 65.7621 223.411 64.3509 231.042H169.062C166.24 212.955 151.846 219.031 151.846 219.031Z" fill="white"/>
<path d="M213.092 113.331C207.306 81.8188 184.868 95.9498 184.868 95.9498C153.398 66.2747 148.035 104.57 148.035 104.57C133.641 99.2 129.549 113.19 129.549 113.19C109.651 108.385 103.441 118.842 101.748 128.451H235.107C231.579 105.559 213.092 113.331 213.092 113.331Z" fill="white"/>
<path opacity="0.3" d="M229.462 203.487C204.06 235.988 170.332 252.097 154.103 239.38C137.875 226.662 145.213 190.062 170.615 157.42C196.016 124.918 229.744 108.809 245.973 121.527C262.202 134.245 254.863 170.844 229.462 203.487Z" fill="white"/>
<path d="M592 459.682C592 465.052 570.267 469.291 543.313 469.291C516.501 469.291 494.627 465.052 494.627 459.682C494.627 454.312 516.359 450.073 543.313 450.073C570.267 450.073 592 454.453 592 459.682Z" fill="#BBE7F2"/>
<path d="M451.726 506.455C451.726 515.923 390.762 523.695 315.545 523.695C240.328 523.695 179.364 515.923 179.364 506.455C179.364 496.988 240.328 489.216 315.545 489.216C390.762 489.216 451.726 496.988 451.726 506.455Z" fill="#BBE7F2"/>
</g>
<defs>
<clipPath id="clip0">
<rect width="592" height="535" fill="white"/>
</clipPath>
</defs>
</svg>
