<svg width="152" height="136" viewBox="0 0 152 136" fill="none" xmlns="http://www.w3.org/2000/svg">
<path d="M145.944 45.6465C146.805 44.3781 148.604 43.5951 150.028 44.3781C152.751 45.8657 151.937 51.4717 151.703 53.8206C151.108 59.8024 149.606 65.6589 148.166 71.4685C146.649 77.6225 144.99 83.7453 142.862 89.7114C142.001 92.1543 140.734 94.8633 138.246 95.5523C137.479 95.7715 136.603 95.7402 135.993 95.2391C134.929 94.3935 135.179 92.7337 135.601 91.434C138.496 82.289 144.599 74.0836 145.459 64.2809C145.897 59.2073 144.661 54.1494 145.021 49.0758C145.099 47.9484 145.272 46.7896 145.835 45.8187C145.866 45.7718 145.913 45.7091 145.944 45.6465Z" fill="#F2F7F9"/>
<path d="M74.4822 8.78473C74.7795 7.82952 75.1081 6.87431 75.1237 5.85646C75.1394 5.35537 75.0611 4.85428 74.9046 4.3845C74.7482 3.91473 74.4196 3.52325 74.3257 3.03781C74.2161 2.45842 74.4352 1.91035 74.9203 1.56585C76.4068 0.516684 78.6601 1.62849 79.9119 2.59936C82.0869 4.27489 82.6815 7.29711 82.5406 9.77126C82.4311 11.619 81.6644 13.4355 80.0057 14.4064C78.5975 15.2207 76.8449 15.2363 75.421 14.2811C74.2005 13.4512 73.9188 11.9166 74.0753 10.6012C74.1379 9.97483 74.31 9.37978 74.4822 8.78473Z" fill="#F2F7F9"/>
<path d="M94.4953 124.929C95.4498 124.647 96.4356 124.397 97.2962 123.864C97.7187 123.598 98.0943 123.269 98.4072 122.878C98.7202 122.486 98.861 121.985 99.2052 121.656C99.6277 121.233 100.207 121.124 100.754 121.343C102.444 122.001 102.757 124.506 102.632 126.088C102.429 128.828 100.238 130.973 98.0943 132.226C96.4982 133.15 94.5579 133.51 92.8211 132.649C91.3658 131.929 90.3957 130.457 90.4113 128.75C90.427 127.262 91.5692 126.197 92.7428 125.602C93.3061 125.289 93.9007 125.101 94.4953 124.929Z" fill="#F2F7F9"/>
<path d="M45.9411 49.5769C55.5956 44.9105 65.5318 40.5729 73.6685 33.307C77.6273 29.768 81.1167 25.6027 83.7455 20.8893C86.3273 16.2542 86.9845 10.6952 90.0358 6.48284C93.7599 1.33097 99.659 -0.939612 105.902 0.360101C124.992 4.33753 132.613 30.2065 134.146 47.1341C136.806 76.4324 117.419 103.131 96.9833 120.028C81.7583 132.618 61.839 139.883 42.0292 133.823C25.302 128.718 12.4554 114.923 9.6545 96.852C7.19784 81.1615 17.3374 67.8042 28.7288 59.4265C34.0177 55.5431 39.9325 52.4739 45.9411 49.5769Z" fill="#F2F7F9"/>
<path d="M140.64 48.1989C138.105 42.8904 133.927 38.3962 128.137 35.7498C118.53 31.3496 107.639 33.4479 97.531 31.4279C87.3288 29.3922 78.3471 23.9115 68.8491 19.9654C45.5343 10.2723 24.3945 29.7993 12.784 48.1989C1.17355 66.5984 -7.6673 93.219 9.99875 110.961C25.7714 126.792 49.0237 113.388 67.0965 110.366C88.6275 106.764 110.597 107.359 127.934 91.9193C133.943 86.5639 139.106 80.0027 141.782 72.267C144.52 64.4218 144.129 55.5274 140.64 48.1989Z" fill="#FFD430"/>
<path d="M81.4233 60.3668V50.5482C81.4496 46.1056 79.6752 41.8338 76.5075 38.7187C73.445 35.6693 69.4361 34 65.1906 34C65.1248 34 65.046 34 64.9803 34C55.9241 34.0131 48.5635 41.4263 48.5635 50.5482V60.3668C45.146 60.7742 42.6487 63.6396 42.6487 67.1096V89.1651C42.6487 92.9112 45.6455 96 49.3915 96H80.6084C84.3544 96 87.3513 92.9112 87.3513 89.1651V67.1096C87.3381 63.6527 84.8408 60.7742 81.4233 60.3668ZM51.1791 50.5482H51.1923C51.1923 42.8722 57.3831 36.5894 64.9934 36.5894H65.0065C68.6211 36.5762 72.0911 38.0089 74.6542 40.5588C77.3224 43.2008 78.8077 46.8022 78.7814 50.5482V60.3799H75.8897V50.5482C75.916 47.5646 74.7331 44.6992 72.6169 42.5961C70.619 40.5983 67.9114 39.4679 65.0854 39.4679H65.0065C58.9603 39.4679 54.0708 44.4363 54.0708 50.5351V60.3799H51.1791V50.5482ZM73.2741 50.5482V60.3799H56.7127V50.5482C56.7127 45.8953 60.4193 42.1098 65.0197 42.1098H65.0986C67.2279 42.1098 69.2783 42.9642 70.7899 44.4757C72.3934 46.0793 73.3004 48.2743 73.2741 50.5482ZM84.8408 89.2046C84.8408 91.5048 82.9743 93.3712 80.6741 93.3712H49.4441C47.1439 93.3712 45.2775 91.5048 45.2775 89.2046V67.1753C45.2775 64.8751 47.1439 63.0087 49.4441 63.0087H80.6741C82.9743 63.0087 84.8408 64.8751 84.8408 67.1753V89.2046Z" fill="white"/>
<path d="M69.5413 77.3751C68.9629 75.3378 67.1096 73.9445 64.9935 73.9445C62.3778 73.9445 60.2485 76.0607 60.2485 78.6895C60.2485 80.8057 61.6418 82.659 63.6791 83.2373V86.9176C63.6791 87.6405 64.2705 88.232 64.9935 88.232C65.7164 88.232 66.3079 87.6405 66.3079 86.9176V83.2373C68.8183 82.5144 70.2773 79.8856 69.5413 77.3751ZM64.9935 80.7925C63.8236 80.7925 62.8773 79.8461 62.8773 78.6763C62.8773 77.5065 63.8236 76.5602 64.9935 76.5602C66.1633 76.5602 67.1096 77.5065 67.1096 78.6763C67.1096 79.8461 66.1633 80.7925 64.9935 80.7925Z" fill="white"/>
</svg>
