<svg width="160" height="145" viewBox="0 0 160 145" fill="none" xmlns="http://www.w3.org/2000/svg">
<path d="M130.041 11.6996C126.495 14.8089 122.088 16.3969 119.52 13.4047C116.935 10.4124 117.73 5.44761 121.276 2.33833C124.822 -0.770943 133.752 -0.754226 136.32 2.23803C138.889 5.23029 133.603 8.60703 130.041 11.6996Z" fill="#F2F7F9"/>
<path d="M21.6709 47.6352C17.3848 49.771 13.0484 50.9344 12.161 49.059C11.2904 47.1664 14.0362 43.9019 18.3224 41.7661C22.6085 39.6303 30.0256 39.3872 30.9129 41.2799C31.7835 43.1553 25.9403 45.4994 21.6709 47.6352Z" fill="#F2F7F9"/>
<path d="M66.1288 143.176C64.2331 142.393 62.3375 141.544 60.3394 141.128C59.3659 140.928 58.3925 140.828 57.4703 140.878C56.5651 140.928 55.8137 141.261 54.8915 141.228C53.7643 141.178 52.6713 140.645 51.9541 139.812C49.7681 137.264 51.7833 134.416 53.5594 132.95C56.6505 130.419 62.5083 130.702 67.3584 131.834C70.9619 132.684 74.5995 134.482 76.6318 137.28C78.3566 139.645 78.5103 142.194 76.7513 143.892C75.2314 145.358 72.2427 145.175 69.6639 144.459C68.5026 144.142 67.3072 143.676 66.1288 143.176Z" fill="#F2F7F9"/>
<path d="M84.3425 132.059C92.866 134.611 101.03 138.173 110.118 140.005C121.312 142.266 134.405 140.896 143.579 133.583C154.927 124.524 154.447 109.436 150.323 96.6941C146.609 85.1856 140.635 74.4134 137.52 62.7164C132.625 44.3575 131.205 27.4886 115.065 14.7983C91.0346 -4.05725 52.4393 1.76554 41.0917 32.3866C38.7127 38.7916 37.8227 45.7447 34.7419 51.8415C28.1011 64.9086 12.372 69.4983 4.29347 81.3322C-5.0858 95.0843 2.11981 110.926 14.1862 120.122C30.2405 132.367 49.3242 128.548 68.1855 129.148C73.8849 129.353 79.1907 130.518 84.3425 132.059Z" fill="#F2F7F9"/>
<path d="M64.0381 39.0856C75.9433 38.5061 87.9853 38.3357 99.4457 34.637C105.022 32.8302 110.393 30.2395 115.114 26.7623C119.75 23.3364 122.811 18.2571 127.755 15.4447C133.793 12.0017 140.806 12.2062 146.639 15.9901C164.479 27.5464 161.161 55.5337 155.448 72.4421C145.578 101.725 114.225 119.571 86.0182 127.565C64.996 133.53 41.4765 132.439 23.7898 118.599C8.83992 106.906 1.63866 88.43 6.51362 69.9024C10.7557 53.8122 26.8858 45.0513 42.1607 41.6083C49.2593 39.989 56.6316 39.4436 64.0381 39.0856Z" fill="#6DF092"/>
<g clip-path="url(#clip0)">
<path d="M90.5856 82.3201C90.47 81.9254 90.1733 81.6031 89.7791 81.4589C89.6995 81.4298 89.0545 81.2016 88.0526 81.055C92.3328 76.5007 90.9196 71.1799 90.5856 70.1407C90.47 69.7459 90.1733 69.4236 89.7791 69.2794C89.5953 69.2121 86.3918 68.0826 82.7418 69.3528C82.948 68.5073 83.0685 67.5778 83.0685 66.5579C83.0685 60.0324 78.1268 57.1642 77.1352 56.655C76.7744 56.4574 76.3364 56.4393 75.9559 56.6163C75.7105 56.7302 69.9456 59.4892 69.9456 66.5579C69.9456 67.5799 70.0667 68.5114 70.2736 69.3582C66.6172 68.0794 63.405 69.212 63.221 69.2794C62.8268 69.4236 62.5301 69.7459 62.4146 70.1407C62.0805 71.1799 60.6673 76.5007 64.9475 81.055C63.9456 81.2016 63.3006 81.4298 63.221 81.4589C62.8268 81.6031 62.53 81.9255 62.4144 82.3202C62.0734 83.3811 60.607 88.9039 65.2214 93.5182C67.8917 96.1885 70.8554 96.8256 73.0758 96.8256C73.8978 96.8256 74.6164 96.738 75.1821 96.6341V105.197C75.1821 105.919 75.768 106.505 76.4907 106.505C77.2134 106.505 77.7993 105.919 77.7993 105.197V96.6308C78.3676 96.736 79.0932 96.8254 79.9242 96.8254C82.1445 96.8254 85.1086 96.1881 87.7786 93.5181C92.393 88.9036 90.9266 83.3809 90.5856 82.3201ZM75.1821 92.5548C75.1531 93.1488 75.0697 93.648 74.99 94.007C73.5912 94.3178 70.0915 94.687 67.0721 91.6675C64.0981 88.6937 64.4098 85.252 64.739 83.7502C65.6185 83.559 67.3347 83.346 69.2348 83.9626C69.3599 84.0095 69.4846 84.0537 69.6087 84.0949C70.615 84.4765 71.6598 85.0994 72.65 86.0895C74.5368 87.9763 75.1003 90.0504 75.1821 91.6817V92.5548ZM75.1821 80.3756C75.1531 80.9696 75.0697 81.4688 74.99 81.8276C74.1233 82.0204 72.4502 82.2343 70.5845 81.652C70.3954 81.5791 70.2074 81.5128 70.0206 81.4527C69.0447 81.0672 68.034 80.4501 67.072 79.4881C64.0981 76.5142 64.4098 73.0726 64.739 71.571C66.1365 71.2672 69.646 70.9062 72.65 73.9103C72.6691 73.9294 72.6864 73.9486 72.7051 73.9676C72.8198 74.0963 72.935 74.2195 73.05 74.3378C74.6163 76.1058 75.1065 77.9936 75.1821 79.5025V80.3756ZM76.5091 73.8099C76.099 73.5469 75.5081 73.1133 74.9078 72.4866C74.8466 72.4195 74.7847 72.3524 74.7211 72.2855C73.6278 71.071 72.5627 69.2079 72.5627 66.5579C72.5627 62.2923 75.2924 60.0791 76.5004 59.3086C77.7941 60.1364 80.4512 62.3496 80.4512 66.5579C80.4512 69.0586 79.5128 70.853 78.4931 72.0658C78.2811 72.278 78.0827 72.4924 77.8957 72.7078C77.3726 73.2164 76.8715 73.579 76.5091 73.8099ZM77.8074 79.9515C77.8056 78.4152 78.203 76.3822 79.8301 74.4729C80.0229 74.2814 80.2167 74.0753 80.4088 73.8537C83.4116 70.9001 86.8705 71.2609 88.2604 71.5684C88.5898 73.0687 88.9036 76.5125 85.9279 79.4881C84.9676 80.4485 83.959 81.0651 82.9847 81.4509C82.7948 81.5119 82.6037 81.5793 82.4113 81.6535C80.5459 82.2349 78.8738 82.0201 78.0105 81.828C77.9137 81.3919 77.8111 80.7513 77.8073 79.9849C77.8073 79.9737 77.8074 79.9626 77.8074 79.9515ZM85.9279 91.6675C82.9079 94.6876 79.4081 94.3176 78.0126 94.008C77.7083 92.6159 77.3405 89.099 80.35 86.0895C81.3129 85.1266 82.3243 84.5093 83.301 84.1238C83.4874 84.0639 83.6749 83.9979 83.8634 83.9252C85.725 83.3442 87.3944 83.5562 88.2604 83.7476C88.5898 85.248 88.9036 88.6919 85.9279 91.6675Z" fill="white"/>
<path d="M83.4821 48.729C81.2011 48.2454 78.8519 48 76.5 48C67.5518 48 59.1393 51.4845 52.812 57.812C46.4847 64.1393 43 72.5518 43 81.5C43 88.9561 45.5086 96.2344 50.079 102.095C49.5648 102.89 49.2881 103.817 49.2881 104.786C49.2881 106.115 49.8053 107.363 50.7445 108.302C51.6837 109.242 52.9325 109.759 54.2607 109.759C55.5889 109.759 56.8377 109.242 57.7769 108.302C58.7162 107.363 59.2334 106.115 59.2334 104.786C59.2334 103.458 58.7161 102.209 57.7769 101.27C56.8377 100.331 55.5889 99.8135 54.2607 99.8135C53.4735 99.8135 52.7146 99.9966 52.0311 100.34C47.8892 94.9635 45.6172 88.3127 45.6172 81.5C45.6172 64.4711 59.4711 50.6172 76.5 50.6172C78.6699 50.6172 80.8363 50.8433 82.9392 51.2893C83.6466 51.4391 84.3408 50.9875 84.4908 50.2806C84.6408 49.5736 84.1892 48.879 83.4821 48.729ZM52.5951 103.121C53.0543 102.661 53.6574 102.432 54.2607 102.432C54.864 102.432 55.4671 102.661 55.9263 103.121C56.3712 103.565 56.6162 104.157 56.6162 104.786C56.6162 105.415 56.3712 106.007 55.9263 106.452C55.0079 107.37 53.5135 107.37 52.5951 106.452C52.1502 106.007 51.9052 105.415 51.9052 104.786C51.9052 104.157 52.1502 103.566 52.5951 103.121Z" fill="white"/>
<path d="M102.921 60.9054C103.435 60.11 103.712 59.1835 103.712 58.2139C103.712 56.8856 103.195 55.6369 102.255 54.6977C101.316 53.7584 100.068 53.2412 98.7393 53.2412C97.4111 53.2412 96.1623 53.7585 95.2231 54.6977C94.2839 55.6369 93.7666 56.8856 93.7666 58.2139C93.7666 59.5421 94.2839 60.7909 95.2231 61.7301C96.1623 62.6694 97.4111 63.1865 98.7393 63.1865C99.5267 63.1865 100.285 63.0035 100.969 62.6598C105.111 68.0367 107.383 74.6875 107.383 81.5002C107.383 98.529 93.5289 112.383 76.5 112.383C74.6681 112.383 72.8327 112.221 71.0447 111.903C70.3337 111.776 69.6536 112.25 69.5269 112.962C69.4001 113.673 69.8741 114.353 70.5856 114.479C72.5248 114.825 74.5146 115 76.5 115C85.4482 115 93.8607 111.516 100.188 105.188C106.516 98.8611 110 90.4483 110 81.5002C110 74.0441 107.491 66.7658 102.921 60.9054ZM100.405 59.8794C99.9602 60.3244 99.3686 60.5693 98.7394 60.5693C98.1103 60.5693 97.5186 60.3245 97.0739 59.8794C96.1554 58.9611 96.1554 57.4668 97.0739 56.5483C97.5186 56.1034 98.1103 55.8584 98.7394 55.8584C99.3686 55.8584 99.9601 56.1034 100.405 56.5483C100.85 56.9931 101.095 57.5847 101.095 58.2139C101.095 58.843 100.85 59.4345 100.405 59.8794Z" fill="white"/>
<path d="M65.0019 110.172L64.5078 111.383L64.9983 110.17C64.3279 109.9 63.5655 110.223 63.2946 110.893C63.0237 111.563 63.3473 112.326 64.0173 112.597L64.0578 112.613C64.2121 112.672 64.3709 112.7 64.5272 112.7C65.0543 112.7 65.5524 112.381 65.7519 111.86C66.0105 111.185 65.6769 110.43 65.0019 110.172Z" fill="white"/>
<path d="M89.0395 50.4265L89.0162 50.4172C88.3453 50.1487 87.5837 50.4752 87.3152 51.1462C87.0466 51.8173 87.3731 52.5786 88.0442 52.8472L88.0591 52.8532C88.2198 52.9181 88.3856 52.9487 88.5489 52.9487C89.0666 52.9487 89.5568 52.6395 89.7626 52.1301C90.0334 51.4599 89.7096 50.6973 89.0395 50.4265Z" fill="white"/>
</g>
<defs>
<clipPath id="clip0">
<rect width="67" height="67" fill="white" transform="translate(43 48)"/>
</clipPath>
</defs>
</svg>
