<svg width="160" height="145" viewBox="0 0 160 145" fill="none" xmlns="http://www.w3.org/2000/svg">
<path d="M130.041 11.6996C126.495 14.8089 122.088 16.3969 119.52 13.4047C116.935 10.4124 117.73 5.44761 121.276 2.33833C124.822 -0.770943 133.752 -0.754226 136.32 2.23803C138.889 5.23029 133.603 8.60703 130.041 11.6996Z" fill="#2A4773"/>
<path d="M21.6709 47.6352C17.3848 49.771 13.0484 50.9344 12.161 49.059C11.2904 47.1664 14.0362 43.9019 18.3224 41.7661C22.6085 39.6303 30.0256 39.3872 30.9129 41.2799C31.7835 43.1553 25.9403 45.4994 21.6709 47.6352Z" fill="#2A4773"/>
<path d="M66.1288 143.176C64.2331 142.393 62.3375 141.544 60.3394 141.128C59.3659 140.928 58.3925 140.828 57.4703 140.878C56.5651 140.928 55.8137 141.261 54.8915 141.228C53.7643 141.178 52.6713 140.645 51.9541 139.812C49.7681 137.264 51.7833 134.416 53.5594 132.95C56.6505 130.419 62.5083 130.702 67.3584 131.834C70.9619 132.684 74.5995 134.482 76.6318 137.28C78.3566 139.645 78.5103 142.194 76.7513 143.892C75.2314 145.358 72.2427 145.175 69.6639 144.459C68.5026 144.142 67.3072 143.676 66.1288 143.176Z" fill="#2A4773"/>
<path d="M84.3425 132.059C92.866 134.611 101.03 138.173 110.118 140.005C121.312 142.266 134.405 140.896 143.579 133.583C154.927 124.524 154.447 109.436 150.323 96.6941C146.609 85.1856 140.635 74.4134 137.52 62.7164C132.625 44.3575 131.205 27.4886 115.065 14.7983C91.0346 -4.05725 52.4393 1.76554 41.0917 32.3866C38.7127 38.7916 37.8227 45.7447 34.7419 51.8415C28.1011 64.9086 12.372 69.4983 4.29347 81.3322C-5.0858 95.0843 2.11981 110.926 14.1862 120.122C30.2405 132.367 49.3242 128.548 68.1855 129.148C73.8849 129.353 79.1907 130.518 84.3425 132.059Z" fill="#2A4773"/>
<path d="M64.0381 39.0856C75.9433 38.5061 87.9853 38.3357 99.4457 34.637C105.022 32.8302 110.393 30.2395 115.114 26.7623C119.75 23.3364 122.811 18.2571 127.755 15.4447C133.793 12.0017 140.806 12.2062 146.639 15.9901C164.479 27.5464 161.161 55.5337 155.448 72.4421C145.578 101.725 114.225 119.571 86.0182 127.565C64.996 133.53 41.4765 132.439 23.7898 118.599C8.83992 106.906 1.63866 88.43 6.51362 69.9024C10.7557 53.8122 26.8858 45.0513 42.1607 41.6083C49.2593 39.989 56.6316 39.4436 64.0381 39.0856Z" fill="#699FF0"/>
<path d="M92.0424 57.3728C92.0251 57.2878 91.9999 57.2041 91.9667 57.1244C91.9334 57.0448 91.8923 56.9665 91.8445 56.8948C91.7953 56.8218 91.7395 56.7539 91.6784 56.6928C91.6174 56.6317 91.5496 56.5759 91.4766 56.5282C91.4049 56.4804 91.3278 56.4391 91.2481 56.4059C91.1671 56.3727 91.0834 56.3476 90.9998 56.3304C90.5667 56.2427 90.1086 56.3848 89.8005 56.6928C89.7394 56.7539 89.6836 56.8218 89.6358 56.8948C89.5881 56.9665 89.5468 57.0449 89.5136 57.1244C89.4804 57.2043 89.4553 57.2878 89.4379 57.3728C89.4206 57.4579 89.4115 57.5455 89.4115 57.6318C89.4115 57.7181 89.4206 57.8058 89.4379 57.8921C89.4552 57.9768 89.4804 58.0593 89.5136 58.1403C89.5468 58.22 89.5881 58.297 89.6358 58.3688C89.6836 58.4418 89.7394 58.5097 89.8005 58.5708C90.0475 58.8191 90.39 58.9599 90.7395 58.9599C90.8257 58.9599 90.9134 58.9519 90.9998 58.9347C91.0834 58.9174 91.1671 58.8923 91.2481 58.8591C91.3278 58.8259 91.4049 58.7846 91.4766 58.7369C91.5496 58.6878 91.6174 58.632 91.6784 58.5709C91.7395 58.5098 91.7953 58.4419 91.8445 58.3689C91.8923 58.2972 91.9334 58.2201 91.9667 58.1405C91.9999 58.0594 92.0251 57.9771 92.0424 57.8921C92.0596 57.8058 92.0676 57.7181 92.0676 57.6318C92.0676 57.5455 92.0595 57.4578 92.0424 57.3728Z" fill="white"/>
<path d="M64.5619 57.3725C64.5447 57.2875 64.5196 57.2039 64.4864 57.1242C64.4532 57.0445 64.4119 56.9663 64.3641 56.8946C64.3164 56.8215 64.2606 56.7536 64.1995 56.6925C64.1384 56.6314 64.0705 56.5757 63.9975 56.528C63.9258 56.4802 63.8487 56.4389 63.7679 56.4057C63.688 56.3725 63.6045 56.3474 63.5195 56.3301C63.3482 56.2956 63.1715 56.2956 63.0002 56.3301C62.9165 56.3474 62.8329 56.3725 62.7518 56.4057C62.6722 56.4389 62.5951 56.4802 62.5234 56.528C62.4504 56.5757 62.3825 56.6314 62.3215 56.6925C62.2604 56.7536 62.2047 56.8215 62.1555 56.8946C62.1078 56.9663 62.0665 57.0446 62.0333 57.1242C62.0001 57.204 61.975 57.2875 61.9578 57.3725C61.9404 57.4577 61.9325 57.5452 61.9325 57.6315C61.9325 57.7179 61.9405 57.8055 61.9578 57.8918C61.9749 57.9767 62.0001 58.0592 62.0333 58.1402C62.0665 58.2199 62.1078 58.2969 62.1555 58.3686C62.2047 58.4417 62.2604 58.5096 62.3215 58.5706C62.3826 58.6317 62.4505 58.6875 62.5234 58.7367C62.5951 58.7843 62.6722 58.8256 62.7518 58.8588C62.8329 58.8921 62.9165 58.9172 63.0002 58.9344C63.0865 58.9518 63.1742 58.9597 63.2605 58.9597C63.3468 58.9597 63.4345 58.9517 63.5195 58.9344C63.6045 58.9172 63.6882 58.8921 63.7679 58.8588C63.8487 58.8256 63.9258 58.7843 63.9975 58.7367C64.0705 58.6875 64.1384 58.6317 64.1995 58.5706C64.2606 58.5096 64.3164 58.4417 64.3641 58.3686C64.4119 58.2969 64.4532 58.2199 64.4864 58.1402C64.5196 58.0592 64.5447 57.9768 64.5619 57.8918C64.5792 57.8055 64.5885 57.7179 64.5885 57.6315C64.5885 57.5452 64.5792 57.4575 64.5619 57.3725Z" fill="white"/>
<path d="M96.5228 105.305V103.874C96.5228 101.197 94.3452 99.0191 91.6684 99.0191H81.6471V58.9603H86.2683C87.0017 58.9603 87.5965 58.3656 87.5965 57.6322C87.5965 56.8988 87.0017 56.304 86.2683 56.304H83.3078C83.6187 55.5263 83.7915 54.679 83.7915 53.7916C83.7916 50.0467 80.7449 47 77 47C73.2551 47 70.2084 50.0467 70.2084 53.7916C70.2084 54.679 70.3812 55.5263 70.6921 56.304H67.7316C66.9982 56.304 66.4034 56.8988 66.4034 57.6322C66.4034 58.3656 66.9982 58.9603 67.7316 58.9603H72.3528V99.0191H62.3315C59.6548 99.0191 57.4771 101.197 57.4771 103.874V105.305C54.9709 105.493 52.9895 107.592 52.9895 110.146C52.9895 112.822 55.1672 115 57.8441 115H96.1558C98.8325 115 101.01 112.822 101.01 110.146C101.01 107.592 99.029 105.493 96.5228 105.305ZM77 49.6562C79.2803 49.6562 81.1354 51.5114 81.1354 53.7916C81.1354 55.1393 80.4871 56.3382 79.4863 57.0936C79.4164 57.1463 79.3451 57.196 79.2728 57.244C79.2439 57.2631 79.2147 57.2818 79.1852 57.3003C79.1149 57.3442 79.044 57.3865 78.9717 57.4259C78.9376 57.4445 78.9027 57.4616 78.868 57.4792C78.8182 57.5045 78.7679 57.5288 78.7171 57.5521C78.6708 57.5733 78.6242 57.5942 78.5769 57.6138C78.5146 57.6396 78.4519 57.6638 78.3884 57.6865C78.3474 57.7012 78.306 57.7152 78.2644 57.7286C78.1923 57.7517 78.1196 57.7735 78.0463 57.7926C78.0096 57.8022 77.9725 57.8104 77.9354 57.819C77.8695 57.8342 77.8034 57.848 77.7367 57.8599C77.7074 57.8653 77.6783 57.8711 77.6488 57.8757C77.5578 57.89 77.466 57.9011 77.3737 57.9094C77.3494 57.9115 77.325 57.9132 77.3006 57.9149C77.2011 57.922 77.1011 57.927 77.0004 57.927C76.8996 57.927 76.7997 57.922 76.7003 57.9149C76.6758 57.9132 76.6514 57.9115 76.6271 57.9094C76.5348 57.9011 76.443 57.8901 76.352 57.8757C76.3225 57.8711 76.2934 57.8653 76.2641 57.8599C76.1974 57.848 76.1312 57.8342 76.0654 57.819C76.0284 57.8104 75.9912 57.8023 75.9545 57.7926C75.8811 57.7735 75.8085 57.7517 75.7364 57.7286C75.6947 57.7152 75.6534 57.7012 75.6123 57.6865C75.5489 57.6639 75.4861 57.6396 75.4238 57.6138C75.3765 57.5943 75.3299 57.5735 75.2835 57.5521C75.2328 57.5288 75.1825 57.5045 75.1327 57.4792C75.098 57.4615 75.0631 57.4444 75.0289 57.4259C74.9567 57.3865 74.8856 57.3442 74.8155 57.3003C74.786 57.2818 74.7568 57.2631 74.7279 57.244C74.6556 57.1961 74.5842 57.1463 74.5144 57.0936C73.5135 56.3382 72.8653 55.1393 72.8653 53.7916C72.8646 51.5114 74.7198 49.6562 77 49.6562ZM78.9909 60.2879V99.0191H75.0091V60.2879C75.4258 60.4154 75.8558 60.5015 76.2946 60.5465C76.3074 60.5478 76.3204 60.5487 76.3332 60.5501C76.4239 60.5588 76.515 60.5657 76.6065 60.5709C76.632 60.5724 76.6574 60.574 76.6829 60.5752C76.7882 60.5799 76.8938 60.5833 77 60.5833C77.1061 60.5833 77.2118 60.5801 77.3172 60.5752C77.3427 60.574 77.368 60.5724 77.3935 60.5709C77.485 60.5657 77.5762 60.5588 77.6669 60.5501C77.6797 60.5489 77.6926 60.5478 77.7054 60.5465C78.1443 60.5016 78.5742 60.4155 78.9909 60.2879ZM96.1558 112.344H57.8442C56.632 112.344 55.6459 111.358 55.6459 110.146C55.6459 108.933 56.632 107.947 57.8442 107.947H58.8054C58.8257 107.947 58.8456 107.945 58.8657 107.944C58.8841 107.945 58.9022 107.947 58.9209 107.947H84.4533C85.1867 107.947 85.7814 107.352 85.7814 106.619C85.7814 105.885 85.1867 105.291 84.4533 105.291H60.1335V103.873C60.1335 102.661 61.1196 101.675 62.3317 101.675H73.681H80.319H91.6684C92.8804 101.675 93.8665 102.661 93.8665 103.873V106.619C93.8665 107.353 94.4613 107.947 95.1947 107.947H96.1558C97.368 107.947 98.3541 108.933 98.3541 110.146C98.3541 111.358 97.368 112.344 96.1558 112.344Z" fill="white"/>
<path d="M90.0447 106.302C89.7977 106.055 89.4552 105.913 89.1057 105.913C88.7564 105.913 88.4138 106.055 88.1669 106.302C87.9199 106.549 87.7776 106.892 87.7776 107.241C87.7776 107.59 87.9197 107.933 88.1669 108.18C88.4138 108.428 88.7564 108.569 89.1057 108.569C89.4552 108.569 89.7977 108.428 90.0447 108.18C90.2918 107.933 90.4339 107.59 90.4339 107.241C90.4339 106.892 90.2919 106.549 90.0447 106.302Z" fill="white"/>
<path d="M109.504 74.4266L102.087 58.9601H104.577C105.311 58.9601 105.906 58.3654 105.906 57.632C105.906 56.8986 105.311 56.3039 104.577 56.3039H95.0785C94.3451 56.3039 93.7503 56.8986 93.7503 57.632C93.7503 58.3654 94.3451 58.9601 95.0785 58.9601H97.9517L90.5343 74.4266C90.0305 74.6153 89.6713 75.0998 89.6713 75.6693V76.0069C89.6713 81.7128 94.3133 86.3548 100.019 86.3548C105.725 86.3548 110.367 81.7128 110.367 76.0069V75.6693C110.367 75.0998 110.008 74.6153 109.504 74.4266ZM100.019 60.7918L106.517 74.3412H93.5211L100.019 60.7918ZM100.019 83.6986C96.1136 83.6986 92.8784 80.7726 92.3911 76.9974H107.648C107.16 80.7726 103.925 83.6986 100.019 83.6986Z" fill="white"/>
<path d="M63.4657 74.4266L56.0483 58.9603H58.9215C59.6549 58.9603 60.2497 58.3656 60.2497 57.6322C60.2497 56.8988 59.6549 56.3041 58.9215 56.3041H49.4224C48.689 56.3041 48.0943 56.8988 48.0943 57.6322C48.0943 58.3656 48.689 58.9603 49.4224 58.9603H51.9132L44.4956 74.4267C43.9918 74.6155 43.6326 75.0998 43.6326 75.6695V76.0071C43.6326 81.713 48.2746 86.355 53.9807 86.355C59.6867 86.3549 64.3287 81.7128 64.3287 76.007V75.6693C64.3287 75.0998 63.9695 74.6153 63.4657 74.4266ZM53.9808 60.7918L60.4789 74.3412H47.4825L53.9808 60.7918ZM53.9807 83.6987C50.0748 83.6987 46.8397 80.7727 46.3523 76.9975H61.609C61.1216 80.7727 57.8865 83.6987 53.9807 83.6987Z" fill="white"/>
</svg>
