<svg width="375" height="310" viewBox="0 0 375 310" fill="none" xmlns="http://www.w3.org/2000/svg">
<g clip-path="url(#clip0)">
<path d="M317.9 22.6002L308 34.4002L277.2 43.4002V23.9002L308 14.2002L317.9 22.6002Z" fill="#455A64"/>
<path d="M308 14.2002L304.9 13.7002L275 23.0002L275.4 43.4002H277.2V23.9002L308 14.2002Z" fill="#fff"/>
<path d="M342.5 61.6001L332.2 70.8001L276.7 68.1001L277.7 48.6001L333.1 51.4001L342.5 61.6001Z" fill="#FFC727"/>
<path d="M333.1 51.3999L335.9 52.9999L344.7 62.4999L333.1 72.6999L277.1 69.6999L276.7 68.0999L332.2 70.7999L342.5 61.5999L333.1 51.3999Z" fill="#FFC727"/>
<path opacity="0.1" d="M333.1 51.3999L335.9 52.9999L344.7 62.4999L333.1 72.6999L277.1 69.6999L276.7 68.0999L332.2 70.7999L342.5 61.5999L333.1 51.3999Z" fill="black"/>
<path d="M209 48.6001L219.6 57.5001L275 53.1001L273.4 33.6001L218.1 38.1001L209 48.6001Z" fill="#FF4D43"/>
<path d="M209 48.6001L219.6 57.5001L275 53.1001L274.8 56.4001L220.6 60.7001L210.3 52.2001L209 48.6001Z" fill="#F44238"/>
<path d="M282.1 287H266.9L270.4 6.4C270.4 2.9 272.2 0 274.3 0H274.6C276.7 0 278.4 2.8 278.5 6.4L282.1 287Z" fill="#DDEFF7"/>
<path opacity="0.4" d="M282.1 287H266.9L270.4 6.4C270.4 2.9 272.2 0 274.3 0H274.6C276.7 0 278.4 2.8 278.5 6.4L282.1 287Z" fill="#EFF5FC"/>
<g opacity="0.3">
<g opacity="0.3">
<path opacity="0.3" d="M273.1 10.8003C272.8 21.1003 272.6 31.4003 272.4 41.7003C272.2 52.0003 272.1 62.3003 272 72.6003C272 82.9003 272 93.2003 272.2 103.5L272.4 111.2L272.8 118.9L273.4 126.6C273.6 129.2 273.8 131.7 273.8 134.3C274.1 144.6 273.7 154.9 273.1 165.2C272.5 175.5 271.8 185.8 271.2 196C270.1 216.6 269.6 237.2 271.3 257.7C270.4 247.4 269.9 237.1 269.9 226.8C269.9 216.5 270.3 206.2 270.8 195.9C271.3 185.6 272.1 175.3 272.6 165.1C273.2 154.8 273.6 144.5 273.3 134.2C273.2 131.6 273 129.1 272.8 126.5L272.3 118.8L272 111.1L271.8 103.4C271.6 93.1003 271.6 82.8003 271.7 72.5003C271.8 52.0003 272.4 31.4003 273.1 10.8003Z" fill="black"/>
</g>
<g opacity="0.3">
<path opacity="0.3" d="M273.8 4.90039L274.5 17.2004L275 29.5004C275.3 37.7004 275.6 45.9004 275.7 54.1004C275.8 62.3004 275.8 70.5004 275.7 78.8004C275.6 87.0004 275.3 95.2004 274.5 103.4L274.9 97.2004L275.1 91.0004C275.2 86.9004 275.3 82.8004 275.4 78.7004C275.5 70.5004 275.4 62.3004 275.2 54.1004C275.1 45.9004 274.9 37.7004 274.6 29.5004L274.2 17.2004L273.8 4.90039Z" fill="black"/>
</g>
<g opacity="0.3">
<path opacity="0.3" d="M271.9 227.8C272.5 223.8 272.9 219.8 273.4 215.8C273.9 211.8 274.3 207.8 274.7 203.8C275.5 195.8 276.2 187.7 276.6 179.7C276.9 175.7 277 171.6 277.2 167.6C277.3 163.6 277.4 159.5 277.3 155.5V152.5C277.3 151.5 277.2 150.5 277.2 149.5C277.1 147.5 277.1 145.5 276.9 143.5C276.7 141.5 276.6 139.5 276.4 137.5L275.5 131.5C277.1 139.4 277.6 147.5 277.7 155.6C277.8 159.6 277.7 163.7 277.7 167.7C277.5 171.7 277.4 175.8 277.2 179.8C276.7 187.9 276 195.9 275.1 203.9C274.2 211.8 273.2 219.9 271.9 227.8Z" fill="black"/>
</g>
<g opacity="0.3">
<path opacity="0.3" d="M277.4 90.2002C277 95.0002 276.6 99.7002 276.2 104.5C275.9 109.3 275.6 114 275.5 118.8C275.5 121.2 275.5 123.6 275.9 125.9C276 126.5 276.1 127.1 276.4 127.5C276.5 127.6 276.5 127.7 276.6 127.7C276.6 127.7 276.7 127.7 276.8 127.6C277 127.4 277.1 127.1 277.2 126.9C277.6 125.8 277.8 124.6 277.9 123.4C278.2 121 278.3 118.7 278.2 116.3C278.1 113.9 277.9 111.5 277.4 109.2C278.5 113.8 278.8 118.7 278.3 123.5C278.2 124.7 278 125.9 277.6 127.1C277.5 127.4 277.4 127.7 277.1 128C277 128.1 276.8 128.3 276.5 128.2C276.3 128.1 276.2 127.9 276.1 127.8C275.8 127.2 275.7 126.6 275.5 126C275.1 123.6 275 121.2 275 118.8C275.1 114 275.4 109.2 275.8 104.5C276.2 99.7002 276.7 94.9002 277.4 90.2002Z" fill="black"/>
</g>
<g opacity="0.3">
<path opacity="0.3" d="M278.4 193.2C277.6 202.8 276.8 212.4 275.7 222C275.4 224.4 275.1 226.8 274.8 229.2C274.5 231.6 274 234 273.7 236.3C273.1 241.1 272.8 245.9 272.9 250.7C273 253.1 273.2 255.5 273.6 257.8C273.8 259 274.2 260.1 274.7 261.1C275 261.6 275.4 262 275.9 262.2C276.2 262.3 276.3 262.3 276.5 262.1C276.7 261.9 276.8 261.7 276.9 261.4C277.3 260.3 277.5 259.1 277.7 257.9C277.9 256.7 278 255.5 278 254.3C278.1 251.9 278.2 249.5 278.1 247.1C278 244.7 277.9 242.3 277.5 239.9C277.4 239.3 277.3 238.7 277.1 238.1C276.9 237.5 276.8 236.9 276.4 236.6C276.2 236.5 276 236.6 275.8 236.8C275.6 237 275.5 237.3 275.4 237.6C275.2 238.2 275.1 238.7 275 239.3C274.6 241.7 274.5 244.1 274.5 246.5C274.5 247.7 274.6 248.9 274.7 250.1C274.8 250.7 274.8 251.3 274.9 251.9C275 252.5 275.1 253.1 275.5 253.6C275.1 253.1 275 252.5 274.9 251.9C274.8 251.3 274.7 250.7 274.6 250.1C274.5 248.9 274.4 247.7 274.4 246.5C274.3 244.1 274.4 241.7 274.7 239.3C274.8 238.7 274.9 238.1 275.1 237.5C275.2 237.2 275.3 236.9 275.5 236.7C275.6 236.6 275.7 236.4 275.9 236.4C276.1 236.3 276.3 236.4 276.5 236.5C277 237 277.1 237.6 277.3 238.2C277.5 238.8 277.6 239.4 277.7 240C278.1 242.4 278.2 244.8 278.3 247.2C278.4 249.6 278.4 252 278.2 254.4C278.1 255.6 278 256.8 277.9 258C277.7 259.2 277.6 260.4 277.1 261.6C277 261.9 276.8 262.2 276.6 262.4C276.5 262.5 276.3 262.6 276.1 262.7C275.9 262.7 275.7 262.7 275.6 262.7C274.9 262.5 274.5 262 274.1 261.5C273.5 260.4 273.1 259.2 272.9 258C272.4 255.6 272.2 253.2 272.2 250.8C272.1 246 272.4 241.1 273.1 236.3C273.4 233.9 273.9 231.5 274.2 229.2C274.5 226.8 274.8 224.4 275.1 222C276.5 212.4 277.5 202.8 278.4 193.2Z" fill="black"/>
</g>
<g opacity="0.3">
<path opacity="0.3" d="M271 287C270.7 283.5 270.5 280.1 270.2 276.6L269.6 266.2L269.1 255.8C268.9 252.3 268.8 248.9 268.7 245.4C269 248.9 269.2 252.3 269.5 255.8L270.1 266.2L270.6 276.6C270.8 280.1 270.9 283.6 271 287Z" fill="black"/>
</g>
<g opacity="0.3">
<path opacity="0.3" d="M275 287C275.7 284.2 275.9 281.3 275.7 278.5C275.5 275.7 274.9 272.9 273.7 270.3C272.5 267.7 271.7 264.9 271.2 262.1C270.6 259.3 270.3 256.4 270.1 253.6C270.4 256.4 270.9 259.3 271.5 262.1C272.1 264.9 272.9 267.6 274.1 270.2C275.3 272.8 276 275.7 276.1 278.6C276.3 281.4 275.9 284.3 275 287Z" fill="black"/>
</g>
<g opacity="0.3">
<path opacity="0.3" d="M278.4 202.7C278 209.7 277.9 216.8 278.2 223.8C278.3 227.3 278.5 230.8 279 234.3C279.5 237.8 280 241.3 280.3 244.8C280.6 248.3 280.9 251.8 280.9 255.4C280.9 258.9 280.8 262.5 280 266C279.1 269.4 278.6 272.9 278.3 276.4C278 279.9 277.8 283.4 277.9 287C277.6 280 277.9 272.8 279.6 266C280.3 262.6 280.4 259 280.4 255.5C280.3 252 280.2 248.5 279.9 245C279.6 241.5 279.2 238 278.7 234.5C278.3 231 278.1 227.5 278 223.9C277.7 216.8 277.9 209.8 278.4 202.7Z" fill="black"/>
</g>
<g opacity="0.3">
<path opacity="0.3" d="M275.6 0.200195C275.9 4.4002 276.2 8.7002 276.5 12.9002C276.8 17.2002 277 21.4002 277.1 25.7002C277.3 30.0002 277.4 34.2002 277.5 38.5002C277.5 42.8002 277.5 47.0002 277.2 51.3002C277.3 49.2002 277.3 47.0002 277.2 44.9002C277.2 42.8002 277.1 40.6002 277.1 38.5002C277 34.2002 276.8 30.0002 276.6 25.7002L275.6 0.200195Z" fill="black"/>
</g>
</g>
</g>
<path d="M241.365 144.934C241.365 145.135 239.757 145.736 237.949 147.741C236.14 149.745 234.131 153.153 234.533 157.363V157.564V158.766L233.528 157.964C230.313 155.559 226.496 154.557 223.883 154.356C221.271 154.156 219.463 154.557 219.463 154.356C219.463 154.356 221.07 153.554 223.883 153.554C226.697 153.554 230.715 154.356 234.131 157.163L233.327 157.564V157.363C232.925 152.953 235.136 149.144 237.145 147.139C239.556 145.335 241.365 144.734 241.365 144.934Z" fill="#263238"/>
<path d="M109.551 163.979C109.551 164.179 107.14 163.979 103.523 165.382C99.9066 166.585 95.2851 169.792 92.673 175.004C92.472 175.405 92.2711 176.007 92.0702 176.408L91.6683 177.41L91.0655 176.608C88.2524 171.997 84.0328 168.99 80.8178 167.387C77.6029 165.783 75.3926 165.582 75.3926 165.382C75.3926 165.382 75.9954 165.382 77.0001 165.582C78.0047 165.783 79.4113 166.184 81.0188 166.785C84.4346 168.189 88.8552 171.195 91.8692 176.007H90.8646C91.0655 175.606 91.2664 175.004 91.4674 174.403C92.8739 171.596 94.8832 169.391 96.8926 167.788C98.9019 166.184 101.112 165.182 103.122 164.58C104.93 163.979 106.738 163.778 107.743 163.778C108.949 163.778 109.551 163.979 109.551 163.979Z" fill="#263238"/>
<path d="M110.958 97.0232C110.958 97.2236 106.336 94.8181 98.2991 94.6176C94.2804 94.4171 89.4579 95.0185 84.4346 96.8227C79.4112 98.6269 74.3879 101.634 70.1682 106.044L69.5654 106.645L69.3645 105.844V105.643C67.5561 99.8296 63.7383 95.0185 59.5187 92.2121C55.0981 89.2051 50.2757 88.0023 46.4579 88.0023C42.4393 87.8019 39.2243 88.6037 37.215 89.4056C35.0047 90.2074 34 90.8088 34 90.6083C34 90.6083 34.2009 90.4079 34.8037 90.0069C35.4065 89.606 36.2103 89.2051 37.215 88.8042C39.2243 88.0023 42.6402 87 46.6589 87C50.6776 87 55.7009 88.0023 60.3224 91.2097C64.9439 94.2167 68.9626 99.2283 70.771 105.242V105.443L69.9673 105.242C74.1869 100.632 79.4112 97.4241 84.6355 95.8204C89.8598 94.0162 94.6822 93.6153 98.7009 93.8158C102.72 94.0162 105.935 94.8181 108.145 95.6199C109.15 96.0208 109.953 96.4218 110.556 96.6222C110.757 97.0232 110.958 97.0232 110.958 97.0232Z" fill="#263238"/>
<g clip-path="url(#clip1)">
<path d="M0 258.2V259C67 263.6 255.4 278.8 375 309.8V294.5C280.4 273 133.1 262.9 0 258.2Z" fill="#fff"/>
<path d="M0 238V244.5C93.5 246.9 187 250.9 280 259.6C304.2 261.6 328.3 264.7 352.4 267.4C359.9 268.2 367.5 269.2 375 270.2V257.1C315.6 248.7 247.2 242 179.4 241.8L0 238Z" fill="#F2F7F9"/>
<path d="M351.5 273.4C327.5 270.4 303.5 267.1 279.5 264.9C186.7 255.3 93.3 250.5 0 247.3V253.2V258.3C133.1 262.9 280.4 273 375 294.5V280.3V276.6C367.2 275.5 359.3 274.4 351.5 273.4Z" fill="#F2F7F9"/>
<path d="M279.4 264.9C303.5 267.1 327.5 270.4 351.4 273.4C359.3 274.4 367.1 275.5 374.9 276.6V270.2C367.4 269.2 359.8 268.2 352.3 267.4C328.2 264.7 304.1 261.6 279.9 259.6C187 250.8 93.5 246.9 0 244.5V247.3C93.3 250.5 186.7 255.3 279.4 264.9Z" fill="white"/>
</g>
<defs>
<clipPath id="clip0">
<rect width="135.7" height="287" fill="white" transform="translate(209)"/>
</clipPath>
<clipPath id="clip1">
<rect width="375" height="71.8" fill="white" transform="translate(0 238)"/>
</clipPath>
</defs>
</svg>
