<svg width="29" height="29" viewBox="0 0 29 29" fill="none" xmlns="http://www.w3.org/2000/svg">
<g clip-path="url(#clip0)">
<path d="M14.5 0C8.50425 0 3.625 4.91308 3.625 10.9535C3.625 19.5363 13.4778 28.3983 13.897 28.7704C14.0698 28.9239 14.2849 29 14.5 29C14.7151 29 14.9302 28.9239 15.103 28.7716C15.5223 28.3983 25.375 19.5363 25.375 10.9535C25.375 4.91308 20.4958 0 14.5 0ZM14.5 16.9167C11.1686 16.9167 8.45833 14.2064 8.45833 10.875C8.45833 7.54363 11.1686 4.83333 14.5 4.83333C17.8314 4.83333 20.5417 7.54363 20.5417 10.875C20.5417 14.2064 17.8314 16.9167 14.5 16.9167Z" fill="#e93a41"/>
</g>
<defs>
<clipPath id="clip0">
<rect width="29" height="29" fill="white"/>
</clipPath>
</defs>
</svg>
