<svg width="242" height="73" viewBox="0 0 242 73" fill="none" xmlns="http://www.w3.org/2000/svg">
<path d="M64.3797 17.3923C64.3797 17.3923 66.6395 24.685 58.8272 32.2712C57.0194 34.0324 54.8611 36.0872 52.6567 38.353C52.6567 38.353 43.3686 45.0494 42.6676 60.4878C42.6676 60.4878 37.9821 63.038 31.0184 63.9369C31.0184 63.9369 38.6831 65.1753 49.8804 59.1119C49.8804 59.1119 59.3806 54.2226 62.5719 45.3154L57.8587 46.6914L66.7317 35.9313L69.0284 43.3799L65.837 44.4165C65.837 44.4165 60.5612 67.9273 34.9107 68.285C34.9107 68.285 17.1463 69.3124 5.98584 56.048C12.4238 65.1386 24.3959 70.6242 34.9107 70.6242C54.9441 70.6242 71.1774 54.5803 71.1774 36.2065C71.1682 31.3539 69.591 23.6301 64.3797 17.3923Z" fill="url(#paint0_linear)"/>
<path d="M22.4683 50.4065C22.3115 48.2416 22.1363 45.6823 21.8596 42.967C21.8596 42.967 22.5882 33.1426 12.7191 24.0887C12.7191 24.0887 13.6322 19.5938 16.9158 14.5211C16.9158 14.5211 11.8244 18.86 9.62 29.5926C9.62 29.5926 7.71996 38.9033 11.8429 45.9483L14.3793 41.3984L15.606 53.4244L9.68457 50.223L10.57 48.5902C10.57 48.5902 -2.17684 31.6932 11.8798 14.6586C11.8798 14.6586 21.094 2.42165 36.1006 2.47669C26.4898 1.64193 16.1779 6.44867 10.3302 13.3561C-0.820984 26.5012 0.783902 46.0859 12.9866 56.314C16.224 59.0292 22.2193 62.2857 29.266 62.3407C29.2568 62.3407 23.1601 59.7539 22.4683 50.4065Z" fill="url(#paint1_linear)"/>
<path d="M29.5611 11.76C29.5611 11.76 40.0851 4.19216 52.8596 12.8333C52.8596 12.8333 56.4568 14.9248 60.552 20.1443C60.1831 19.5755 58.3384 15.4018 53.9572 11.9343C44.1065 3.85275 30.382 5.9901 23.3352 13.0351C21.1124 15.1816 18.1793 19.5664 17.7181 24.6116C17.7181 24.6116 20.1531 20.4103 27.2183 20.4837C29.1368 20.502 30.4742 20.4011 32.8447 20.5112C32.8447 20.5112 40.2511 21.7771 47.9066 14.8422C47.9066 14.8422 50.8766 15.7687 54.5014 18.4381C54.5014 18.4381 51.5406 14.5211 43.6085 12.2737C43.6085 12.2737 37.0229 10.2189 31.2582 12.8516L34.3389 15.099L25.3367 15.2366L28.03 11.0078L29.5611 11.76Z" fill="url(#paint2_linear)"/>
<path d="M17.1372 29.079C16.7959 27.9324 16.1134 25.3914 15.809 22.4652C15.4308 18.8601 15.5508 13.9158 18.2625 10.7327C18.3455 10.7052 18.5392 10.6501 18.862 10.6501C20.1625 10.6501 23.1693 11.4849 28.8141 17.0071L17.1372 29.079Z" fill="#35B975"/>
<path d="M18.8527 11.0629C19.8304 11.0629 22.662 11.6591 28.2145 17.0163L17.34 28.2717C16.4177 24.896 14.4992 15.9338 18.493 11.0904C18.5668 11.0812 18.6867 11.0629 18.8527 11.0629ZM18.8527 10.2373C18.2624 10.2373 17.9949 10.4024 17.9949 10.4024C12.4516 16.7778 16.9434 29.8679 16.9434 29.8679L29.3767 17.0071C23.4552 11.1179 20.2454 10.2373 18.8527 10.2373Z" fill="#083629"/>
<path d="M17.174 29.2166C16.8512 28.1433 16.1226 25.5198 15.7997 22.4651C15.4216 18.9059 15.5415 14.0442 18.1517 10.8611C18.5945 10.9895 19.7105 11.3931 21.1586 12.5398C22.8926 13.9066 25.466 16.6402 27.984 21.9056L17.174 29.2166Z" fill="#C4FF8B"/>
<path d="M18.2993 11.338C18.8158 11.5215 19.775 11.9526 20.9741 12.9158C22.6159 14.2367 25.0509 16.8327 27.4582 21.7587L17.423 28.5469C17.0633 27.281 16.4915 24.9968 16.224 22.4008C15.9842 20.1167 16.0211 18.0436 16.3254 16.2456C16.6483 14.2734 17.3216 12.6222 18.2993 11.338ZM17.9949 10.4023C12.4516 16.7777 16.9434 29.8678 16.9434 29.8678L28.5004 22.0431C23.4275 11.2096 17.9949 10.4023 17.9949 10.4023Z" fill="#083629"/>
<path opacity="0.15" fill-rule="evenodd" clip-rule="evenodd" d="M18.1149 11.1913C18.1149 11.1913 23.1878 14.1726 24.6728 20.3094L26.7665 19.1811C26.7665 19.1811 21.6382 10.6134 18.1149 11.1913Z" fill="black"/>
<path d="M18.2347 11.127C18.7328 11.2921 19.7566 11.7141 21.0571 12.7507C22.7358 14.09 25.2353 16.7502 27.6888 21.8321L17.3031 28.8587C16.9526 27.6571 16.3254 25.2445 16.0303 22.465C15.7905 20.1626 15.8182 18.0711 16.1225 16.2456C16.4822 14.1633 17.1832 12.448 18.2347 11.127ZM17.9949 10.4023C12.4516 16.7777 16.9434 29.8678 16.9434 29.8678L28.5004 22.0431C23.4275 11.2096 17.9949 10.4023 17.9949 10.4023Z" fill="#083629"/>
<path d="M43.5996 17.007C49.2352 11.4756 52.242 10.6409 53.5425 10.6409C53.8653 10.6409 54.059 10.6959 54.1421 10.7234C56.8538 13.9065 56.9737 18.8509 56.5955 22.4559C56.2911 25.3821 55.6086 27.9231 55.2673 29.0698L43.5996 17.007Z" fill="#35B975"/>
<path d="M53.5424 11.0629C53.7084 11.0629 53.8284 11.0812 53.9021 11.0996C54.9905 12.4205 55.7192 14.1451 56.0789 16.2549C56.3833 18.0528 56.4201 20.126 56.1803 22.4101C55.9313 24.8226 55.4148 26.9691 55.0551 28.2809L44.1806 17.0163C49.7331 11.65 52.5647 11.0629 53.5424 11.0629ZM53.5424 10.2373C52.1497 10.2373 48.9399 11.1179 43.0184 17.0071L55.4517 29.877C55.4517 29.877 59.9435 16.7778 54.4002 10.4024C54.4002 10.3932 54.1419 10.2373 53.5424 10.2373Z" fill="#083629"/>
<path d="M54.4001 10.3931C54.4001 10.3931 48.9674 11.2003 43.8945 22.043L55.4516 29.8677C55.4516 29.8677 59.9434 16.7684 54.4001 10.3931Z" fill="#C4FF8B"/>
<path opacity="0.15" fill-rule="evenodd" clip-rule="evenodd" d="M54.2895 11.1913C54.2895 11.1913 49.2258 14.1726 47.7408 20.3094L45.6471 19.1811C45.6379 19.1811 50.7661 10.6134 54.2895 11.1913Z" fill="black"/>
<path d="M54.0957 11.3379C55.0734 12.6221 55.7467 14.2733 56.0788 16.2455C56.3831 18.0435 56.42 20.1166 56.1802 22.4007C55.9127 24.9967 55.3409 27.2809 54.9812 28.5468L44.946 21.7494C47.3533 16.8143 49.7883 14.2183 51.4301 12.8973C52.6292 11.9525 53.5792 11.5214 54.0957 11.3379ZM54.4001 10.3931C54.4001 10.3931 48.9674 11.2003 43.8945 22.043L55.4516 29.8677C55.4516 29.8677 59.9434 16.7684 54.4001 10.3931Z" fill="#083629"/>
<path d="M54.6859 23.8318C48.9489 15.5576 38.2589 15.631 36.2021 15.7228C34.1452 15.631 23.4552 15.5576 17.7182 23.8318C17.7182 23.8318 10.2564 34.6195 11.105 44.8108C11.105 44.8108 11.271 48.3517 16.7036 52.397C16.7036 52.397 27.1169 61.0198 36.2021 60.5061C45.2872 61.0198 55.7005 52.397 55.7005 52.397C61.1331 48.3517 61.2992 44.8108 61.2992 44.8108C62.1477 34.6195 54.6859 23.8318 54.6859 23.8318Z" fill="#35B975"/>
<path d="M60.8473 40.5544C60.8473 40.5544 60.8288 39.1418 60.4507 38.0043C59.2516 37.4906 57.536 37.0962 55.101 37.0778C55.101 37.0778 48.9767 37.4264 43.6363 39.9949C43.6363 39.9949 43.3319 36.1421 36.156 36.2064C28.9894 36.133 28.685 39.9857 28.685 39.9857C23.3538 37.4264 17.2386 37.0778 17.2386 37.0778C14.8498 37.0962 13.1619 37.4723 11.9628 37.9768C11.8798 38.8024 11.557 40.4719 11.557 40.4719C11.0405 43.8659 11.0405 46.9114 15.4862 50.9843C15.4862 50.9843 25.3922 60.1391 36.1099 60.1942V60.24C45.5178 60.8088 56.6414 51.2503 56.6414 51.2503C61.1055 47.416 61.4099 44.9484 60.8473 40.5544Z" fill="#C4FF8B"/>
<path opacity="0.15" fill-rule="evenodd" clip-rule="evenodd" d="M60.8472 44.9851C60.2385 49.4616 53.2471 53.8464 53.2471 53.8464C42.1973 61.2308 36.3773 60.185 36.3773 60.185C23.6213 60.4052 13.1342 48.2874 13.1342 48.2874C24.8849 59.1393 36.2851 58.6164 36.2851 58.6164C43.1013 58.7448 52.5369 52.2778 52.5369 52.2778C52.5369 52.2778 58.6982 48.104 58.9195 44.8108C58.9195 44.8108 60.0079 33.8214 55.3408 25.7031C55.3408 25.694 61.6773 34.4268 60.8472 44.9851Z" fill="black"/>
<path d="M37.1059 16.5299C38.637 16.5299 41.69 16.695 44.9459 17.7683C48.8382 19.0617 51.8819 21.2541 53.9941 24.2996C54.0126 24.3271 55.8388 26.9782 57.5451 30.8309C58.5505 33.0875 59.3068 35.3074 59.8141 37.4172C60.4321 40.0407 60.6535 42.4991 60.469 44.7374V44.7466V44.7649C60.4598 44.8291 60.3768 45.618 59.7403 46.8197C59.1131 47.9847 57.8218 49.7826 55.2024 51.7273L55.1839 51.7365L55.1655 51.7457C55.1378 51.764 52.7028 53.773 49.2348 55.7452C46.0711 57.5431 41.3856 59.6896 36.986 59.6896C36.737 59.6896 36.4879 59.6805 36.2481 59.6713H36.202H36.1559C35.9161 59.6805 35.667 59.6896 35.418 59.6896C31.0184 59.6896 26.3329 57.5431 23.1692 55.7452C19.7012 53.773 17.2662 51.764 17.2385 51.7457L17.2201 51.7365L17.2016 51.7273C14.5822 49.7826 13.2909 47.9847 12.6637 46.8197C12.0273 45.6272 11.935 44.8475 11.935 44.7649V44.7374C11.7505 42.5083 11.9719 40.0499 12.5899 37.4356C13.088 35.3257 13.8443 33.115 14.8496 30.8584C16.556 26.9965 18.3915 24.3271 18.4099 24.2996C20.5221 21.2541 23.5566 19.0617 27.4581 17.7683C30.714 16.6859 33.767 16.5299 35.2981 16.5299C35.6855 16.5299 35.9806 16.5391 36.1651 16.5483H36.202H36.2389C36.4234 16.5391 36.7185 16.5299 37.1059 16.5299ZM37.1059 15.7043C36.7185 15.7043 36.4141 15.7135 36.202 15.7227C35.9899 15.7135 35.6763 15.7043 35.2981 15.7043C31.9776 15.7043 22.8648 16.4199 17.7274 23.8318C17.7274 23.8318 10.2656 34.6194 11.1141 44.8108C11.1141 44.8108 11.2801 48.3516 16.7128 52.397C16.7128 52.397 26.5358 60.5336 35.4272 60.5336C35.6947 60.5336 35.953 60.5244 36.2112 60.5152C36.4695 60.5336 36.737 60.5336 36.9952 60.5336C45.8774 60.5336 55.7097 52.397 55.7097 52.397C61.1423 48.3516 61.3083 44.8108 61.3083 44.8108C62.1569 34.6194 54.6951 23.8318 54.6951 23.8318C49.5484 16.4199 40.4264 15.7043 37.1059 15.7043Z" fill="#083629"/>
<path d="M36.4973 43.2056H35.7871V47.627H36.4973V43.2056Z" fill="#073629"/>
<path d="M42.4189 47.205C42.3175 46.6729 41.9116 46.8564 41.9116 46.8564C40.8233 47.1591 39.0708 47.26 39.0708 47.26C37.1154 47.26 36.3222 45.6272 36.1285 45.141V45.0034C36.1285 45.0034 36.1193 45.0309 36.1008 45.0768C36.0824 45.0309 36.0732 45.0034 36.0732 45.0034V45.141C35.8795 45.6364 35.0955 47.26 33.1401 47.26C33.1401 47.26 31.3968 47.1591 30.3085 46.8564C30.3085 46.8564 29.9026 46.6821 29.8012 47.205C29.8012 47.205 28.8881 51.6081 33.1401 53.0391H39.0616C43.332 51.6081 42.4189 47.205 42.4189 47.205Z" fill="black"/>
<path d="M36.027 46.2236L36.11 46.4529L36.1931 46.2236C36.7003 46.9299 37.595 47.728 39.0708 47.728H39.08H39.0892C39.163 47.728 40.8232 47.6271 41.9485 47.3335C41.9762 47.5078 42.1238 48.4527 41.8655 49.5167C41.5058 51.0028 40.5281 52.0394 38.9878 52.5806H36.1285H36.0824H33.2323C31.692 52.0394 30.7235 51.012 30.3638 49.5167C30.1056 48.4618 30.2439 47.5078 30.2808 47.3335C31.4061 47.6271 33.0571 47.728 33.1309 47.728H33.1401H33.1493C34.6251 47.728 35.5197 46.9299 36.027 46.2236ZM36.1285 44.9944C36.1285 44.9944 36.1193 45.0219 36.1008 45.0678C36.0824 45.0219 36.0731 44.9944 36.0731 44.9944V45.132C35.8795 45.6273 35.0955 47.251 33.1401 47.251C33.1401 47.251 31.3968 47.1501 30.3085 46.8474C30.3085 46.8474 30.2439 46.8198 30.1609 46.8198C30.0318 46.8198 29.8657 46.8841 29.8012 47.1959C29.8012 47.1959 28.8881 51.5991 33.1401 53.0301H36.0731H36.1193H39.0616C43.3228 51.5991 42.4097 47.1959 42.4097 47.1959C42.3451 46.8749 42.1791 46.8198 42.05 46.8198C41.967 46.8198 41.9024 46.8474 41.9024 46.8474C40.814 47.1501 39.0616 47.251 39.0616 47.251C37.1062 47.251 36.313 45.6182 36.1193 45.132V44.9944H36.1285Z" fill="#073629"/>
<path d="M36.1099 46.0676L35.8885 46.4621H36.3221L36.1099 46.0676Z" fill="black"/>
<path d="M36.0362 56.8186C33.0754 56.8186 32.2269 54.7729 32.19 54.6812L32.1808 54.6629C31.7196 53.6538 32.1531 52.2962 32.2822 51.9293C32.9555 51.489 33.6012 51.2688 34.1915 51.2688C35.2153 51.2688 35.7779 51.9384 35.8794 52.076L36.1561 52.443L36.442 52.076C36.5435 51.9476 37.1153 51.2871 38.1207 51.2871C38.711 51.2871 39.3474 51.5073 40.0299 51.9476C40.1683 52.3145 40.6018 53.663 40.1314 54.672V54.6812V54.6904C40.0945 54.7729 39.2828 56.7177 36.4881 56.8186C36.4881 56.8186 36.0731 56.8186 36.0362 56.8186Z" fill="#E46767"/>
<path d="M34.1914 51.6265C35.0676 51.6265 35.5472 52.2228 35.5933 52.2961L36.1468 53.03L36.7186 52.3053C36.8016 52.1952 37.2812 51.6448 38.1206 51.6448C38.6094 51.6448 39.1536 51.8283 39.7347 52.1861C39.9192 52.7181 40.1497 53.7914 39.8085 54.5344L39.7993 54.5436L39.79 54.5711C39.7439 54.6812 39.0153 56.3232 36.6079 56.4699L36.1099 56.4791C36.0822 56.4791 36.0545 56.4791 36.0269 56.4791C33.3613 56.4791 32.5588 54.6903 32.5127 54.5711V54.5619L32.5035 54.5344C32.1622 53.7822 32.402 52.7089 32.5773 52.1769C33.1676 51.81 33.7025 51.6265 34.1914 51.6265ZM34.1914 50.9202C33.5919 50.9202 32.8632 51.122 31.9962 51.6999C31.9962 51.6999 31.2491 53.4795 31.8578 54.8096C31.8578 54.8096 32.771 57.1671 36.0361 57.1671C36.0637 57.1671 36.1006 57.1671 36.1375 57.1671C36.1837 57.1671 36.2298 57.1671 36.2851 57.1671C39.5502 57.1671 40.4726 54.8096 40.4726 54.8096C41.0813 53.4795 40.3342 51.7091 40.3342 51.7091C39.4672 51.1312 38.7293 50.9293 38.1298 50.9293C36.9676 50.9293 36.3128 51.6815 36.1652 51.8558C36.0545 51.7182 35.3904 50.9202 34.1914 50.9202Z" fill="#8B2D30"/>
<path d="M36.5435 52.1401H35.8333V55.8094H36.5435V52.1401Z" fill="#8B2D30"/>
<path d="M38.4804 52.8007C37.4197 52.3512 36.7741 53.7455 36.7741 53.7455C36.4051 54.4243 36.2022 54.5895 36.2022 54.5895C36.2022 54.5895 35.9993 54.4243 35.6396 53.7455C35.6396 53.7455 35.0031 52.3512 33.9424 52.8007C33.9424 52.8007 33.0201 53.1217 33.6104 54.6353C33.6104 54.6353 34.173 56.2865 36.2022 56.2865C38.2406 56.2865 38.8032 54.6445 38.8032 54.6445C39.4027 53.1217 38.4804 52.8007 38.4804 52.8007Z" fill="#FFAAAE"/>
<path d="M36.3036 38.1694C33.9239 38.1694 31.9962 38.9583 31.9962 39.9307C31.9962 41.6552 35.04 43.6733 36.156 43.6733C37.2444 43.6733 40.6017 41.6644 40.6017 39.9307C40.6109 38.9583 38.6832 38.1694 36.3036 38.1694Z" fill="#000709"/>
<path d="M36.2576 40.6738C38.0864 40.6738 39.5689 40.1768 39.5689 39.5638C39.5689 38.9508 38.0864 38.4539 36.2576 38.4539C34.4289 38.4539 32.9464 38.9508 32.9464 39.5638C32.9464 40.1768 34.4289 40.6738 36.2576 40.6738Z" fill="#808080"/>
<path d="M24.7189 22.3641C24.7189 22.3641 27.5597 21.5661 29.5428 23.1622C29.5428 23.1622 27.7718 20.3185 24.7189 22.3641Z" fill="#003323"/>
<path d="M42.7415 23.1623C44.7245 21.5478 47.5653 22.355 47.5653 22.355C44.5124 20.3002 42.7415 23.1623 42.7415 23.1623Z" fill="#003323"/>
<path d="M29.5613 32.3813C29.3676 28.3451 26.6743 27.2535 26.6743 27.2535C23.3908 26.1986 21.3339 29.3083 21.3339 29.3083C19.2402 32.0786 20.4577 35.0232 20.4577 35.0232C25.9088 34.7113 28.7404 35.9589 28.7404 35.9589C29.755 34.8581 29.5613 32.3813 29.5613 32.3813Z" fill="#23A662"/>
<path d="M28.6482 32.1978C28.1686 28.611 25.8443 28.2441 25.8443 28.2441C23.1233 27.7671 21.8044 30.5007 21.8044 30.5007C20.7714 32.5738 21.7122 34.4085 21.7122 34.4085C26.0195 34.1058 28.3069 35.3533 28.3069 35.3533C28.971 34.5002 28.6482 32.1978 28.6482 32.1978Z" fill="black"/>
<path d="M22.7576 31.9448C23.0157 31.7728 23.1331 31.4969 23.0197 31.3285C22.9063 31.1602 22.6051 31.1631 22.347 31.3351C22.0888 31.5071 21.9714 31.783 22.0848 31.9513C22.1982 32.1197 22.4994 32.1168 22.7576 31.9448Z" fill="white"/>
<path d="M26.0656 29.9411C25.9088 29.4825 25.4292 29.6567 25.4292 29.6567C25.1341 29.7576 24.8666 29.7485 24.8666 29.7485C25.4292 29.5467 25.1525 29.088 25.1525 29.088C24.8297 28.6385 24.2486 28.9963 24.2486 28.9963C23.4093 29.51 23.52 30.6383 23.52 30.6383C24.2763 30.9043 25.2355 30.7759 25.2355 30.7759C26.2501 30.6108 26.0656 29.9411 26.0656 29.9411Z" fill="white"/>
<path d="M51.0151 29.299C51.0151 29.299 48.9583 26.1893 45.684 27.2443C45.684 27.2443 42.9907 28.3359 42.797 32.3812C42.797 32.3812 42.6033 34.858 43.6179 35.9679C43.6179 35.9679 46.4403 34.7204 51.8914 35.0323C51.8914 35.0231 53.1089 32.0693 51.0151 29.299Z" fill="#23A662"/>
<path d="M50.5446 30.4914C50.5446 30.4914 49.2257 27.7486 46.5048 28.2256C46.5048 28.2256 44.1897 28.5834 43.7101 32.1884C43.7101 32.1884 43.3872 34.5001 44.0421 35.344C44.0421 35.344 46.3295 34.0965 50.6277 34.3992C50.6369 34.4083 51.5777 32.5645 50.5446 30.4914Z" fill="black"/>
<path d="M45.2781 31.2989C45.1398 31.143 44.8354 31.1705 44.5864 31.3539C44.3373 31.5374 44.2543 31.8126 44.3834 31.9685C44.5218 32.1245 44.8262 32.097 45.0752 31.9135C45.3242 31.73 45.4165 31.4548 45.2781 31.2989Z" fill="white"/>
<path d="M48.3495 29.9411C48.1927 29.4825 47.713 29.6567 47.713 29.6567C47.4179 29.7576 47.1504 29.7485 47.1504 29.7485C47.713 29.5467 47.4363 29.088 47.4363 29.088C47.1135 28.6385 46.5324 28.9963 46.5324 28.9963C45.6931 29.51 45.8038 30.6383 45.8038 30.6383C46.5601 30.9043 47.5193 30.7759 47.5193 30.7759C48.5247 30.6108 48.3495 29.9411 48.3495 29.9411Z" fill="white"/>
<path d="M94.702 34.43H97.852V41H95.386V40.226C94.534 40.91 93.406 41.252 92.002 41.252C90.826 41.252 89.752 41 88.78 40.496C87.808 39.992 87.034 39.26 86.458 38.3C85.894 37.328 85.612 36.17 85.612 34.826C85.612 33.53 85.912 32.378 86.512 31.37C87.112 30.35 87.946 29.558 89.014 28.994C90.082 28.43 91.288 28.148 92.632 28.148C93.808 28.148 94.864 28.346 95.8 28.742C96.736 29.138 97.516 29.708 98.14 30.452L95.872 32.504C95.02 31.568 94 31.1 92.812 31.1C91.72 31.1 90.844 31.436 90.184 32.108C89.536 32.768 89.212 33.668 89.212 34.808C89.212 35.96 89.518 36.842 90.13 37.454C90.742 38.066 91.516 38.372 92.452 38.372C93.352 38.372 94.102 38.132 94.702 37.652V34.43ZM103.208 32.414C103.556 31.97 104.006 31.64 104.558 31.424C105.122 31.196 105.764 31.082 106.484 31.082V34.16C106.172 34.124 105.914 34.106 105.71 34.106C104.978 34.106 104.402 34.304 103.982 34.7C103.574 35.096 103.37 35.702 103.37 36.518V41H99.9496V31.244H103.208V32.414ZM113.027 38.552C113.495 38.552 113.897 38.486 114.233 38.354C114.581 38.222 114.929 38.006 115.277 37.706L117.059 39.578C116.135 40.634 114.755 41.162 112.919 41.162C111.779 41.162 110.777 40.946 109.913 40.514C109.049 40.082 108.377 39.482 107.897 38.714C107.429 37.946 107.195 37.076 107.195 36.104C107.195 35.144 107.429 34.286 107.897 33.53C108.365 32.762 109.007 32.162 109.823 31.73C110.651 31.298 111.575 31.082 112.595 31.082C113.543 31.082 114.407 31.28 115.187 31.676C115.979 32.06 116.609 32.63 117.077 33.386C117.545 34.13 117.779 35.018 117.779 36.05L110.813 37.382C111.185 38.162 111.923 38.552 113.027 38.552ZM112.613 33.512C112.025 33.512 111.545 33.698 111.173 34.07C110.801 34.43 110.591 34.952 110.543 35.636L114.503 34.862C114.383 34.454 114.155 34.13 113.819 33.89C113.483 33.638 113.081 33.512 112.613 33.512ZM124.576 38.552C125.044 38.552 125.446 38.486 125.782 38.354C126.13 38.222 126.478 38.006 126.826 37.706L128.608 39.578C127.684 40.634 126.304 41.162 124.468 41.162C123.328 41.162 122.326 40.946 121.462 40.514C120.598 40.082 119.926 39.482 119.446 38.714C118.978 37.946 118.744 37.076 118.744 36.104C118.744 35.144 118.978 34.286 119.446 33.53C119.914 32.762 120.556 32.162 121.372 31.73C122.2 31.298 123.124 31.082 124.144 31.082C125.092 31.082 125.956 31.28 126.736 31.676C127.528 32.06 128.158 32.63 128.626 33.386C129.094 34.13 129.328 35.018 129.328 36.05L122.362 37.382C122.734 38.162 123.472 38.552 124.576 38.552ZM124.162 33.512C123.574 33.512 123.094 33.698 122.722 34.07C122.35 34.43 122.14 34.952 122.092 35.636L126.052 34.862C125.932 34.454 125.704 34.13 125.368 33.89C125.032 33.638 124.63 33.512 124.162 33.512ZM137.259 31.082C138.471 31.082 139.443 31.442 140.175 32.162C140.919 32.882 141.291 33.968 141.291 35.42V41H137.871V35.978C137.871 34.646 137.337 33.98 136.269 33.98C135.681 33.98 135.207 34.172 134.847 34.556C134.499 34.94 134.325 35.516 134.325 36.284V41H130.905V31.244H134.163V32.306C134.547 31.91 135.003 31.61 135.531 31.406C136.059 31.19 136.635 31.082 137.259 31.082ZM153.266 41.252C152.246 41.252 151.256 41.126 150.296 40.874C149.336 40.622 148.556 40.286 147.956 39.866L149.126 37.238C149.69 37.61 150.344 37.91 151.088 38.138C151.832 38.366 152.564 38.48 153.284 38.48C154.652 38.48 155.336 38.138 155.336 37.454C155.336 37.094 155.138 36.83 154.742 36.662C154.358 36.482 153.734 36.296 152.87 36.104C151.922 35.9 151.13 35.684 150.494 35.456C149.858 35.216 149.312 34.838 148.856 34.322C148.4 33.806 148.172 33.11 148.172 32.234C148.172 31.466 148.382 30.776 148.802 30.164C149.222 29.54 149.846 29.048 150.674 28.688C151.514 28.328 152.54 28.148 153.752 28.148C154.58 28.148 155.396 28.244 156.2 28.436C157.004 28.616 157.712 28.886 158.324 29.246L157.226 31.892C156.026 31.244 154.862 30.92 153.734 30.92C153.026 30.92 152.51 31.028 152.186 31.244C151.862 31.448 151.7 31.718 151.7 32.054C151.7 32.39 151.892 32.642 152.276 32.81C152.66 32.978 153.278 33.152 154.13 33.332C155.09 33.536 155.882 33.758 156.506 33.998C157.142 34.226 157.688 34.598 158.144 35.114C158.612 35.618 158.846 36.308 158.846 37.184C158.846 37.94 158.636 38.624 158.216 39.236C157.796 39.848 157.166 40.34 156.326 40.712C155.486 41.072 154.466 41.252 153.266 41.252ZM166.684 31.082C167.896 31.082 168.868 31.442 169.6 32.162C170.344 32.882 170.716 33.968 170.716 35.42V41H167.296V35.978C167.296 34.646 166.762 33.98 165.694 33.98C165.106 33.98 164.632 34.172 164.272 34.556C163.924 34.94 163.75 35.516 163.75 36.284V41H160.33V27.644H163.75V32.144C164.122 31.796 164.56 31.532 165.064 31.352C165.568 31.172 166.108 31.082 166.684 31.082ZM172.864 31.244H176.284V41H172.864V31.244ZM174.574 30.164C173.95 30.164 173.446 29.99 173.062 29.642C172.678 29.294 172.486 28.862 172.486 28.346C172.486 27.83 172.678 27.398 173.062 27.05C173.446 26.702 173.95 26.528 174.574 26.528C175.198 26.528 175.702 26.696 176.086 27.032C176.47 27.356 176.662 27.776 176.662 28.292C176.662 28.832 176.47 29.282 176.086 29.642C175.702 29.99 175.198 30.164 174.574 30.164ZM184.644 31.082C185.532 31.082 186.336 31.286 187.056 31.694C187.788 32.102 188.364 32.69 188.784 33.458C189.216 34.214 189.432 35.096 189.432 36.104C189.432 37.112 189.216 38 188.784 38.768C188.364 39.536 187.788 40.13 187.056 40.55C186.336 40.958 185.532 41.162 184.644 41.162C183.36 41.162 182.4 40.784 181.764 40.028V41H178.506V27.644H181.926V32.09C182.586 31.418 183.492 31.082 184.644 31.082ZM183.924 38.444C184.524 38.444 185.016 38.24 185.4 37.832C185.784 37.412 185.976 36.836 185.976 36.104C185.976 35.384 185.784 34.82 185.4 34.412C185.016 34.004 184.524 33.8 183.924 33.8C183.324 33.8 182.832 34.004 182.448 34.412C182.064 34.82 181.872 35.384 181.872 36.104C181.872 36.836 182.064 37.412 182.448 37.832C182.832 38.24 183.324 38.444 183.924 38.444ZM201.336 31.244V41H198.078V40.028C197.442 40.784 196.482 41.162 195.198 41.162C194.31 41.162 193.5 40.958 192.768 40.55C192.048 40.13 191.472 39.536 191.04 38.768C190.62 38 190.41 37.112 190.41 36.104C190.41 35.096 190.62 34.214 191.04 33.458C191.472 32.69 192.048 32.102 192.768 31.694C193.5 31.286 194.31 31.082 195.198 31.082C196.35 31.082 197.256 31.418 197.916 32.09V31.244H201.336ZM195.918 38.444C196.518 38.444 197.01 38.24 197.394 37.832C197.778 37.412 197.97 36.836 197.97 36.104C197.97 35.384 197.778 34.82 197.394 34.412C197.01 34.004 196.518 33.8 195.918 33.8C195.318 33.8 194.826 34.004 194.442 34.412C194.058 34.82 193.866 35.384 193.866 36.104C193.866 36.836 194.058 37.412 194.442 37.832C194.826 38.24 195.318 38.444 195.918 38.444ZM213.96 31.154V38.246H215.994V41H208.344V38.246H210.396V31.154H208.344V28.4H215.994V31.154H213.96ZM224.112 31.082C225.324 31.082 226.296 31.442 227.028 32.162C227.772 32.882 228.144 33.968 228.144 35.42V41H224.724V35.978C224.724 34.646 224.19 33.98 223.122 33.98C222.534 33.98 222.06 34.172 221.7 34.556C221.352 34.94 221.178 35.516 221.178 36.284V41H217.758V31.244H221.016V32.306C221.4 31.91 221.856 31.61 222.384 31.406C222.912 31.19 223.488 31.082 224.112 31.082ZM240.551 31.244V41H237.293V39.956C236.933 40.352 236.501 40.652 235.997 40.856C235.493 41.06 234.959 41.162 234.395 41.162C233.135 41.162 232.127 40.79 231.371 40.046C230.627 39.302 230.255 38.186 230.255 36.698V31.244H233.675V36.14C233.675 36.872 233.813 37.406 234.089 37.742C234.365 38.078 234.767 38.246 235.295 38.246C235.835 38.246 236.273 38.06 236.609 37.688C236.957 37.304 237.131 36.722 237.131 35.942V31.244H240.551Z" fill="#fff"/>
<defs>
<linearGradient id="paint0_linear" x1="34.817" y1="71.004" x2="43.7732" y2="14.1464" gradientUnits="userSpaceOnUse">
<stop stop-color="#32B875"/>
<stop offset="1" stop-color="#78C940"/>
</linearGradient>
<linearGradient id="paint1_linear" x1="13.9176" y1="60.1862" x2="23.325" y2="0.464269" gradientUnits="userSpaceOnUse">
<stop stop-color="#39B971"/>
<stop offset="1" stop-color="#78C940"/>
</linearGradient>
<linearGradient id="paint2_linear" x1="38.2469" y1="27.8453" x2="41.5615" y2="6.80265" gradientUnits="userSpaceOnUse">
<stop stop-color="#69C54B"/>
<stop offset="1" stop-color="#7DCA2D"/>
</linearGradient>
</defs>
</svg>
