<svg width="101" height="100" viewBox="0 0 101 100" fill="none" xmlns="http://www.w3.org/2000/svg">
<path d="M87.8699 23.8252C87.8699 23.8252 90.9541 33.8151 80.2914 44.2072C77.824 46.6199 74.8782 49.4346 71.8695 52.5384C71.8695 52.5384 59.1926 61.7116 58.2358 82.8601C58.2358 82.8601 51.8407 86.3535 42.3361 87.5849C42.3361 87.5849 52.7974 89.2813 68.0803 80.9752C68.0803 80.9752 81.0467 74.2776 85.4025 62.076L78.9696 63.9609L91.08 49.221L94.2146 59.4246L89.8589 60.8445C89.8589 60.8445 82.6581 93.0511 47.6486 93.5412C47.6486 93.5412 23.4026 94.9486 8.1701 76.7782C16.9571 89.2311 33.2974 96.7455 47.6486 96.7455C74.9915 96.7455 97.1478 74.7676 97.1478 49.598C97.1352 42.9506 94.9825 32.3701 87.8699 23.8252Z" fill="url(#paint0_linear)"/>
<path d="M30.6663 69.0501C30.4523 66.0845 30.2131 62.5786 29.8355 58.8591C29.8355 58.8591 30.83 45.4009 17.36 32.9983C17.36 32.9983 18.6062 26.841 23.0879 19.892C23.0879 19.892 16.1388 25.8357 13.1301 40.5379C13.1301 40.5379 10.5368 53.2923 16.164 62.943L19.6259 56.7103L21.3003 73.1843L13.2182 68.7987L14.4268 66.562C14.4268 66.562 -2.97097 43.4155 16.2144 20.0805C16.2144 20.0805 28.7906 3.31746 49.2726 3.39285C36.1551 2.24935 22.0808 8.83392 14.0995 18.2961C-1.12042 36.3031 1.07003 63.1315 17.725 77.1425C22.1437 80.8621 30.3264 85.323 39.9443 85.3984C39.9317 85.3984 31.6105 81.8548 30.6663 69.0501Z" fill="url(#paint1_linear)"/>
<path d="M40.3471 16.1096C40.3471 16.1096 54.7109 5.74268 72.1464 17.5798C72.1464 17.5798 77.0561 20.4449 82.6455 27.5949C82.1419 26.8158 79.6242 21.0983 73.6445 16.3484C60.1996 5.27774 41.4675 8.20561 31.8497 17.8563C28.8158 20.7967 24.8125 26.8032 24.1831 33.7145C24.1831 33.7145 27.5065 27.9593 37.1495 28.0598C39.768 28.085 41.5934 27.9467 44.8287 28.0975C44.8287 28.0975 54.9375 29.8316 65.3862 20.3318C65.3862 20.3318 69.4398 21.6009 74.3872 25.2576C74.3872 25.2576 70.3462 19.892 59.5199 16.8133C59.5199 16.8133 50.5314 13.9985 42.6634 17.605L46.8681 20.6836L34.5814 20.8721L38.2574 15.0792L40.3471 16.1096Z" fill="url(#paint2_linear)"/>
<path d="M23.39 39.8341C22.9242 38.2634 21.9926 34.7826 21.5772 30.7741C21.0611 25.8357 21.2247 19.0626 24.9258 14.7022C25.0391 14.6645 25.3035 14.5891 25.7441 14.5891C27.5191 14.5891 31.6231 15.7326 39.3274 23.2973L23.39 39.8341Z" fill="#35B975"/>
<path d="M25.7315 15.1546C27.0659 15.1546 30.9307 15.9714 38.5092 23.3099L23.667 38.7284C22.4081 34.1041 19.7896 21.8272 25.2406 15.1923C25.3413 15.1798 25.5049 15.1546 25.7315 15.1546ZM25.7315 14.0237C24.9258 14.0237 24.5608 14.2499 24.5608 14.2499C16.9949 22.9832 23.1256 40.9149 23.1256 40.9149L40.0954 23.2974C32.0134 15.23 27.6324 14.0237 25.7315 14.0237Z" fill="#083629"/>
<path d="M23.4404 40.0227C22.9998 38.5525 22.0053 34.9586 21.5647 30.7741C21.0485 25.8985 21.2122 19.2386 24.7748 14.8782C25.3791 15.0541 26.9023 15.607 28.8787 17.1777C31.2454 19.0501 34.7577 22.7947 38.1945 30.0076L23.4404 40.0227Z" fill="#C4FF8B"/>
<path d="M24.9762 15.5315C25.6812 15.7828 26.9904 16.3734 28.627 17.6928C30.8678 19.5023 34.1912 23.0585 37.4769 29.8064L23.7803 39.1053C23.2893 37.3712 22.5088 34.2422 22.1437 30.686C21.8164 27.5571 21.8668 24.7172 22.2822 22.2543C22.7228 19.5526 23.6418 17.2907 24.9762 15.5315ZM24.5608 14.2498C16.9949 22.9831 23.1256 40.9148 23.1256 40.9148L38.8994 30.196C31.9756 15.3556 24.5608 14.2498 24.5608 14.2498Z" fill="#083629"/>
<path opacity="0.15" fill-rule="evenodd" clip-rule="evenodd" d="M24.7244 15.3306C24.7244 15.3306 31.6483 19.4145 33.6751 27.8211L36.5327 26.2755C36.5327 26.2755 29.5334 14.5389 24.7244 15.3306Z" fill="black"/>
<path d="M24.8881 15.2425C25.5679 15.4687 26.9652 16.0467 28.7403 17.4666C31.0314 19.3013 34.443 22.9454 37.7916 29.907L23.6166 39.5325C23.1382 37.8864 22.2822 34.5815 21.8794 30.774C21.552 27.62 21.5898 24.7549 22.0052 22.2543C22.4962 19.4018 23.453 17.052 24.8881 15.2425ZM24.5608 14.2498C16.9949 22.9831 23.1256 40.9148 23.1256 40.9148L38.8994 30.196C31.9756 15.3556 24.5608 14.2498 24.5608 14.2498Z" fill="#083629"/>
<path d="M59.5073 23.2974C67.1991 15.7202 71.303 14.5767 73.078 14.5767C73.5186 14.5767 73.783 14.6521 73.8963 14.6898C77.5974 19.0501 77.7611 25.8232 77.2449 30.7616C76.8295 34.7702 75.8979 38.251 75.4321 39.8217L59.5073 23.2974Z" fill="#35B975"/>
<path d="M73.078 15.1546C73.3046 15.1546 73.4683 15.1798 73.569 15.2049C75.0545 17.0144 76.049 19.3768 76.5399 22.267C76.9554 24.7299 77.0057 27.5698 76.6784 30.6987C76.3385 34.0036 75.6336 36.944 75.1426 38.7409L60.3004 23.3099C67.8789 15.9588 71.7436 15.1546 73.078 15.1546ZM73.078 14.0237C71.1771 14.0237 66.7962 15.23 58.7142 23.2974L75.6839 40.9274C75.6839 40.9274 81.8147 22.9832 74.2488 14.2499C74.2488 14.2373 73.8963 14.0237 73.078 14.0237Z" fill="#083629"/>
<path d="M74.2488 14.2373C74.2488 14.2373 66.834 15.3431 59.9101 30.1961L75.6839 40.9149C75.6839 40.9149 81.8147 22.9707 74.2488 14.2373Z" fill="#C4FF8B"/>
<path opacity="0.15" fill-rule="evenodd" clip-rule="evenodd" d="M74.0977 15.3306C74.0977 15.3306 67.1864 19.4145 65.1596 27.8211L62.302 26.2755C62.2894 26.2755 69.2888 14.5389 74.0977 15.3306Z" fill="black"/>
<path d="M73.8334 15.5316C75.1678 17.2908 76.0867 19.5527 76.5399 22.2544C76.9554 24.7173 77.0057 27.5572 76.6784 30.6862C76.3133 34.2423 75.5328 37.3713 75.0419 39.1054L61.3452 29.794C64.6309 23.0335 67.9544 19.4773 70.1952 17.6678C71.8317 16.3735 73.1284 15.7829 73.8334 15.5316ZM74.2488 14.2373C74.2488 14.2373 66.834 15.3431 59.9101 30.1961L75.6839 40.9149C75.6839 40.9149 81.8147 22.9707 74.2488 14.2373Z" fill="#083629"/>
<path d="M74.639 32.6463C66.8088 21.3118 52.2184 21.4124 49.4111 21.538C46.6038 21.4124 32.0133 21.3118 24.1831 32.6463C24.1831 32.6463 13.9987 47.4239 15.1569 61.3847C15.1569 61.3847 15.3835 66.2352 22.7983 71.7768C22.7983 71.7768 37.0111 83.5888 49.4111 82.8851C61.811 83.5888 76.0238 71.7768 76.0238 71.7768C83.4386 66.2352 83.6652 61.3847 83.6652 61.3847C84.8234 47.4239 74.639 32.6463 74.639 32.6463Z" fill="#35B975"/>
<path d="M83.0484 55.5541C83.0484 55.5541 83.0232 53.619 82.507 52.0608C80.8705 51.3571 78.529 50.8168 75.2055 50.7916C75.2055 50.7916 66.8466 51.2691 59.5576 54.7876C59.5576 54.7876 59.1422 49.5099 49.3481 49.5979C39.5666 49.4973 39.1512 54.775 39.1512 54.775C31.8749 51.2691 23.5285 50.7916 23.5285 50.7916C20.268 50.8168 17.9642 51.332 16.3277 52.0231C16.2144 53.154 15.7738 55.441 15.7738 55.441C15.0688 60.0904 15.0688 64.2623 21.1366 69.8416C21.1366 69.8416 34.657 82.3825 49.2852 82.4579V82.5207C62.1258 83.2998 77.3079 70.206 77.3079 70.206C83.4008 64.9535 83.8163 61.5732 83.0484 55.5541Z" fill="#C4FF8B"/>
<path opacity="0.15" fill-rule="evenodd" clip-rule="evenodd" d="M83.0484 61.6234C82.2175 67.7556 72.6752 73.7621 72.6752 73.7621C57.5938 83.8777 49.6503 82.4452 49.6503 82.4452C32.24 82.7468 17.9265 66.1471 17.9265 66.1471C33.9646 81.0127 49.5244 80.2964 49.5244 80.2964C58.8275 80.4723 71.7059 71.6133 71.7059 71.6133C71.7059 71.6133 80.1152 65.8958 80.4173 61.3846C80.4173 61.3846 81.9028 46.3306 75.5329 35.2097C75.5329 35.1972 84.1814 47.16 83.0484 61.6234Z" fill="black"/>
<path d="M50.6447 22.6439C52.7345 22.6439 56.9014 22.8701 61.3452 24.3403C66.6577 26.1121 70.812 29.1154 73.6949 33.2873C73.72 33.325 76.2126 36.9565 78.5415 42.2342C79.9137 45.3255 80.946 48.3664 81.6384 51.2566C82.4818 54.8505 82.784 58.2181 82.5322 61.2842V61.2968V61.3219C82.5196 61.4099 82.4063 62.4906 81.5377 64.1367C80.6816 65.7326 78.9192 68.1955 75.344 70.8595L75.3188 70.8721L75.2936 70.8846C75.2559 70.9098 71.9324 73.6617 67.199 76.3634C62.8811 78.8263 56.486 81.7668 50.4811 81.7668C50.1412 81.7668 49.8013 81.7542 49.474 81.7416H49.411H49.3481C49.0208 81.7542 48.6809 81.7668 48.341 81.7668C42.3361 81.7668 35.941 78.8263 31.6231 76.3634C26.8897 73.6617 23.5662 70.9098 23.5285 70.8846L23.5033 70.8721L23.4781 70.8595C19.9029 68.1955 18.1404 65.7326 17.2844 64.1367C16.4158 62.5031 16.2899 61.435 16.2899 61.3219V61.2842C16.0381 58.2307 16.3402 54.863 17.1837 51.2817C17.8635 48.3916 18.8958 45.3632 20.268 42.2719C22.5969 36.9816 25.1021 33.325 25.1272 33.2873C28.0101 29.1154 32.1518 26.1121 37.4769 24.3403C41.9207 22.8575 46.0876 22.6439 48.1773 22.6439C48.7061 22.6439 49.1089 22.6564 49.3607 22.669H49.411H49.4614C49.7132 22.6564 50.116 22.6439 50.6447 22.6439ZM50.6447 21.5129C50.116 21.5129 49.7006 21.5255 49.411 21.5381C49.1215 21.5255 48.6935 21.5129 48.1773 21.5129C43.6454 21.5129 31.2076 22.4931 24.1957 32.6464C24.1957 32.6464 14.0113 47.424 15.1695 61.3848C15.1695 61.3848 15.3961 66.2352 22.8109 71.7768C22.8109 71.7768 36.218 82.9228 48.3536 82.9228C48.7187 82.9228 49.0711 82.9103 49.4236 82.8977C49.7761 82.9228 50.1412 82.9228 50.4937 82.9228C62.6167 82.9228 76.0364 71.7768 76.0364 71.7768C83.4512 66.2352 83.6778 61.3848 83.6778 61.3848C84.836 47.424 74.6516 32.6464 74.6516 32.6464C67.627 22.4931 55.1767 21.5129 50.6447 21.5129Z" fill="#083629"/>
<path d="M49.8139 59.1858H48.8446V65.2426H49.8139V59.1858Z" fill="#073629"/>
<path d="M57.8959 64.6645C57.7575 63.9357 57.2035 64.187 57.2035 64.187C55.7181 64.6017 53.3262 64.7399 53.3262 64.7399C50.6574 64.7399 49.5747 62.5032 49.3104 61.8372V61.6487C49.3104 61.6487 49.2978 61.6864 49.2726 61.7492C49.2474 61.6864 49.2348 61.6487 49.2348 61.6487V61.8372C48.9705 62.5157 47.9004 64.7399 45.2316 64.7399C45.2316 64.7399 42.8523 64.6017 41.3668 64.187C41.3668 64.187 40.8129 63.9483 40.6744 64.6645C40.6744 64.6645 39.4281 70.6962 45.2316 72.6565H53.3136C59.1422 70.6962 57.8959 64.6645 57.8959 64.6645Z" fill="black"/>
<path d="M49.1719 63.3201L49.2852 63.6342L49.3985 63.3201C50.0909 64.2876 51.312 65.3809 53.3262 65.3809H53.3388H53.3514C53.4521 65.3809 55.718 65.2427 57.2539 64.8406C57.2916 65.0793 57.4931 66.3736 57.1406 67.8312C56.6496 69.8669 55.3152 71.2869 53.2129 72.0283H49.3103H49.2474H45.3575C43.2551 71.2869 41.9333 69.8795 41.4423 67.8312C41.0899 66.3862 41.2787 65.0793 41.329 64.8406C42.8649 65.2427 45.1183 65.3809 45.219 65.3809H45.2316H45.2442C47.2584 65.3809 48.4795 64.2876 49.1719 63.3201ZM49.3103 61.6362C49.3103 61.6362 49.2978 61.6739 49.2726 61.7368C49.2474 61.6739 49.2348 61.6362 49.2348 61.6362V61.8247C48.9705 62.5033 47.9004 64.7275 45.2316 64.7275C45.2316 64.7275 42.8523 64.5892 41.3668 64.1746C41.3668 64.1746 41.2787 64.1369 41.1654 64.1369C40.9891 64.1369 40.7625 64.2248 40.6744 64.6521C40.6744 64.6521 39.4281 70.6837 45.2316 72.644H49.2348H49.2978H53.3136C59.1296 70.6837 57.8833 64.6521 57.8833 64.6521C57.7952 64.2123 57.5686 64.1369 57.3924 64.1369C57.2791 64.1369 57.1909 64.1746 57.1909 64.1746C55.7055 64.5892 53.3136 64.7275 53.3136 64.7275C50.6448 64.7275 49.5621 62.4907 49.2978 61.8247V61.6362H49.3103Z" fill="#073629"/>
<path d="M49.2852 63.1062L48.9831 63.6465H49.5747L49.2852 63.1062Z" fill="black"/>
<path d="M49.1845 77.8336C45.1435 77.8336 43.9853 75.0314 43.935 74.9057L43.9224 74.8806C43.2929 73.4984 43.8846 71.6386 44.0608 71.1359C44.9798 70.5328 45.861 70.2312 46.6667 70.2312C48.0641 70.2312 48.832 71.1485 48.9705 71.337L49.3481 71.8396L49.7384 71.337C49.8769 71.1611 50.6574 70.2563 52.0296 70.2563C52.8352 70.2563 53.7039 70.5579 54.6354 71.1611C54.8243 71.6637 55.4159 73.5109 54.7739 74.8932V74.9057V74.9183C54.7236 75.0314 53.6158 77.6954 49.8013 77.8336C49.8013 77.8336 49.2348 77.8336 49.1845 77.8336Z" fill="#E46767"/>
<path d="M46.6667 70.7212C47.8627 70.7212 48.5173 71.538 48.5802 71.6386L49.3355 72.6438L50.1161 71.6511C50.2294 71.5003 50.884 70.7464 52.0295 70.7464C52.6968 70.7464 53.4395 70.9977 54.2326 71.4878C54.4844 72.2166 54.7991 73.6868 54.3333 74.7047L54.3207 74.7172L54.3081 74.7549C54.2452 74.9057 53.2507 77.155 49.965 77.3561L49.2852 77.3686C49.2474 77.3686 49.2097 77.3686 49.1719 77.3686C45.5337 77.3686 44.4385 74.9183 44.3756 74.7549V74.7424L44.363 74.7047C43.8972 73.6742 44.2245 72.204 44.4637 71.4752C45.2694 70.9726 45.9995 70.7212 46.6667 70.7212ZM46.6667 69.7537C45.8484 69.7537 44.8539 70.0301 43.6706 70.8218C43.6706 70.8218 42.6509 73.2596 43.4817 75.0816C43.4817 75.0816 44.728 78.3111 49.1845 78.3111C49.2222 78.3111 49.2726 78.3111 49.323 78.3111C49.3859 78.3111 49.4488 78.3111 49.5244 78.3111C53.9808 78.3111 55.2397 75.0816 55.2397 75.0816C56.0706 73.2596 55.0509 70.8343 55.0509 70.8343C53.8675 70.0427 52.8604 69.7662 52.0421 69.7662C50.4559 69.7662 49.5621 70.7966 49.3607 71.0354C49.2097 70.8469 48.3033 69.7537 46.6667 69.7537Z" fill="#8B2D30"/>
<path d="M49.8768 71.425H48.9075V76.4514H49.8768V71.425Z" fill="#8B2D30"/>
<path d="M52.5205 72.3298C51.0728 71.7141 50.1916 73.6241 50.1916 73.6241C49.6881 74.554 49.4111 74.7802 49.4111 74.7802C49.4111 74.7802 49.1341 74.554 48.6432 73.6241C48.6432 73.6241 47.7746 71.7141 46.3268 72.3298C46.3268 72.3298 45.068 72.7696 45.8736 74.843C45.8736 74.843 46.6416 77.1049 49.4111 77.1049C52.1932 77.1049 52.9611 74.8556 52.9611 74.8556C53.7794 72.7696 52.5205 72.3298 52.5205 72.3298Z" fill="#FFAAAE"/>
<path d="M49.5495 52.2869C46.3016 52.2869 43.6706 53.3675 43.6706 54.6995C43.6706 57.0619 47.8249 59.8265 49.3481 59.8265C50.8336 59.8265 55.4159 57.0745 55.4159 54.6995C55.4285 53.3675 52.7974 52.2869 49.5495 52.2869Z" fill="#000709"/>
<path d="M49.4866 55.7175C51.9826 55.7175 54.006 55.0367 54.006 54.197C54.006 53.3573 51.9826 52.6765 49.4866 52.6765C46.9906 52.6765 44.9672 53.3573 44.9672 54.197C44.9672 55.0367 46.9906 55.7175 49.4866 55.7175Z" fill="#808080"/>
<path d="M33.738 30.6357C33.738 30.6357 37.6153 29.5425 40.3219 31.7289C40.3219 31.7289 37.9049 27.8335 33.738 30.6357Z" fill="#003323"/>
<path d="M58.3365 31.7291C61.0431 29.5175 64.9205 30.6233 64.9205 30.6233C60.7536 27.8085 58.3365 31.7291 58.3365 31.7291Z" fill="#003323"/>
<path d="M40.3471 44.358C40.0828 38.8289 36.4068 37.3336 36.4068 37.3336C31.9252 35.8885 29.1179 40.1484 29.1179 40.1484C26.2603 43.9433 27.922 47.977 27.922 47.977C35.362 47.5497 39.2267 49.2587 39.2267 49.2587C40.6115 47.7508 40.3471 44.358 40.3471 44.358Z" fill="#23A662"/>
<path d="M39.1008 44.1065C38.4462 39.1932 35.2738 38.6906 35.2738 38.6906C31.5601 38.0371 29.7599 41.7818 29.7599 41.7818C28.35 44.6217 29.6341 47.1349 29.6341 47.1349C35.513 46.7202 38.635 48.4292 38.635 48.4292C39.5414 47.2606 39.1008 44.1065 39.1008 44.1065Z" fill="black"/>
<path d="M31.0613 43.7602C31.4136 43.5246 31.5738 43.1466 31.419 42.916C31.2643 42.6854 30.8532 42.6894 30.5008 42.925C30.1485 43.1606 29.9883 43.5385 30.143 43.7692C30.2978 43.9998 30.7089 43.9958 31.0613 43.7602Z" fill="white"/>
<path d="M35.5759 41.0153C35.3619 40.387 34.7073 40.6257 34.7073 40.6257C34.3045 40.764 33.9394 40.7514 33.9394 40.7514C34.7073 40.475 34.3297 39.8467 34.3297 39.8467C33.889 39.2309 33.0959 39.721 33.0959 39.721C31.9504 40.4247 32.1014 41.9703 32.1014 41.9703C33.1337 42.3347 34.443 42.1588 34.443 42.1588C35.8277 41.9326 35.5759 41.0153 35.5759 41.0153Z" fill="white"/>
<path d="M69.6287 40.1357C69.6287 40.1357 66.8214 35.8758 62.3524 37.3209C62.3524 37.3209 58.6764 38.8162 58.4121 44.3578C58.4121 44.3578 58.1477 47.7506 59.5325 49.2711C59.5325 49.2711 63.3846 47.5621 70.8246 47.9894C70.8246 47.9768 72.4863 43.9306 69.6287 40.1357Z" fill="#23A662"/>
<path d="M68.9867 41.7692C68.9867 41.7692 67.1865 38.012 63.4728 38.6654C63.4728 38.6654 60.313 39.1555 59.6584 44.0939C59.6584 44.0939 59.2178 47.2606 60.1116 48.4166C60.1116 48.4166 63.2336 46.7077 69.1 47.1223C69.1125 47.1349 70.3966 44.6091 68.9867 41.7692Z" fill="black"/>
<path d="M61.7985 42.8751C61.6096 42.6614 61.1942 42.6991 60.8543 42.9505C60.5144 43.2018 60.4011 43.5788 60.5774 43.7924C60.7662 44.006 61.1816 43.9683 61.5215 43.717C61.8614 43.4657 61.9873 43.0887 61.7985 42.8751Z" fill="white"/>
<path d="M65.9905 41.0153C65.7765 40.387 65.1219 40.6257 65.1219 40.6257C64.7191 40.764 64.354 40.7514 64.354 40.7514C65.1219 40.475 64.7442 39.8467 64.7442 39.8467C64.3036 39.2309 63.5105 39.721 63.5105 39.721C62.3649 40.4247 62.516 41.9703 62.516 41.9703C63.5483 42.3347 64.8575 42.1588 64.8575 42.1588C66.2297 41.9326 65.9905 41.0153 65.9905 41.0153Z" fill="white"/>
<defs>
<linearGradient id="paint0_linear" x1="47.5207" y1="97.2658" x2="59.8323" y2="19.3925" gradientUnits="userSpaceOnUse">
<stop stop-color="#32B875"/>
<stop offset="1" stop-color="#78C940"/>
</linearGradient>
<linearGradient id="paint1_linear" x1="18.9957" y1="82.447" x2="31.9275" y2="0.65064" gradientUnits="userSpaceOnUse">
<stop stop-color="#39B971"/>
<stop offset="1" stop-color="#78C940"/>
</linearGradient>
<linearGradient id="paint2_linear" x1="52.202" y1="38.1443" x2="56.7584" y2="9.32381" gradientUnits="userSpaceOnUse">
<stop stop-color="#69C54B"/>
<stop offset="1" stop-color="#7DCA2D"/>
</linearGradient>
</defs>
</svg>
