<svg width="61" height="51" viewBox="0 0 61 51" fill="none" xmlns="http://www.w3.org/2000/svg">
<path d="M6.00469 10.455C8.62578 11.5236 12.2119 12.1429 15.8457 12.1429C19.4795 12.1429 23.0656 11.5236 25.6867 10.455C27.9266 9.53216 29.3086 8.31787 29.3086 7.28573C29.3086 6.25359 27.9266 5.0393 25.6867 4.11645C23.0656 3.04787 19.4795 2.42859 15.8457 2.42859C12.2119 2.42859 8.62578 3.04787 6.00469 4.11645C3.76484 5.0393 2.38281 6.25359 2.38281 7.28573C2.38281 8.31787 3.76484 9.53216 6.00469 10.455Z" fill="#e93a41"/>
<path d="M35.3133 10.455C37.9344 11.5236 41.5205 12.1429 45.1543 12.1429C48.7881 12.1429 52.3742 11.5236 54.9953 10.455C57.2352 9.53216 58.6172 8.31787 58.6172 7.28573C58.6172 6.25359 57.2352 5.0393 54.9953 4.11645C52.3742 3.04787 48.7881 2.42859 45.1543 2.42859C41.5205 2.42859 37.9344 3.04787 35.3133 4.11645C33.0734 5.0393 31.6914 6.25359 31.6914 7.28573C31.6914 8.31787 33.0734 9.53216 35.3133 10.455Z" fill="#e93a41"/>
<path d="M30.5 24.2857C23.4945 24.2857 18.4072 26.4471 17.5256 28.5479C17.4422 28.7543 17.3945 28.9486 17.3945 29.1428C17.3945 30.2114 18.6812 31.4014 20.8496 32.3121C23.4111 33.3929 26.8305 34 30.5 34C34.1695 34 37.5889 33.405 40.1504 32.3121C42.3188 31.3893 43.6055 30.2114 43.6055 29.1428C43.6055 28.9486 43.5697 28.7421 43.4744 28.5479C42.5928 26.4471 37.5055 24.2857 30.5 24.2857Z" fill="#e93a41"/>
<path d="M30.5 43.7143C31.158 43.7143 31.6914 43.1707 31.6914 42.5001C31.6914 41.8294 31.158 41.2858 30.5 41.2858C29.842 41.2858 29.3086 41.8294 29.3086 42.5001C29.3086 43.1707 29.842 43.7143 30.5 43.7143Z" fill="#fff"/>
<path d="M55.8889 1.87C52.958 0.667857 49.1455 0 45.1543 0C41.1631 0 37.3506 0.667857 34.4197 1.87C32.6922 2.58643 31.3697 3.44857 30.5 4.42C29.6303 3.44857 28.3078 2.57429 26.5803 1.87C23.6494 0.667857 19.8369 0 15.8457 0C11.8545 0 8.04199 0.667857 5.11113 1.87C1.81094 3.21786 0 5.14857 0 7.28571V36.4286C0 38.5657 1.81094 40.4964 5.11113 41.8443C7.83945 42.9614 11.3303 43.6171 15.0117 43.7021V43.7143C15.0117 47.8671 21.6717 51 30.5 51C39.3283 51 45.9883 47.8671 45.9883 43.7143V43.7021C49.6697 43.6171 53.1605 42.9614 55.8889 41.8443C59.1891 40.4964 61 38.5657 61 36.4286V7.28571C61 5.14857 59.1891 3.21786 55.8889 1.87ZM59.8443 36.4286C59.8443 39.78 53.0891 42.5 45.19 42.5H44.8326V43.7143C44.8326 47.0657 38.4348 49.7857 30.5357 49.7857C22.6367 49.7857 16.2389 47.0657 16.2389 43.7143V42.5H15.8814C7.98242 42.5 1.22715 39.78 1.22715 36.4286C1.22715 29.9321 1.22715 14.1586 1.22715 7.28571C1.22715 3.93429 7.98242 1.21429 15.8814 1.21429C23.7805 1.21429 30.5357 3.93429 30.5357 7.28571C30.5357 3.93429 37.291 1.21429 45.19 1.21429C53.0891 1.21429 59.8443 3.93429 59.8443 7.28571C59.8443 13.94 59.8443 30.6121 59.8443 36.4286Z" fill="#fff"/>
<path d="M45.1902 1.21429C37.2912 1.21429 30.5359 3.93429 30.5359 7.28572C30.5359 3.93429 23.7806 1.21429 15.8816 1.21429C7.98257 1.21429 1.22729 3.93429 1.22729 7.28572C1.22729 14.1586 1.22729 29.9321 1.22729 36.4286C1.22729 39.78 7.98257 42.5 15.8816 42.5H16.239V43.7143C16.239 47.0657 22.6369 49.7857 30.5359 49.7857C38.4349 49.7857 44.8328 47.0657 44.8328 43.7143V42.5H45.1902C53.0892 42.5 59.8445 39.78 59.8445 36.4286C59.8445 30.6121 59.8445 13.94 59.8445 7.28572C59.8445 3.93429 53.0773 1.21429 45.1902 1.21429ZM35.3134 4.11644C37.9345 3.04787 41.5207 2.42858 45.1544 2.42858C48.7882 2.42858 52.3744 3.04787 54.9955 4.11644C57.2353 5.03929 58.6173 6.25358 58.6173 7.28572C58.6173 8.31786 57.2353 9.53215 54.9955 10.455C52.3744 11.5236 48.7882 12.1429 45.1544 12.1429C41.5207 12.1429 37.9345 11.5236 35.3134 10.455C33.0736 9.53215 31.6916 8.31786 31.6916 7.28572C31.6916 6.25358 33.0736 5.03929 35.3134 4.11644ZM31.6916 11.22C32.4421 11.7664 33.3476 12.2643 34.4199 12.7014C37.3507 13.9036 41.1632 14.5714 45.1544 14.5714C49.1457 14.5714 52.9582 13.9036 55.889 12.7014C56.9613 12.2643 57.8667 11.7664 58.6173 11.22V14.5714C58.6173 15.6036 57.2353 16.8179 54.9955 17.7407C52.3744 18.8093 48.7882 19.4286 45.1544 19.4286C41.5207 19.4286 37.9345 18.8093 35.3134 17.7407C33.0855 16.83 31.6916 15.6157 31.6916 14.5714V11.22ZM6.00483 4.11644C8.62593 3.04787 12.2121 2.42858 15.8458 2.42858C19.4796 2.42858 23.0658 3.04787 25.6869 4.11644C27.9267 5.03929 29.3087 6.25358 29.3087 7.28572C29.3087 8.31786 27.9267 9.53215 25.6869 10.455C23.0658 11.5236 19.4796 12.1429 15.8458 12.1429C12.2121 12.1429 8.62593 11.5236 6.00483 10.455C3.76499 9.53215 2.38296 8.31786 2.38296 7.28572C2.38296 6.25358 3.76499 5.03929 6.00483 4.11644ZM2.38296 11.22C3.13354 11.7664 4.03901 12.2643 5.11128 12.7014C8.04214 13.9036 11.8546 14.5714 15.8458 14.5714C19.8371 14.5714 23.6496 13.9036 26.5804 12.7014C27.6527 12.2643 28.5582 11.7664 29.3087 11.22V14.5714C29.3087 15.6036 27.9267 16.8179 25.6869 17.7407C23.0658 18.8093 19.4796 19.4286 15.8458 19.4286C12.2121 19.4286 8.62593 18.8093 6.00483 17.7407C3.76499 16.8179 2.38296 15.6036 2.38296 14.5714V11.22ZM15.0119 41.2736C11.664 41.1886 8.42339 40.5814 6.00483 39.5979C3.76499 38.675 2.38296 37.4607 2.38296 36.4286V33.0771C3.13354 33.6236 4.03901 34.1214 5.11128 34.5586C7.8396 35.6757 11.3304 36.3314 15.0119 36.4164V41.2736ZM15.0119 29.1429V33.9879C11.664 33.9029 8.42339 33.2957 6.00483 32.3121C3.76499 31.3893 2.38296 30.175 2.38296 29.1429V25.7914C3.13354 26.3379 4.03901 26.8357 5.11128 27.2729C7.8396 28.39 11.3304 29.0457 15.0119 29.1429C15.0119 29.1307 15.0119 29.1429 15.0119 29.1429ZM15.822 26.7143C12.1882 26.7143 8.61401 26.095 6.00483 25.0264C3.76499 24.1036 2.38296 22.8893 2.38296 21.8571V18.5057C3.13354 19.0521 4.03901 19.55 5.11128 19.9872C8.04214 21.1893 11.8546 21.8571 15.8458 21.8571C19.8371 21.8571 23.6496 21.1893 26.5804 19.9872C27.6527 19.55 28.5582 19.0521 29.3087 18.5057V21.8814C26.223 21.9907 23.2683 22.5007 20.8855 23.3629C18.4789 24.225 16.7513 25.3664 15.822 26.7143ZM43.6056 36.4286C43.6056 38.0071 40.6152 40.1321 35.0751 40.9579C34.4199 41.055 33.9791 41.6743 34.0744 42.33C34.1578 42.9371 34.6701 43.3621 35.2539 43.3621C35.3134 43.3621 35.373 43.3621 35.4326 43.35C38.3396 42.9129 40.8654 42.1114 42.7121 41.0186C43.0457 40.8243 43.3435 40.63 43.6056 40.4236V43.7021C43.6056 44.7707 42.3189 45.9607 40.1505 46.8714C37.589 47.9521 34.1697 48.5593 30.5001 48.5593C26.8306 48.5593 23.4113 47.9643 20.8498 46.8714C18.6814 45.9486 17.3947 44.7707 17.3947 43.7021V40.4236C17.6687 40.6179 17.9666 40.8243 18.2882 41.0186C20.1349 42.1114 22.6607 42.9129 25.5677 43.35C25.6273 43.3621 25.6869 43.3621 25.7464 43.3621C26.3302 43.3621 26.8425 42.925 26.9259 42.33C27.0212 41.6621 26.5685 41.055 25.9251 40.9579C20.3851 40.1321 17.3947 38.0071 17.3947 36.4286V33.1379C20.0873 35.1536 24.8529 36.4286 30.5001 36.4286C36.1474 36.4286 40.913 35.1414 43.6056 33.1379V36.4286ZM40.1505 32.3121C37.589 33.3929 34.1697 34 30.5001 34C26.8306 34 23.4113 33.405 20.8498 32.3121C18.6814 31.3893 17.3947 30.2114 17.3947 29.1429C17.3947 28.9486 17.4304 28.7421 17.5257 28.5479C18.4074 26.4593 23.5066 24.2857 30.5001 24.2857C37.4937 24.2857 42.5929 26.4471 43.4746 28.5479C43.558 28.7543 43.6056 28.9486 43.6056 29.1429C43.6056 30.2114 42.3189 31.4014 40.1505 32.3121ZM45.1783 26.7143C44.2371 25.3664 42.5095 24.225 40.1148 23.3629C37.7201 22.5007 34.7654 21.9907 31.6916 21.8814V18.5057C32.4421 19.0521 33.3476 19.55 34.4199 19.9872C37.3507 21.1893 41.1632 21.8571 45.1544 21.8571C49.1457 21.8571 52.9582 21.1893 55.889 19.9872C56.9613 19.55 57.8667 19.0521 58.6173 18.5057V21.8571C58.6173 22.8893 57.2353 24.1036 54.9955 25.0264C52.3863 26.095 48.8121 26.7143 45.1783 26.7143ZM58.6173 36.4286C58.6173 37.4607 57.2353 38.675 54.9955 39.5979C52.5769 40.5936 49.3363 41.1886 45.9884 41.2736V36.4164C49.6699 36.3314 53.1607 35.6757 55.889 34.5586C56.9613 34.1214 57.8667 33.6236 58.6173 33.0771V36.4286ZM58.6173 29.1429C58.6173 30.175 57.2353 31.3893 54.9955 32.3121C52.5769 33.3079 49.3363 33.9029 45.9884 33.9879V29.1429V29.1307C49.6699 29.0457 53.1607 28.39 55.889 27.2729C56.9613 26.8357 57.8667 26.3379 58.6173 25.7914V29.1429Z" fill="#fff"/>
</svg>
