<svg width="76" height="101" viewBox="0 0 76 101" fill="none" xmlns="http://www.w3.org/2000/svg">
<path d="M38 0C17.0406 0 0 17.0996 0 38.1437C0 68.0236 34.4375 98.8897 35.9021 100.191C36.5156 100.724 37.2479 101 38 101C38.7521 101 39.5042 100.744 40.0979 100.211C41.5625 98.8897 76 68.0236 76 38.1437C76 17.0996 58.9594 0 38 0Z" fill="#699FF0"/>
<path d="M40.9214 52.43C40.2214 53.29 39.3614 53.94 38.3414 54.38C37.3414 54.84 36.2414 55.07 35.0414 55.07C33.8814 55.07 32.8314 54.92 31.8914 54.62C30.9514 54.32 30.0014 53.82 29.0414 53.12C28.1014 52.44 27.0414 51.48 25.8614 50.24C24.0414 49.94 22.4214 49.29 21.0014 48.29C19.5814 47.29 18.4714 46.03 17.6714 44.51C16.8914 42.99 16.5014 41.32 16.5014 39.5C16.5014 37.42 17.0014 35.55 18.0014 33.89C19.0214 32.23 20.4114 30.93 22.1714 29.99C23.9514 29.05 25.9514 28.58 28.1714 28.58C30.3914 28.58 32.3814 29.05 34.1414 29.99C35.9214 30.93 37.3114 32.23 38.3114 33.89C39.3314 35.55 39.8414 37.42 39.8414 39.5C39.8414 41.86 39.1914 43.95 37.8914 45.77C36.6114 47.57 34.8814 48.86 32.7014 49.64C33.1014 50.08 33.4914 50.39 33.8714 50.57C34.2714 50.75 34.7014 50.84 35.1614 50.84C36.3414 50.84 37.4014 50.35 38.3414 49.37L40.9214 52.43ZM22.5014 39.5C22.5014 40.68 22.7514 41.73 23.2514 42.65C23.7514 43.55 24.4314 44.25 25.2914 44.75C26.1514 45.25 27.1114 45.5 28.1714 45.5C29.2314 45.5 30.1914 45.25 31.0514 44.75C31.9114 44.25 32.5914 43.55 33.0914 42.65C33.5914 41.73 33.8414 40.68 33.8414 39.5C33.8414 38.32 33.5914 37.28 33.0914 36.38C32.5914 35.46 31.9114 34.75 31.0514 34.25C30.1914 33.75 29.2314 33.5 28.1714 33.5C27.1114 33.5 26.1514 33.75 25.2914 34.25C24.4314 34.75 23.7514 35.46 23.2514 36.38C22.7514 37.28 22.5014 38.32 22.5014 39.5ZM57.8096 45.29V50H41.4596V46.28L49.3196 38.93C50.0796 38.21 50.5896 37.6 50.8496 37.1C51.1096 36.58 51.2396 36.06 51.2396 35.54C51.2396 34.86 51.0096 34.33 50.5496 33.95C50.0896 33.57 49.4196 33.38 48.5396 33.38C47.7596 33.38 47.0396 33.56 46.3796 33.92C45.7396 34.26 45.2096 34.76 44.7896 35.42L40.3796 32.96C41.1996 31.6 42.3496 30.53 43.8296 29.75C45.3096 28.97 47.0596 28.58 49.0796 28.58C50.6796 28.58 52.0896 28.84 53.3096 29.36C54.5496 29.88 55.5096 30.63 56.1896 31.61C56.8896 32.57 57.2396 33.69 57.2396 34.97C57.2396 36.11 56.9896 37.19 56.4896 38.21C56.0096 39.21 55.0696 40.35 53.6696 41.63L49.7096 45.29H57.8096Z" fill="white"/>
</svg>
