<svg width="88" height="117" viewBox="0 0 88 117" fill="none" xmlns="http://www.w3.org/2000/svg">
<path d="M44 0C19.7313 0 0 19.8084 0 44.1863C0 78.7997 39.875 114.555 41.5708 116.063C42.2812 116.68 43.1292 117 44 117C44.8708 117 45.7417 116.703 46.4292 116.086C48.125 114.555 88 78.7997 88 44.1863C88 19.8084 68.2688 0 44 0Z" fill="#699FF0"/>
<path d="M48.2286 63.24C47.2953 64.3867 46.1486 65.2533 44.7886 65.84C43.4553 66.4533 41.9886 66.76 40.3886 66.76C38.8419 66.76 37.4419 66.56 36.1886 66.16C34.9353 65.76 33.6686 65.0933 32.3886 64.16C31.1353 63.2533 29.7219 61.9733 28.1486 60.32C25.7219 59.92 23.5619 59.0533 21.6686 57.72C19.7753 56.3867 18.2953 54.7067 17.2286 52.68C16.1886 50.6533 15.6686 48.4267 15.6686 46C15.6686 43.2267 16.3353 40.7333 17.6686 38.52C19.0286 36.3067 20.8819 34.5733 23.2286 33.32C25.6019 32.0667 28.2686 31.44 31.2286 31.44C34.1886 31.44 36.8419 32.0667 39.1886 33.32C41.5619 34.5733 43.4153 36.3067 44.7486 38.52C46.1086 40.7333 46.7886 43.2267 46.7886 46C46.7886 49.1467 45.9219 51.9333 44.1886 54.36C42.4819 56.76 40.1753 58.48 37.2686 59.52C37.8019 60.1067 38.3219 60.52 38.8286 60.76C39.3619 61 39.9353 61.12 40.5486 61.12C42.1219 61.12 43.5353 60.4667 44.7886 59.16L48.2286 63.24ZM23.6686 46C23.6686 47.5733 24.0019 48.9733 24.6686 50.2C25.3353 51.4 26.2419 52.3333 27.3886 53C28.5353 53.6667 29.8153 54 31.2286 54C32.6419 54 33.9219 53.6667 35.0686 53C36.2153 52.3333 37.1219 51.4 37.7886 50.2C38.4553 48.9733 38.7886 47.5733 38.7886 46C38.7886 44.4267 38.4553 43.04 37.7886 41.84C37.1219 40.6133 36.2153 39.6667 35.0686 39C33.9219 38.3333 32.6419 38 31.2286 38C29.8153 38 28.5353 38.3333 27.3886 39C26.2419 39.6667 25.3353 40.6133 24.6686 41.84C24.0019 43.04 23.6686 44.4267 23.6686 46ZM63.3098 43.2C65.6298 43.68 67.4032 44.64 68.6298 46.08C69.8832 47.4933 70.5098 49.2133 70.5098 51.24C70.5098 52.8933 70.0565 54.4267 69.1498 55.84C68.2698 57.2533 66.9098 58.4 65.0698 59.28C63.2565 60.1333 61.0032 60.56 58.3098 60.56C56.3365 60.56 54.3765 60.32 52.4298 59.84C50.5098 59.36 48.8432 58.68 47.4298 57.8L50.3098 51.84C51.4032 52.5867 52.6298 53.16 53.9898 53.56C55.3765 53.96 56.7365 54.16 58.0698 54.16C59.4298 54.16 60.5098 53.9067 61.3098 53.4C62.1098 52.8933 62.5098 52.1733 62.5098 51.24C62.5098 49.4267 61.0832 48.52 58.2298 48.52H54.9098V43.52L59.9098 38.12H48.8698V32H69.1098V36.96L63.3098 43.2Z" fill="white"/>
</svg>
