<svg width="114" height="151" viewBox="0 0 114 151" fill="none" xmlns="http://www.w3.org/2000/svg">
<path d="M57 0C25.5609 0 0 25.5647 0 57.0268C0 101.699 51.6562 147.845 53.8531 149.791C54.7734 150.587 55.8719 151 57 151C58.1281 151 59.2563 150.617 60.1469 149.821C62.3438 147.845 114 101.699 114 57.0268C114 25.5647 88.4391 0 57 0Z" fill="#699FF0"/>
<path d="M59.7525 85.05C58.5859 86.4833 57.1525 87.5667 55.4525 88.3C53.7859 89.0667 51.9525 89.45 49.9525 89.45C48.0192 89.45 46.2692 89.2 44.7025 88.7C43.1359 88.2 41.5525 87.3667 39.9525 86.2C38.3859 85.0667 36.6192 83.4667 34.6525 81.4C31.6192 80.9 28.9192 79.8167 26.5525 78.15C24.1859 76.4833 22.3359 74.3833 21.0025 71.85C19.7025 69.3167 19.0525 66.5333 19.0525 63.5C19.0525 60.0333 19.8859 56.9167 21.5525 54.15C23.2525 51.3833 25.5692 49.2167 28.5025 47.65C31.4692 46.0833 34.8025 45.3 38.5025 45.3C42.2025 45.3 45.5192 46.0833 48.4525 47.65C51.4192 49.2167 53.7359 51.3833 55.4025 54.15C57.1025 56.9167 57.9525 60.0333 57.9525 63.5C57.9525 67.4333 56.8692 70.9167 54.7025 73.95C52.5692 76.95 49.6859 79.1 46.0525 80.4C46.7192 81.1333 47.3692 81.65 48.0025 81.95C48.6692 82.25 49.3859 82.4 50.1525 82.4C52.1192 82.4 53.8859 81.5833 55.4525 79.95L59.7525 85.05ZM29.0525 63.5C29.0525 65.4667 29.4692 67.2167 30.3025 68.75C31.1359 70.25 32.2692 71.4167 33.7025 72.25C35.1359 73.0833 36.7359 73.5 38.5025 73.5C40.2692 73.5 41.8692 73.0833 43.3025 72.25C44.7359 71.4167 45.8692 70.25 46.7025 68.75C47.5359 67.2167 47.9525 65.4667 47.9525 63.5C47.9525 61.5333 47.5359 59.8 46.7025 58.3C45.8692 56.7667 44.7359 55.5833 43.3025 54.75C41.8692 53.9167 40.2692 53.5 38.5025 53.5C36.7359 53.5 35.1359 53.9167 33.7025 54.75C32.2692 55.5833 31.1359 56.7667 30.3025 58.3C29.4692 59.8 29.0525 61.5333 29.0525 63.5ZM94.3377 74.3H89.1377V81H79.4877V74.3H60.9877V67.85L76.6877 46H86.9377L72.6877 66.45H79.7877V60.5H89.1377V66.45H94.3377V74.3Z" fill="white"/>
</svg>
