<svg width="452" height="227" viewBox="0 0 452 227" fill="none" xmlns="http://www.w3.org/2000/svg">
<g clip-path="url(#clip0)">
<path d="M109.832 218.846C170.49 218.846 219.664 169.856 219.664 109.423C219.664 48.9903 170.49 0 109.832 0C49.1734 0 0 48.9903 0 109.423C0 169.856 49.1734 218.846 109.832 218.846Z" fill="#EFF5FC"/>
<g opacity="0.7">
<path opacity="0.7" d="M109.832 218.846C170.49 218.846 219.664 169.856 219.664 109.423C219.664 48.9903 170.49 0 109.832 0C49.1734 0 0 48.9903 0 109.423C0 169.856 49.1734 218.846 109.832 218.846Z" fill="white"/>
</g>
<path d="M337.416 64.7071C337.416 64.9701 332.928 62.8658 325.535 62.6028C321.839 62.6028 317.351 63.1289 312.598 64.7071C308.11 66.2853 303.358 69.1787 299.398 73.3873L298.605 74.1764L298.341 73.1242V72.8612C296.757 67.6005 293.061 63.1289 289.101 60.2355C285.14 57.3421 280.652 56.2899 276.956 56.2899C273.26 56.2899 270.355 56.816 268.243 57.6051C266.131 58.3942 265.339 58.9203 265.075 58.6573C265.075 58.6573 265.867 57.8682 267.979 57.079C269.827 56.2899 272.996 55.2378 276.956 55.2378C280.916 55.2378 285.669 56.2899 289.893 59.1833C294.117 62.0767 298.077 66.5483 299.662 72.3351V72.5982L298.605 72.3351C302.566 68.1266 307.582 64.9701 312.334 63.3919C317.087 61.8137 321.839 61.2876 325.535 61.5507C329.232 61.8137 332.4 62.6028 334.512 63.3919C336.36 63.918 337.416 64.4441 337.416 64.7071Z" fill="#263238"/>
<path d="M350.881 151.245C350.881 151.508 345.337 150.719 336.624 152.824C332.4 153.876 327.383 155.717 322.367 158.873C317.351 162.03 312.598 166.238 308.902 171.762L308.11 172.814L307.582 171.762C307.582 171.499 307.318 171.236 307.318 170.973C304.414 164.923 299.925 159.926 294.909 157.032C289.893 153.876 284.612 152.824 280.124 152.561C275.636 152.298 271.94 153.087 269.563 153.876C267.187 154.665 265.867 155.191 265.867 154.928C265.867 154.928 266.131 154.665 266.659 154.402C267.187 154.139 268.243 153.613 269.299 153.35C271.675 152.561 275.372 151.508 280.124 151.772C284.612 151.772 290.421 153.087 295.701 155.98C300.982 159.137 305.998 164.134 308.902 170.447C308.902 170.71 309.166 170.973 309.166 171.236H307.846C311.806 165.449 316.823 160.978 321.839 157.821C326.855 154.665 332.136 152.824 336.624 152.035C341.112 150.982 344.809 150.982 347.185 150.982C348.505 150.982 349.297 151.245 350.089 151.245C350.617 151.245 350.881 151.245 350.881 151.245Z" fill="#263238"/>
<path d="M452 90.747C452 91.0101 449.096 90.747 444.871 92.3252C440.647 93.6404 435.103 97.0599 431.934 103.11L431.67 103.636L431.142 103.11C430.878 102.847 430.614 102.847 430.35 102.584C424.278 98.9011 417.677 98.112 413.189 98.3751C408.437 98.6381 405.797 99.6902 405.797 99.4272C405.797 99.4272 406.325 98.9011 407.645 98.6381C408.965 98.112 410.813 97.586 413.189 97.3229C417.941 96.7968 424.806 97.3229 431.142 101.268C431.406 101.531 431.67 101.531 431.934 101.795L430.878 102.058C434.311 95.7447 440.383 92.0622 444.871 91.0101C446.984 90.484 449.096 90.2209 450.152 90.2209C451.208 90.484 452 90.747 452 90.747Z" fill="#263238"/>
<path d="M417.677 184.651C417.677 184.914 415.565 185.703 413.189 188.334C410.813 190.964 408.172 195.436 408.701 200.959V201.222V202.801L407.38 201.748C403.156 198.592 398.14 197.277 394.708 197.014C391.275 196.751 388.899 197.277 388.899 197.014C388.899 197.014 391.011 195.962 394.708 195.962C398.404 195.962 403.684 197.014 408.172 200.696L407.116 201.222V200.959C406.588 195.173 409.493 190.175 412.133 187.545C415.301 185.177 417.677 184.388 417.677 184.651Z" fill="#263238"/>
<path d="M244.48 209.64C244.48 209.903 241.312 209.64 236.56 211.481C231.807 213.059 225.735 217.268 222.303 224.107C222.039 224.633 221.775 225.422 221.511 225.948L220.983 227.263L220.191 226.211C216.494 220.161 210.95 216.216 206.726 214.111C202.501 212.007 199.597 211.744 199.597 211.481C199.597 211.481 200.389 211.481 201.709 211.744C203.029 212.007 204.878 212.533 206.99 213.322C211.478 215.163 217.286 219.109 221.247 225.422H219.927C220.191 224.896 220.455 224.107 220.719 223.318C222.567 219.635 225.207 216.742 227.847 214.637C230.487 212.533 233.392 211.218 236.032 210.429C238.408 209.64 240.784 209.377 242.104 209.377C243.688 209.377 244.48 209.64 244.48 209.64Z" fill="#263238"/>
<path d="M246.329 121.785C246.329 122.048 240.257 118.892 229.696 118.629C224.416 118.366 218.079 119.155 211.479 121.522C204.878 123.889 198.278 127.835 192.733 133.622L191.941 134.411L191.677 133.359V133.096C189.301 125.468 184.285 119.155 178.74 115.472C172.932 111.527 166.595 109.948 161.579 109.948C156.299 109.685 152.074 110.738 149.434 111.79C146.53 112.842 145.21 113.631 145.21 113.368C145.21 113.368 145.474 113.105 146.266 112.579C147.058 112.053 148.114 111.527 149.434 111.001C152.074 109.948 156.563 108.633 161.843 108.633C167.124 108.633 173.724 109.948 179.796 114.157C185.869 118.103 191.149 124.678 193.525 132.57V132.833L192.469 132.57C198.014 126.52 204.878 122.311 211.743 120.207C218.607 117.84 224.944 117.313 230.224 117.577C235.504 117.84 239.729 118.892 242.633 119.944C243.953 120.47 245.009 120.996 245.801 121.259C246.065 121.785 246.329 121.785 246.329 121.785Z" fill="#263238"/>
</g>
<defs>
<clipPath id="clip0">
<rect width="452" height="227" fill="white"/>
</clipPath>
</defs>
</svg>
