<svg width="273" height="339" viewBox="0 0 273 339" fill="none" xmlns="http://www.w3.org/2000/svg">
<g clip-path="url(#clip0)">
<path d="M27.7913 329.356C26.3367 332.809 27.3646 336.321 29.9828 337.427L30.6035 337.699C33.2411 338.805 36.4606 337.097 37.9345 333.644L137.913 96.934C139.367 93.4803 138.436 89.7745 135.799 88.6491L135.178 88.3775C132.54 87.2715 129.224 89.173 127.769 92.6266L27.7913 329.356Z" fill="#D8DEE8"/>
<path d="M163.552 20.178C163.125 21.2064 163.436 22.3123 164.89 22.9138C166.345 23.5346 167.353 22.9914 167.8 21.9825C170.437 15.8513 173.094 9.72011 175.732 3.56954C176.178 2.56062 175.848 1.43528 174.316 0.775595C172.784 0.135315 171.756 0.65918 171.329 1.68751C168.73 7.85748 166.151 14.0081 163.552 20.178Z" fill="#D8DEE8"/>
<path d="M272.045 134.769C272.045 134.769 271.482 140.201 269.679 144.858C268.437 148.098 265.509 150.193 261.785 150.659C250.013 152.134 241.246 152.852 235.68 153.123C233.973 153.201 232.15 152.541 230.715 151.299C229.299 150.058 228.407 148.37 228.33 146.72C228.136 142.529 227.884 138.3 227.593 134.07C242.138 133.585 256.975 133.798 272.045 134.769Z" fill="white"/>
<path d="M227.767 131.334C227.767 131.334 225.517 139.367 222.686 144.741C221.076 147.826 217.43 149.34 213.454 148.699C199.18 146.003 161.807 140.065 131.687 123.496C127.653 121.226 124.375 117.597 124.88 113.562C125.849 105.956 127.711 103.472 127.731 103.472C161.108 108.75 194.719 117.947 227.767 131.334Z" fill="#699FF0"/>
<path d="M164.619 17.52C164.308 17.6946 188.455 26.0571 213.997 46.449C239.539 66.3559 266.478 98.2923 272.025 134.788C271.812 134.478 237.464 141.579 227.592 134.109C233.353 122.41 215.238 61.2143 164.619 17.52Z" fill="#4D7ABB"/>
<path d="M164.619 17.52C152.284 46.158 139.988 74.8154 127.731 103.492C127.711 103.628 143.246 109.371 163.125 116.608C183.121 123.671 207.442 132.247 227.612 134.09C240.47 102.076 207.927 54.6175 164.619 17.52Z" fill="white"/>
<path d="M7.17493 22.7974C7.17493 22.7974 3.66454 26.9883 1.58933 31.5285C0.134753 34.6716 0.677797 38.2223 2.92755 41.2297C10.0647 50.7174 15.6697 57.4889 19.3546 61.6798C20.4795 62.9798 22.2444 63.8141 24.1257 63.9693C26.0069 64.1245 27.83 63.5812 29.0518 62.4947C32.1937 59.7008 35.3938 56.9456 38.6327 54.2099C28.8773 43.4221 18.3849 32.9254 7.17493 22.7974Z" fill="#4D7ABB"/>
<path d="M40.4945 52.1724C40.4945 52.1724 36.3053 59.3901 34.4241 65.172C33.338 68.4898 34.7926 72.1569 38.0315 74.5434C49.9396 82.9058 80.2337 105.568 113.088 115.657C117.529 116.976 122.417 116.782 124.938 113.6C129.728 107.605 130.194 104.54 130.174 104.54C103.158 84.2446 73.1354 66.5496 40.4945 52.1724Z" fill="white"/>
<path d="M166.093 18.1406C166.17 18.4705 143.343 6.98424 110.935 2.87093C78.8762 -1.57223 37.2169 1.35754 7.17499 22.7972C7.54348 22.739 26.3949 52.3277 38.6327 54.1904C42.9965 41.9474 99.4924 12.2811 166.093 18.1406Z" fill="white"/>
<path d="M166.093 18.1406C154.165 46.9532 142.199 75.7464 130.174 104.54C130.077 104.637 115.144 97.4966 96.0984 88.2998C77.0919 78.8896 53.9931 67.4034 38.6328 54.2291C52.6161 22.6614 109.325 12.9214 166.093 18.1406Z" fill="#699FF0"/>
</g>
<defs>
<clipPath id="clip0">
<rect width="271.27" height="337.525" fill="white" transform="translate(0.77478 0.503906)"/>
</clipPath>
</defs>
</svg>
